{
.appVersion = "848";
DisplayStrings = (
/bKTta/bKTtRa/bSsTtRa,
/bBa/bBa/bBa/bKTtRa/bBa/bBa,
/bKSsMa/bKSsRa,
/bSa/bSignU,
/bSignU,
/bSsa/bSignU,
/bZero,
/bOne,
/bTwo,
/bFour,
/bFive,
/bSix,
/bSeven,
/bEight,
/bNine
);
date = "2016-01-28 13:00:38 +0000";
designer = "Neelakash Kshetrimayum";
designerURL = www.brandnewtype.com;
familyName = "New_Shree";
fontMaster = (
{
ascender = 800;
capHeight = 700;
descender = -200;
guideLines = (
{
locked = 1;
position = "{-92, 491}";
},
{
locked = 1;
position = "{-50, 456}";
}
);
id = "F2EBC5D5-DDE2-4851-B52F-F2293ECE9CC7";
weight = Light;
weightValue = 0;
xHeight = 500;
},
{
ascender = 800;
capHeight = 700;
descender = -200;
guideLines = (
{
locked = 1;
position = "{-128, 521}";
},
{
locked = 1;
position = "{-89, 456}";
}
);
id = "A309AC34-D742-49E2-8DE7-30304959F2B2";
weight = Bold;
xHeight = 500;
}
);
glyphs = (
{
glyphname = bA;
lastChange = "2016-02-13 19:56:52 +0000";
layers = (
{
layerId = "F2EBC5D5-DDE2-4851-B52F-F2293ECE9CC7";
paths = (
{
closed = 1;
nodes = (
"396 165 OFFCURVE",
"338 97 OFFCURVE",
"254 97 CURVE SMOOTH",
"152 97 OFFCURVE",
"73 200 OFFCURVE",
"7 402 CURVE",
"30 411 LINE",
"92 231 OFFCURVE",
"153 155 OFFCURVE",
"240 155 CURVE SMOOTH",
"310 155 OFFCURVE",
"362 204 OFFCURVE",
"362 273 CURVE SMOOTH",
"362 333 OFFCURVE",
"322 375 OFFCURVE",
"274 375 CURVE SMOOTH",
"266 375 OFFCURVE",
"258 374 OFFCURVE",
"250 372 CURVE",
"268 391 LINE",
"279 380 OFFCURVE",
"286 365 OFFCURVE",
"286 346 CURVE SMOOTH",
"286 307 OFFCURVE",
"256 280 OFFCURVE",
"220 280 CURVE SMOOTH",
"183 280 OFFCURVE",
"154 309 OFFCURVE",
"154 347 CURVE SMOOTH",
"154 389 OFFCURVE",
"191 418 OFFCURVE",
"242 418 CURVE SMOOTH",
"323 418 OFFCURVE",
"396 347 OFFCURVE",
"396 252 CURVE"
);
},
{
closed = 1;
nodes = (
"-10 456 LINE",
"-10 491 LINE",
"586 491 LINE",
"586 456 LINE"
);
},
{
closed = 1;
nodes = (
"506 466 LINE",
"506 0 LINE",
"481 0 LINE",
"470 98 OFFCURVE",
"424 174 OFFCURVE",
"370 207 CURVE",
"381 259 LINE",
"413 229 OFFCURVE",
"454 173 OFFCURVE",
"475 110 CURVE",
"466 107 LINE",
"466 466 LINE"
);
}
);
width = 576;
},
{
layerId = "A309AC34-D742-49E2-8DE7-30304959F2B2";
paths = (
{
closed = 1;
nodes = (
"426 131 OFFCURVE",
"366 57 OFFCURVE",
"271 57 CURVE SMOOTH",
"155 57 OFFCURVE",
"60 167 OFFCURVE",
"-12 398 CURVE",
"40 419 LINE",
"117 211 OFFCURVE",
"182 178 OFFCURVE",
"243 178 CURVE SMOOTH",
"309 178 OFFCURVE",
"355 217 OFFCURVE",
"355 270 CURVE SMOOTH",
"355 309 OFFCURVE",
"329 341 OFFCURVE",
"290 341 CURVE SMOOTH",
"283 341 OFFCURVE",
"274 340 OFFCURVE",
"266 338 CURVE",
"278 391 LINE",
"292 375 OFFCURVE",
"301 352 OFFCURVE",
"301 328 CURVE SMOOTH",
"301 282 OFFCURVE",
"268 253 OFFCURVE",
"227 253 CURVE SMOOTH",
"180 253 OFFCURVE",
"145 292 OFFCURVE",
"145 339 CURVE SMOOTH",
"145 390 OFFCURVE",
"186 428 OFFCURVE",
"249 428 CURVE SMOOTH",
"345 428 OFFCURVE",
"426 340 OFFCURVE",
"426 226 CURVE"
);
},
{
closed = 1;
nodes = (
"-30 456 LINE",
"-30 521 LINE",
"626 521 LINE",
"626 456 LINE"
);
},
{
closed = 1;
nodes = (
"546 466 LINE",
"546 0 LINE",
"486 0 LINE",
"479 78 OFFCURVE",
"429 139 OFFCURVE",
"370 157 CURVE",
"391 259 LINE",
"437 219 OFFCURVE",
"487 144 OFFCURVE",
"515 60 CURVE",
"466 107 LINE",
"466 466 LINE"
);
}
);
width = 596;
}
);
},
{
glyphname = bAa;
lastChange = "2016-02-13 19:57:41 +0000";
layers = (
{
layerId = "F2EBC5D5-DDE2-4851-B52F-F2293ECE9CC7";
paths = (
{
closed = 1;
nodes = (
"396 165 OFFCURVE",
"338 97 OFFCURVE",
"254 97 CURVE SMOOTH",
"152 97 OFFCURVE",
"73 200 OFFCURVE",
"7 402 CURVE",
"30 411 LINE",
"92 231 OFFCURVE",
"153 155 OFFCURVE",
"240 155 CURVE SMOOTH",
"310 155 OFFCURVE",
"362 204 OFFCURVE",
"362 273 CURVE SMOOTH",
"362 333 OFFCURVE",
"322 375 OFFCURVE",
"274 375 CURVE SMOOTH",
"266 375 OFFCURVE",
"258 374 OFFCURVE",
"250 372 CURVE",
"268 391 LINE",
"279 380 OFFCURVE",
"286 365 OFFCURVE",
"286 346 CURVE SMOOTH",
"286 307 OFFCURVE",
"256 280 OFFCURVE",
"220 280 CURVE SMOOTH",
"183 280 OFFCURVE",
"154 309 OFFCURVE",
"154 347 CURVE SMOOTH",
"154 389 OFFCURVE",
"191 418 OFFCURVE",
"242 418 CURVE SMOOTH",
"323 418 OFFCURVE",
"396 347 OFFCURVE",
"396 252 CURVE"
);
},
{
closed = 1;
nodes = (
"-10 456 LINE",
"-10 491 LINE",
"566 491 LINE",
"566 456 LINE"
);
},
{
closed = 1;
nodes = (
"506 466 LINE",
"506 0 LINE",
"481 0 LINE",
"470 98 OFFCURVE",
"424 174 OFFCURVE",
"370 207 CURVE",
"381 259 LINE",
"413 229 OFFCURVE",
"454 173 OFFCURVE",
"475 110 CURVE",
"466 107 LINE",
"466 466 LINE"
);
},
{
closed = 1;
nodes = (
"753 491 LINE",
"753 456 LINE",
"673 456 LINE",
"673 0 LINE",
"633 0 LINE",
"633 366 LINE SMOOTH",
"633 415 OFFCURVE",
"603 456 OFFCURVE",
"567 456 CURVE SMOOTH",
"551 456 LINE",
"551 491 LINE",
"571 491 LINE SMOOTH",
"604 491 OFFCURVE",
"637 451 OFFCURVE",
"648 384 CURVE",
"633 381 LINE",
"633 491 LINE"
);
}
);
width = 743;
},
{
layerId = "A309AC34-D742-49E2-8DE7-30304959F2B2";
paths = (
{
closed = 1;
nodes = (
"812 521 LINE",
"812 456 LINE",
"732 456 LINE",
"732 0 LINE",
"652 0 LINE",
"652 346 LINE SMOOTH",
"652 405 OFFCURVE",
"651 456 OFFCURVE",
"606 456 CURVE SMOOTH",
"560 456 LINE",
"560 521 LINE",
"621 521 LINE SMOOTH",
"664 521 OFFCURVE",
"678 474 OFFCURVE",
"687 394 CURVE",
"652 371 LINE",
"682 521 LINE"
);
},
{
closed = 1;
nodes = (
"426 131 OFFCURVE",
"366 57 OFFCURVE",
"271 57 CURVE SMOOTH",
"155 57 OFFCURVE",
"60 167 OFFCURVE",
"-12 398 CURVE",
"40 419 LINE",
"117 211 OFFCURVE",
"182 178 OFFCURVE",
"243 178 CURVE SMOOTH",
"309 178 OFFCURVE",
"355 217 OFFCURVE",
"355 270 CURVE SMOOTH",
"355 309 OFFCURVE",
"329 341 OFFCURVE",
"290 341 CURVE SMOOTH",
"283 341 OFFCURVE",
"274 340 OFFCURVE",
"266 338 CURVE",
"278 391 LINE",
"292 375 OFFCURVE",
"301 352 OFFCURVE",
"301 328 CURVE SMOOTH",
"301 282 OFFCURVE",
"268 253 OFFCURVE",
"227 253 CURVE SMOOTH",
"180 253 OFFCURVE",
"145 292 OFFCURVE",
"145 339 CURVE SMOOTH",
"145 390 OFFCURVE",
"186 428 OFFCURVE",
"249 428 CURVE SMOOTH",
"345 428 OFFCURVE",
"426 340 OFFCURVE",
"426 226 CURVE"
);
},
{
closed = 1;
nodes = (
"-30 456 LINE",
"-30 521 LINE",
"586 521 LINE",
"586 456 LINE"
);
},
{
closed = 1;
nodes = (
"546 466 LINE",
"546 0 LINE",
"486 0 LINE",
"479 78 OFFCURVE",
"429 139 OFFCURVE",
"370 157 CURVE",
"391 259 LINE",
"437 219 OFFCURVE",
"487 144 OFFCURVE",
"515 60 CURVE",
"466 107 LINE",
"466 466 LINE"
);
}
);
width = 782;
}
);
},
{
glyphname = bI;
lastChange = "2016-02-13 19:58:08 +0000";
layers = (
{
background = {
paths = (
{
closed = 1;
nodes = (
"426 491 LINE",
"426 456 LINE",
"-10 456 LINE",
"-10 491 LINE"
);
},
{
closed = 1;
nodes = (
"293 421 OFFCURVE",
"362 357 OFFCURVE",
"362 280 CURVE SMOOTH",
"362 196 OFFCURVE",
"279 129 OFFCURVE",
"171 128 CURVE",
"167 146 LINE",
"251 119 OFFCURVE",
"302 88 OFFCURVE",
"425 0 CURVE",
"409 -19 LINE",
"271 71 OFFCURVE",
"198 96 OFFCURVE",
"71 121 CURVE",
"38 196 LINE",
"69 187 OFFCURVE",
"117 181 OFFCURVE",
"152 181 CURVE SMOOTH",
"258 181 OFFCURVE",
"324 235 OFFCURVE",
"324 300 CURVE SMOOTH",
"324 344 OFFCURVE",
"293 375 OFFCURVE",
"236 375 CURVE SMOOTH",
"209 375 OFFCURVE",
"190 368 OFFCURVE",
"176 359 CURVE",
"205 390 LINE",
"210 377 OFFCURVE",
"211 364 OFFCURVE",
"211 356 CURVE SMOOTH",
"211 306 OFFCURVE",
"173 269 OFFCURVE",
"128 269 CURVE SMOOTH",
"90 269 OFFCURVE",
"65 296 OFFCURVE",
"65 330 CURVE SMOOTH",
"65 380 OFFCURVE",
"118 421 OFFCURVE",
"196 421 CURVE SMOOTH"
);
}
);
};
layerId = "F2EBC5D5-DDE2-4851-B52F-F2293ECE9CC7";
paths = (
{
closed = 1;
nodes = (
"426 491 LINE",
"426 456 LINE",
"-10 456 LINE",
"-10 491 LINE"
);
},
{
closed = 1;
nodes = (
"302 486 LINE",
"309 497 OFFCURVE",
"312 508 OFFCURVE",
"312 520 CURVE SMOOTH",
"312 548 OFFCURVE",
"296 564 OFFCURVE",
"253 564 CURVE SMOOTH",
"217 564 OFFCURVE",
"133 553 OFFCURVE",
"97 553 CURVE SMOOTH",
"33 553 OFFCURVE",
"-9 588 OFFCURVE",
"-9 638 CURVE SMOOTH",
"-9 668 OFFCURVE",
"6 694 OFFCURVE",
"25 714 CURVE",
"44 700 LINE",
"30 683 OFFCURVE",
"19 662 OFFCURVE",
"19 644 CURVE SMOOTH",
"19 620 OFFCURVE",
"38 604 OFFCURVE",
"80 604 CURVE SMOOTH",
"116 604 OFFCURVE",
"184 616 OFFCURVE",
"222 616 CURVE SMOOTH",
"301 616 OFFCURVE",
"340 564 OFFCURVE",
"346 485 CURVE"
);
},
{
closed = 1;
nodes = (
"293 421 OFFCURVE",
"362 357 OFFCURVE",
"362 280 CURVE SMOOTH",
"362 196 OFFCURVE",
"279 129 OFFCURVE",
"171 128 CURVE",
"167 146 LINE",
"251 119 OFFCURVE",
"302 88 OFFCURVE",
"425 0 CURVE",
"409 -19 LINE",
"271 71 OFFCURVE",
"198 96 OFFCURVE",
"71 121 CURVE",
"38 196 LINE",
"69 187 OFFCURVE",
"117 181 OFFCURVE",
"152 181 CURVE SMOOTH",
"258 181 OFFCURVE",
"324 235 OFFCURVE",
"324 300 CURVE SMOOTH",
"324 344 OFFCURVE",
"293 375 OFFCURVE",
"236 375 CURVE SMOOTH",
"209 375 OFFCURVE",
"190 368 OFFCURVE",
"176 359 CURVE",
"205 390 LINE",
"210 377 OFFCURVE",
"211 364 OFFCURVE",
"211 356 CURVE SMOOTH",
"211 306 OFFCURVE",
"173 269 OFFCURVE",
"128 269 CURVE SMOOTH",
"90 269 OFFCURVE",
"65 296 OFFCURVE",
"65 330 CURVE SMOOTH",
"65 380 OFFCURVE",
"118 421 OFFCURVE",
"196 421 CURVE SMOOTH"
);
}
);
width = 416;
},
{
layerId = "A309AC34-D742-49E2-8DE7-30304959F2B2";
paths = (
{
closed = 1;
nodes = (
"312 516 LINE",
"319 525 OFFCURVE",
"322 535 OFFCURVE",
"322 545 CURVE SMOOTH",
"322 565 OFFCURVE",
"311 576 OFFCURVE",
"279 576 CURVE SMOOTH",
"246 576 OFFCURVE",
"156 564 OFFCURVE",
"114 564 CURVE SMOOTH",
"32 564 OFFCURVE",
"-29 610 OFFCURVE",
"-29 678 CURVE SMOOTH",
"-29 712 OFFCURVE",
"-13 740 OFFCURVE",
"6 764 CURVE",
"50 738 LINE",
"37 721 OFFCURVE",
"29 703 OFFCURVE",
"29 690 CURVE SMOOTH",
"29 673 OFFCURVE",
"43 663 OFFCURVE",
"78 663 CURVE SMOOTH",
"117 663 OFFCURVE",
"182 675 OFFCURVE",
"223 675 CURVE SMOOTH",
"325 675 OFFCURVE",
"382 601 OFFCURVE",
"391 515 CURVE"
);
},
{
closed = 1;
nodes = (
"476 521 LINE",
"476 456 LINE",
"-30 456 LINE",
"-30 521 LINE"
);
},
{
closed = 1;
nodes = (
"319 432 OFFCURVE",
"407 352 OFFCURVE",
"407 256 CURVE SMOOTH",
"407 159 OFFCURVE",
"318 91 OFFCURVE",
"202 91 CURVE",
"162 156 LINE",
"248 125 OFFCURVE",
"319 90 OFFCURVE",
"460 -10 CURVE",
"424 -55 LINE",
"286 27 OFFCURVE",
"213 51 OFFCURVE",
"86 71 CURVE",
"19 202 LINE",
"58 192 OFFCURVE",
"109 186 OFFCURVE",
"148 186 CURVE SMOOTH",
"259 186 OFFCURVE",
"327 236 OFFCURVE",
"327 294 CURVE SMOOTH",
"327 326 OFFCURVE",
"305 348 OFFCURVE",
"263 348 CURVE SMOOTH",
"237 348 OFFCURVE",
"223 340 OFFCURVE",
"201 329 CURVE",
"220 390 LINE",
"233 373 OFFCURVE",
"236 357 OFFCURVE",
"236 343 CURVE SMOOTH",
"236 286 OFFCURVE",
"187 239 OFFCURVE",
"128 239 CURVE SMOOTH",
"77 239 OFFCURVE",
"40 275 OFFCURVE",
"40 321 CURVE SMOOTH",
"40 382 OFFCURVE",
"105 432 OFFCURVE",
"200 432 CURVE SMOOTH"
);
}
);
width = 446;
}
);
},
{
glyphname = bIi;
lastChange = "2016-02-13 19:58:21 +0000";
layers = (
{
layerId = "F2EBC5D5-DDE2-4851-B52F-F2293ECE9CC7";
paths = (
{
closed = 1;
nodes = (
"-10 456 LINE",
"-10 491 LINE",
"465 491 LINE",
"465 456 LINE"
);
},
{
closed = 1;
nodes = (
"28 387 OFFCURVE",
"64 424 OFFCURVE",
"122 424 CURVE SMOOTH",
"188 424 OFFCURVE",
"246 375 OFFCURVE",
"246 305 CURVE SMOOTH",
"246 293 OFFCURVE",
"244 282 OFFCURVE",
"241 271 CURVE",
"232 282 LINE",
"276 337 OFFCURVE",
"335 383 OFFCURVE",
"402 411 CURVE",
"441 362 LINE",
"396 323 OFFCURVE",
"364 261 OFFCURVE",
"364 165 CURVE SMOOTH",
"364 120 OFFCURVE",
"371 60 OFFCURVE",
"392 -14 CURVE",
"366 -22 LINE",
"336 62 OFFCURVE",
"321 129 OFFCURVE",
"321 191 CURVE SMOOTH",
"321 245 OFFCURVE",
"332 296 OFFCURVE",
"367 351 CURVE",
"377 340 LINE",
"320 301 OFFCURVE",
"307 292 OFFCURVE",
"240 202 CURVE SMOOTH",
"199 143 OFFCURVE",
"168 109 OFFCURVE",
"129 109 CURVE SMOOTH",
"89 109 OFFCURVE",
"59 147 OFFCURVE",
"46 215 CURVE",
"70 222 LINE",
"79 188 OFFCURVE",
"90 170 OFFCURVE",
"113 170 CURVE SMOOTH",
"160 170 OFFCURVE",
"216 249 OFFCURVE",
"216 303 CURVE SMOOTH",
"216 337 OFFCURVE",
"194 363 OFFCURVE",
"156 363 CURVE SMOOTH",
"139 363 OFFCURVE",
"123 358 OFFCURVE",
"111 351 CURVE",
"131 378 LINE",
"142 366 OFFCURVE",
"147 353 OFFCURVE",
"147 339 CURVE SMOOTH",
"147 306 OFFCURVE",
"120 282 OFFCURVE",
"89 282 CURVE SMOOTH",
"56 282 OFFCURVE",
"28 310 OFFCURVE",
"28 346 CURVE SMOOTH"
);
},
{
closed = 1;
nodes = (
"332 486 LINE",
"339 497 OFFCURVE",
"342 508 OFFCURVE",
"342 520 CURVE SMOOTH",
"342 548 OFFCURVE",
"326 564 OFFCURVE",
"282 564 CURVE SMOOTH",
"246 564 OFFCURVE",
"154 553 OFFCURVE",
"118 553 CURVE SMOOTH",
"53 553 OFFCURVE",
"11 588 OFFCURVE",
"11 638 CURVE SMOOTH",
"11 668 OFFCURVE",
"26 694 OFFCURVE",
"45 714 CURVE",
"64 700 LINE",
"50 684 OFFCURVE",
"39 661 OFFCURVE",
"39 643 CURVE SMOOTH",
"39 621 OFFCURVE",
"56 604 OFFCURVE",
"100 604 CURVE SMOOTH",
"138 604 OFFCURVE",
"212 616 OFFCURVE",
"251 616 CURVE SMOOTH",
"335 616 OFFCURVE",
"370 560 OFFCURVE",
"376 485 CURVE"
);
}
);
width = 455;
},
{
layerId = "A309AC34-D742-49E2-8DE7-30304959F2B2";
paths = (
{
closed = 1;
nodes = (
"15 386 OFFCURVE",
"61 434 OFFCURVE",
"130 434 CURVE SMOOTH",
"215 434 OFFCURVE",
"286 360 OFFCURVE",
"286 261 CURVE SMOOTH",
"286 245 OFFCURVE",
"284 235 OFFCURVE",
"281 224 CURVE",
"236 267 LINE",
"285 333 OFFCURVE",
"343 388 OFFCURVE",
"412 421 CURVE",
"487 332 LINE",
"432 290 OFFCURVE",
"405 230 OFFCURVE",
"405 146 CURVE SMOOTH",
"405 106 OFFCURVE",
"411 52 OFFCURVE",
"429 -14 CURVE",
"380 -32 LINE",
"348 52 OFFCURVE",
"331 118 OFFCURVE",
"331 182 CURVE SMOOTH",
"331 237 OFFCURVE",
"344 293 OFFCURVE",
"387 351 CURVE",
"423 300 LINE",
"343 246 OFFCURVE",
"351 249 OFFCURVE",
"282 161 CURVE SMOOTH",
"226 90 OFFCURVE",
"200 59 OFFCURVE",
"151 59 CURVE SMOOTH",
"85 59 OFFCURVE",
"42 116 OFFCURVE",
"25 189 CURVE",
"73 209 LINE",
"80 188 OFFCURVE",
"93 164 OFFCURVE",
"118 164 CURVE SMOOTH",
"162 164 OFFCURVE",
"223 240 OFFCURVE",
"223 291 CURVE SMOOTH",
"223 317 OFFCURVE",
"208 341 OFFCURVE",
"180 341 CURVE SMOOTH",
"161 341 OFFCURVE",
"144 330 OFFCURVE",
"131 315 CURVE",
"131 378 LINE",
"156 358 OFFCURVE",
"167 337 OFFCURVE",
"167 314 CURVE SMOOTH",
"167 274 OFFCURVE",
"135 246 OFFCURVE",
"96 246 CURVE SMOOTH",
"52 246 OFFCURVE",
"15 281 OFFCURVE",
"15 331 CURVE SMOOTH"
);
},
{
closed = 1;
nodes = (
"352 516 LINE",
"359 525 OFFCURVE",
"362 535 OFFCURVE",
"362 545 CURVE SMOOTH",
"362 565 OFFCURVE",
"351 576 OFFCURVE",
"318 576 CURVE SMOOTH",
"283 576 OFFCURVE",
"170 564 OFFCURVE",
"126 564 CURVE SMOOTH",
"41 564 OFFCURVE",
"-19 610 OFFCURVE",
"-19 678 CURVE SMOOTH",
"-19 712 OFFCURVE",
"-3 740 OFFCURVE",
"16 764 CURVE",
"60 738 LINE",
"47 721 OFFCURVE",
"39 703 OFFCURVE",
"39 690 CURVE SMOOTH",
"39 673 OFFCURVE",
"53 663 OFFCURVE",
"90 663 CURVE SMOOTH",
"131 663 OFFCURVE",
"218 675 OFFCURVE",
"260 675 CURVE SMOOTH",
"366 675 OFFCURVE",
"422 601 OFFCURVE",
"431 515 CURVE"
);
},
{
closed = 1;
nodes = (
"531 521 LINE",
"531 456 LINE",
"-30 456 LINE",
"-30 521 LINE"
);
}
);
width = 501;
}
);
},
{
glyphname = bU;
lastChange = "2016-02-13 19:58:29 +0000";
layers = (
{
layerId = "F2EBC5D5-DDE2-4851-B52F-F2293ECE9CC7";
paths = (
{
closed = 1;
nodes = (
"243 466 LINE",
"243 274 LINE SMOOTH",
"243 261 OFFCURVE",
"248 253 OFFCURVE",
"259 253 CURVE SMOOTH",
"285 253 OFFCURVE",
"334 299 OFFCURVE",
"373 371 CURVE",
"416 335 OFFCURVE",
"453 285 OFFCURVE",
"453 207 CURVE SMOOTH",
"453 105 OFFCURVE",
"390 24 OFFCURVE",
"292 24 CURVE SMOOTH",
"178 24 OFFCURVE",
"79 132 OFFCURVE",
"20 404 CURVE",
"45 411 LINE",
"99 178 OFFCURVE",
"174 82 OFFCURVE",
"278 82 CURVE SMOOTH",
"363 82 OFFCURVE",
"423 144 OFFCURVE",
"423 225 CURVE SMOOTH",
"423 270 OFFCURVE",
"404 300 OFFCURVE",
"380 317 CURVE",
"406 318 LINE",
"372 254 OFFCURVE",
"319 209 OFFCURVE",
"281 209 CURVE SMOOTH",
"241 209 OFFCURVE",
"203 257 OFFCURVE",
"203 305 CURVE SMOOTH",
"203 466 LINE"
);
},
{
closed = 1;
nodes = (
"-10 456 LINE",
"-10 491 LINE",
"497 491 LINE",
"497 456 LINE"
);
},
{
closed = 1;
nodes = (
"362 486 LINE",
"369 497 OFFCURVE",
"372 508 OFFCURVE",
"372 520 CURVE SMOOTH",
"372 548 OFFCURVE",
"357 564 OFFCURVE",
"312 564 CURVE SMOOTH",
"274 564 OFFCURVE",
"176 553 OFFCURVE",
"139 553 CURVE SMOOTH",
"72 553 OFFCURVE",
"31 588 OFFCURVE",
"31 638 CURVE SMOOTH",
"31 668 OFFCURVE",
"46 694 OFFCURVE",
"65 714 CURVE",
"84 700 LINE",
"70 684 OFFCURVE",
"59 661 OFFCURVE",
"59 643 CURVE SMOOTH",
"59 621 OFFCURVE",
"75 604 OFFCURVE",
"120 604 CURVE SMOOTH",
"158 604 OFFCURVE",
"241 616 OFFCURVE",
"280 616 CURVE SMOOTH",
"362 616 OFFCURVE",
"400 564 OFFCURVE",
"406 485 CURVE"
);
}
);
width = 487;
},
{
layerId = "A309AC34-D742-49E2-8DE7-30304959F2B2";
paths = (
{
closed = 1;
nodes = (
"253 466 LINE",
"253 314 LINE SMOOTH",
"253 303 OFFCURVE",
"256 295 OFFCURVE",
"266 295 CURVE SMOOTH",
"289 295 OFFCURVE",
"335 337 OFFCURVE",
"380 407 CURVE",
"434 360 OFFCURVE",
"487 289 OFFCURVE",
"487 195 CURVE SMOOTH",
"487 87 OFFCURVE",
"417 12 OFFCURVE",
"305 12 CURVE SMOOTH",
"176 12 OFFCURVE",
"68 112 OFFCURVE",
"-10 404 CURVE",
"48 422 LINE",
"109 189 OFFCURVE",
"193 128 OFFCURVE",
"285 128 CURVE SMOOTH",
"363 128 OFFCURVE",
"417 172 OFFCURVE",
"417 232 CURVE SMOOTH",
"417 267 OFFCURVE",
"398 305 OFFCURVE",
"360 327 CURVE",
"432 297 LINE",
"400 236 OFFCURVE",
"339 194 OFFCURVE",
"293 194 CURVE SMOOTH",
"230 194 OFFCURVE",
"173 274 OFFCURVE",
"173 349 CURVE SMOOTH",
"173 466 LINE"
);
},
{
closed = 1;
nodes = (
"-30 456 LINE",
"-30 521 LINE",
"543 521 LINE",
"543 456 LINE"
);
},
{
closed = 1;
nodes = (
"382 516 LINE",
"389 525 OFFCURVE",
"392 535 OFFCURVE",
"392 545 CURVE SMOOTH",
"392 564 OFFCURVE",
"380 576 OFFCURVE",
"341 576 CURVE SMOOTH",
"301 576 OFFCURVE",
"190 564 OFFCURVE",
"146 564 CURVE SMOOTH",
"61 564 OFFCURVE",
"1 610 OFFCURVE",
"1 678 CURVE SMOOTH",
"1 712 OFFCURVE",
"17 740 OFFCURVE",
"36 764 CURVE",
"80 738 LINE",
"67 721 OFFCURVE",
"59 703 OFFCURVE",
"59 690 CURVE SMOOTH",
"59 673 OFFCURVE",
"73 663 OFFCURVE",
"110 663 CURVE SMOOTH",
"151 663 OFFCURVE",
"237 675 OFFCURVE",
"281 675 CURVE SMOOTH",
"391 675 OFFCURVE",
"451 601 OFFCURVE",
"461 515 CURVE"
);
}
);
width = 513;
}
);
},
{
glyphname = bUu;
lastChange = "2016-02-13 19:58:37 +0000";
layers = (
{
layerId = "F2EBC5D5-DDE2-4851-B52F-F2293ECE9CC7";
paths = (
{
closed = 1;
nodes = (
"-10 456 LINE",
"-10 491 LINE",
"544 491 LINE",
"544 456 LINE"
);
},
{
closed = 1;
nodes = (
"409 486 LINE",
"416 497 OFFCURVE",
"419 508 OFFCURVE",
"419 520 CURVE SMOOTH",
"419 549 OFFCURVE",
"404 564 OFFCURVE",
"357 564 CURVE SMOOTH",
"316 564 OFFCURVE",
"199 553 OFFCURVE",
"155 553 CURVE SMOOTH",
"77 553 OFFCURVE",
"28 588 OFFCURVE",
"28 639 CURVE SMOOTH",
"28 667 OFFCURVE",
"43 694 OFFCURVE",
"62 714 CURVE",
"81 700 LINE",
"67 684 OFFCURVE",
"56 661 OFFCURVE",
"56 644 CURVE SMOOTH",
"56 621 OFFCURVE",
"78 604 OFFCURVE",
"135 604 CURVE SMOOTH",
"183 604 OFFCURVE",
"283 616 OFFCURVE",
"325 616 CURVE SMOOTH",
"406 616 OFFCURVE",
"446 570 OFFCURVE",
"453 485 CURVE"
);
},
{
closed = 1;
nodes = (
"198 16 OFFCURVE",
"79 110 OFFCURVE",
"22 394 CURVE",
"47 401 LINE",
"105 148 OFFCURVE",
"184 77 OFFCURVE",
"295 59 CURVE",
"275 49 LINE",
"188 95 OFFCURVE",
"128 206 OFFCURVE",
"97 405 CURVE",
"122 410 LINE",
"160 179 OFFCURVE",
"242 83 OFFCURVE",
"334 83 CURVE SMOOTH",
"408 83 OFFCURVE",
"470 145 OFFCURVE",
"470 225 CURVE SMOOTH",
"470 270 OFFCURVE",
"451 300 OFFCURVE",
"427 317 CURVE",
"453 318 LINE",
"419 254 OFFCURVE",
"366 209 OFFCURVE",
"328 209 CURVE SMOOTH",
"288 209 OFFCURVE",
"250 257 OFFCURVE",
"250 305 CURVE SMOOTH",
"250 466 LINE",
"290 466 LINE",
"290 274 LINE SMOOTH",
"290 261 OFFCURVE",
"295 253 OFFCURVE",
"306 253 CURVE SMOOTH",
"332 253 OFFCURVE",
"381 299 OFFCURVE",
"420 371 CURVE",
"463 335 OFFCURVE",
"500 285 OFFCURVE",
"500 206 CURVE SMOOTH",
"500 100 OFFCURVE",
"429 16 OFFCURVE",
"317 16 CURVE SMOOTH"
);
}
);
width = 534;
},
{
layerId = "A309AC34-D742-49E2-8DE7-30304959F2B2";
paths = (
{
closed = 1;
nodes = (
"284 65 LINE",
"179 123 OFFCURVE",
"125 235 OFFCURVE",
"80 417 CURVE",
"133 431 LINE",
"192 195 OFFCURVE",
"270 128 OFFCURVE",
"359 128 CURVE SMOOTH",
"431 128 OFFCURVE",
"487 171 OFFCURVE",
"487 232 CURVE SMOOTH",
"487 267 OFFCURVE",
"468 305 OFFCURVE",
"430 327 CURVE",
"502 297 LINE",
"470 236 OFFCURVE",
"409 194 OFFCURVE",
"363 194 CURVE SMOOTH",
"300 194 OFFCURVE",
"243 274 OFFCURVE",
"243 349 CURVE SMOOTH",
"243 466 LINE",
"323 466 LINE",
"323 314 LINE SMOOTH",
"323 303 OFFCURVE",
"326 295 OFFCURVE",
"336 295 CURVE SMOOTH",
"359 295 OFFCURVE",
"405 337 OFFCURVE",
"450 407 CURVE",
"502 362 OFFCURVE",
"557 289 OFFCURVE",
"557 195 CURVE SMOOTH",
"557 88 OFFCURVE",
"481 12 OFFCURVE",
"351 12 CURVE SMOOTH",
"192 12 OFFCURVE",
"76 116 OFFCURVE",
"-10 401 CURVE",
"43 417 LINE",
"110 192 OFFCURVE",
"195 88 OFFCURVE",
"335 88 CURVE"
);
},
{
closed = 1;
nodes = (
"-30 456 LINE",
"-30 521 LINE",
"613 521 LINE",
"613 456 LINE"
);
},
{
closed = 1;
nodes = (
"452 516 LINE",
"459 525 OFFCURVE",
"462 535 OFFCURVE",
"462 545 CURVE SMOOTH",
"462 565 OFFCURVE",
"450 576 OFFCURVE",
"409 576 CURVE SMOOTH",
"367 576 OFFCURVE",
"226 564 OFFCURVE",
"178 564 CURVE SMOOTH",
"84 564 OFFCURVE",
"21 610 OFFCURVE",
"21 678 CURVE SMOOTH",
"21 712 OFFCURVE",
"37 740 OFFCURVE",
"56 764 CURVE",
"100 738 LINE",
"87 721 OFFCURVE",
"79 703 OFFCURVE",
"79 691 CURVE SMOOTH",
"79 673 OFFCURVE",
"95 663 OFFCURVE",
"139 663 CURVE SMOOTH",
"188 663 OFFCURVE",
"302 675 OFFCURVE",
"345 675 CURVE SMOOTH",
"453 675 OFFCURVE",
"521 601 OFFCURVE",
"531 515 CURVE"
);
}
);
width = 583;
}
);
},
{
color = 0;
glyphname = bVocalicR;
lastChange = "2016-02-13 19:58:45 +0000";
layers = (
{
layerId = "F2EBC5D5-DDE2-4851-B52F-F2293ECE9CC7";
paths = (
{
closed = 1;
nodes = (
"359 261 LINE",
"404 229 OFFCURVE",
"440 187 OFFCURVE",
"458 133 CURVE",
"446 126 LINE",
"446 491 LINE",
"566 491 LINE",
"566 456 LINE",
"486 456 LINE",
"486 51 LINE",
"461 51 LINE",
"451 132 OFFCURVE",
"420 181 OFFCURVE",
"355 214 CURVE"
);
},
{
closed = 1;
nodes = (
"328 491 LINE",
"368 491 LINE",
"368 0 LINE",
"343 0 LINE",
"333 87 OFFCURVE",
"249 169 OFFCURVE",
"118 192 CURVE",
"64 260 LINE",
"150 327 OFFCURVE",
"240 385 OFFCURVE",
"336 437 CURVE",
"336 378 LINE",
"255 335 OFFCURVE",
"178 284 OFFCURVE",
"103 225 CURVE",
"107 253 LINE",
"203 227 OFFCURVE",
"292 176 OFFCURVE",
"338 78 CURVE",
"328 62 LINE"
);
},
{
closed = 1;
nodes = (
"284 384 LINE",
"273 417 OFFCURVE",
"247 449 OFFCURVE",
"220 463 CURVE",
"248 459 LINE",
"205 394 OFFCURVE",
"152 364 OFFCURVE",
"103 364 CURVE SMOOTH",
"55 364 OFFCURVE",
"22 392 OFFCURVE",
"22 430 CURVE SMOOTH",
"22 459 OFFCURVE",
"41 479 OFFCURVE",
"68 479 CURVE SMOOTH",
"94 479 OFFCURVE",
"112 460 OFFCURVE",
"112 436 CURVE SMOOTH",
"112 425 OFFCURVE",
"108 414 OFFCURVE",
"100 403 CURVE",
"85 427 LINE",
"92 424 OFFCURVE",
"99 423 OFFCURVE",
"106 423 CURVE SMOOTH",
"144 423 OFFCURVE",
"186 458 OFFCURVE",
"214 509 CURVE",
"262 476 OFFCURVE",
"300 430 OFFCURVE",
"308 393 CURVE"
);
}
);
width = 556;
},
{
layerId = "A309AC34-D742-49E2-8DE7-30304959F2B2";
paths = (
{
closed = 1;
nodes = (
"354 521 LINE",
"434 521 LINE",
"434 0 LINE",
"379 0 LINE",
"362 62 OFFCURVE",
"285 119 OFFCURVE",
"154 132 CURVE",
"70 265 LINE",
"165 326 OFFCURVE",
"271 385 OFFCURVE",
"372 429 CURVE",
"402 320 LINE",
"313 280 OFFCURVE",
"230 237 OFFCURVE",
"149 180 CURVE",
"123 253 LINE",
"250 221 OFFCURVE",
"348 158 OFFCURVE",
"404 38 CURVE",
"354 82 LINE"
);
},
{
closed = 1;
nodes = (
"417 257 LINE",
"481 217 OFFCURVE",
"523 158 OFFCURVE",
"544 83 CURVE",
"496 126 LINE",
"496 521 LINE",
"656 521 LINE",
"656 456 LINE",
"576 456 LINE",
"576 51 LINE",
"521 51 LINE",
"512 102 OFFCURVE",
"484 140 OFFCURVE",
"425 154 CURVE"
);
},
{
closed = 1;
nodes = (
"293 364 LINE",
"281 408 OFFCURVE",
"255 436 OFFCURVE",
"227 453 CURVE",
"289 455 LINE",
"244 391 OFFCURVE",
"182 358 OFFCURVE",
"127 358 CURVE SMOOTH",
"67 358 OFFCURVE",
"26 395 OFFCURVE",
"26 444 CURVE SMOOTH",
"26 483 OFFCURVE",
"53 508 OFFCURVE",
"88 508 CURVE SMOOTH",
"125 508 OFFCURVE",
"150 481 OFFCURVE",
"150 449 CURVE SMOOTH",
"150 430 OFFCURVE",
"141 415 OFFCURVE",
"123 404 CURVE",
"98 455 LINE",
"108 452 OFFCURVE",
"120 451 OFFCURVE",
"126 451 CURVE SMOOTH",
"158 451 OFFCURVE",
"210 487 OFFCURVE",
"238 531 CURVE",
"297 494 OFFCURVE",
"333 443 OFFCURVE",
"352 385 CURVE"
);
}
);
width = 626;
}
);
},
{
color = 0;
glyphname = bVocalicL;
lastChange = "2016-02-13 19:59:01 +0000";
layers = (
{
layerId = "F2EBC5D5-DDE2-4851-B52F-F2293ECE9CC7";
paths = (
{
closed = 1;
nodes = (
"54 181 OFFCURVE",
"103 238 OFFCURVE",
"181 238 CURVE SMOOTH",
"267 238 OFFCURVE",
"329 169 OFFCURVE",
"329 86 CURVE SMOOTH",
"329 60 OFFCURVE",
"323 42 OFFCURVE",
"319 34 CURVE",
"304 65 LINE",
"353 78 OFFCURVE",
"388 112 OFFCURVE",
"388 159 CURVE SMOOTH",
"388 238 OFFCURVE",
"300 273 OFFCURVE",
"207 309 CURVE SMOOTH",
"84 359 OFFCURVE",
"50 409 OFFCURVE",
"50 454 CURVE SMOOTH",
"50 497 OFFCURVE",
"80 514 OFFCURVE",
"104 514 CURVE SMOOTH",
"135 514 OFFCURVE",
"158 491 OFFCURVE",
"158 463 CURVE SMOOTH",
"158 436 OFFCURVE",
"138 414 OFFCURVE",
"111 414 CURVE SMOOTH",
"101 414 OFFCURVE",
"91 417 OFFCURVE",
"80 425 CURVE",
"89 448 LINE",
"110 409 OFFCURVE",
"129 400 OFFCURVE",
"230 358 CURVE SMOOTH",
"330 316 OFFCURVE",
"423 264 OFFCURVE",
"423 153 CURVE SMOOTH",
"423 62 OFFCURVE",
"354 1 OFFCURVE",
"267 -8 CURVE",
"282 28 OFFCURVE",
"289 68 OFFCURVE",
"289 96 CURVE SMOOTH",
"289 165 OFFCURVE",
"246 193 OFFCURVE",
"199 193 CURVE SMOOTH",
"143 193 OFFCURVE",
"98 155 OFFCURVE",
"98 95 CURVE SMOOTH",
"98 65 OFFCURVE",
"110 45 OFFCURVE",
"133 29 CURVE",
"115 29 LINE",
"107 70 OFFCURVE",
"140 86 OFFCURVE",
"162 86 CURVE SMOOTH",
"188 86 OFFCURVE",
"211 64 OFFCURVE",
"211 36 CURVE SMOOTH",
"211 11 OFFCURVE",
"191 -13 OFFCURVE",
"157 -13 CURVE SMOOTH",
"104 -13 OFFCURVE",
"54 46 OFFCURVE",
"54 114 CURVE SMOOTH"
);
}
);
width = 433;
},
{
layerId = "A309AC34-D742-49E2-8DE7-30304959F2B2";
paths = (
{
closed = 1;
nodes = (
"54 211 OFFCURVE",
"116 273 OFFCURVE",
"199 273 CURVE SMOOTH",
"296 273 OFFCURVE",
"376 188 OFFCURVE",
"376 80 CURVE SMOOTH",
"376 51 OFFCURVE",
"370 31 OFFCURVE",
"360 16 CURVE",
"324 85 LINE",
"374 107 OFFCURVE",
"414 142 OFFCURVE",
"414 197 CURVE SMOOTH",
"414 247 OFFCURVE",
"382 260 OFFCURVE",
"225 320 CURVE SMOOTH",
"162 344 OFFCURVE",
"60 385 OFFCURVE",
"60 471 CURVE SMOOTH",
"60 521 OFFCURVE",
"95 552 OFFCURVE",
"137 552 CURVE SMOOTH",
"178 552 OFFCURVE",
"208 522 OFFCURVE",
"208 484 CURVE SMOOTH",
"208 448 OFFCURVE",
"181 419 OFFCURVE",
"149 419 CURVE SMOOTH",
"141 419 OFFCURVE",
"131 421 OFFCURVE",
"120 425 CURVE",
"128 472 LINE",
"167 436 OFFCURVE",
"179 431 OFFCURVE",
"322 377 CURVE SMOOTH",
"439 333 OFFCURVE",
"477 260 OFFCURVE",
"477 183 CURVE SMOOTH",
"477 74 OFFCURVE",
"400 1 OFFCURVE",
"292 -11 CURVE",
"308 20 OFFCURVE",
"316 55 OFFCURVE",
"316 85 CURVE SMOOTH",
"316 153 OFFCURVE",
"275 182 OFFCURVE",
"228 182 CURVE SMOOTH",
"172 182 OFFCURVE",
"133 141 OFFCURVE",
"133 98 CURVE SMOOTH",
"133 80 OFFCURVE",
"140 62 OFFCURVE",
"155 49 CURVE",
"137 58 LINE",
"138 90 OFFCURVE",
"161 115 OFFCURVE",
"193 115 CURVE SMOOTH",
"228 115 OFFCURVE",
"255 86 OFFCURVE",
"255 50 CURVE SMOOTH",
"255 11 OFFCURVE",
"224 -18 OFFCURVE",
"179 -18 CURVE SMOOTH",
"115 -18 OFFCURVE",
"54 42 OFFCURVE",
"54 126 CURVE SMOOTH"
);
}
);
width = 487;
}
);
},
{
glyphname = bE;
lastChange = "2016-02-13 19:59:17 +0000";
layers = (
{
layerId = "F2EBC5D5-DDE2-4851-B52F-F2293ECE9CC7";
paths = (
{
closed = 1;
nodes = (
"30 292 OFFCURVE",
"42 331 OFFCURVE",
"66 366 CURVE",
"86 354 LINE",
"69 329 OFFCURVE",
"59 296 OFFCURVE",
"59 263 CURVE SMOOTH",
"59 194 OFFCURVE",
"100 139 OFFCURVE",
"183 139 CURVE SMOOTH",
"218 139 OFFCURVE",
"295 149 OFFCURVE",
"322 149 CURVE SMOOTH",
"371 149 OFFCURVE",
"408 118 OFFCURVE",
"423 73 CURVE",
"412 81 LINE",
"412 418 LINE SMOOTH",
"412 443 OFFCURVE",
"402 458 OFFCURVE",
"383 458 CURVE SMOOTH",
"336 458 OFFCURVE",
"240 363 OFFCURVE",
"240 307 CURVE SMOOTH",
"240 301 OFFCURVE",
"241 291 OFFCURVE",
"249 281 CURVE",
"235 291 LINE",
"242 306 OFFCURVE",
"259 318 OFFCURVE",
"280 318 CURVE SMOOTH",
"309 318 OFFCURVE",
"334 296 OFFCURVE",
"334 264 CURVE SMOOTH",
"334 231 OFFCURVE",
"308 207 OFFCURVE",
"268 207 CURVE SMOOTH",
"218 207 OFFCURVE",
"180 244 OFFCURVE",
"180 299 CURVE SMOOTH",
"180 392 OFFCURVE",
"289 500 OFFCURVE",
"362 500 CURVE SMOOTH",
"412 500 OFFCURVE",
"452 448 OFFCURVE",
"452 403 CURVE SMOOTH",
"452 0 LINE",
"427 0 LINE",
"421 65 OFFCURVE",
"398 92 OFFCURVE",
"351 92 CURVE SMOOTH",
"322 92 OFFCURVE",
"247 81 OFFCURVE",
"208 81 CURVE SMOOTH",
"107 81 OFFCURVE",
"30 155 OFFCURVE",
"30 253 CURVE SMOOTH"
);
}
);
width = 522;
},
{
layerId = "A309AC34-D742-49E2-8DE7-30304959F2B2";
paths = (
{
closed = 1;
nodes = (
"10 310 OFFCURVE",
"25 356 OFFCURVE",
"55 398 CURVE",
"100 374 LINE",
"84 345 OFFCURVE",
"69 308 OFFCURVE",
"69 267 CURVE SMOOTH",
"69 195 OFFCURVE",
"115 152 OFFCURVE",
"189 152 CURVE SMOOTH",
"225 152 OFFCURVE",
"289 162 OFFCURVE",
"320 162 CURVE SMOOTH",
"390 162 OFFCURVE",
"441 112 OFFCURVE",
"463 33 CURVE",
"422 81 LINE",
"422 428 LINE SMOOTH",
"422 439 OFFCURVE",
"417 448 OFFCURVE",
"406 448 CURVE SMOOTH",
"371 448 OFFCURVE",
"272 353 OFFCURVE",
"272 287 CURVE SMOOTH",
"272 276 OFFCURVE",
"275 260 OFFCURVE",
"279 251 CURVE",
"225 291 LINE",
"235 317 OFFCURVE",
"261 338 OFFCURVE",
"291 338 CURVE SMOOTH",
"327 338 OFFCURVE",
"359 306 OFFCURVE",
"359 267 CURVE SMOOTH",
"359 226 OFFCURVE",
"325 193 OFFCURVE",
"275 193 CURVE SMOOTH",
"214 193 OFFCURVE",
"164 244 OFFCURVE",
"164 311 CURVE SMOOTH",
"164 413 OFFCURVE",
"281 530 OFFCURVE",
"367 530 CURVE SMOOTH",
"437 530 OFFCURVE",
"502 451 OFFCURVE",
"502 383 CURVE SMOOTH",
"502 0 LINE",
"442 0 LINE",
"440 42 OFFCURVE",
"418 65 OFFCURVE",
"366 65 CURVE SMOOTH",
"325 65 OFFCURVE",
"268 51 OFFCURVE",
"221 51 CURVE SMOOTH",
"99 51 OFFCURVE",
"10 143 OFFCURVE",
"10 261 CURVE SMOOTH"
);
}
);
width = 552;
}
);
},
{
glyphname = bAi;
lastChange = "2016-02-13 19:59:30 +0000";
layers = (
{
layerId = "F2EBC5D5-DDE2-4851-B52F-F2293ECE9CC7";
paths = (
{
closed = 1;
nodes = (
"30 292 OFFCURVE",
"42 331 OFFCURVE",
"66 366 CURVE",
"86 354 LINE",
"69 329 OFFCURVE",
"59 296 OFFCURVE",
"59 263 CURVE SMOOTH",
"59 194 OFFCURVE",
"100 139 OFFCURVE",
"183 139 CURVE SMOOTH",
"218 139 OFFCURVE",
"295 149 OFFCURVE",
"322 149 CURVE SMOOTH",
"371 149 OFFCURVE",
"408 118 OFFCURVE",
"423 73 CURVE",
"412 81 LINE",
"412 418 LINE SMOOTH",
"412 443 OFFCURVE",
"402 458 OFFCURVE",
"383 458 CURVE SMOOTH",
"336 458 OFFCURVE",
"240 363 OFFCURVE",
"240 307 CURVE SMOOTH",
"240 301 OFFCURVE",
"241 291 OFFCURVE",
"249 281 CURVE",
"235 291 LINE",
"242 306 OFFCURVE",
"259 318 OFFCURVE",
"280 318 CURVE SMOOTH",
"309 318 OFFCURVE",
"334 296 OFFCURVE",
"334 264 CURVE SMOOTH",
"334 231 OFFCURVE",
"308 207 OFFCURVE",
"268 207 CURVE SMOOTH",
"218 207 OFFCURVE",
"180 244 OFFCURVE",
"180 299 CURVE SMOOTH",
"180 392 OFFCURVE",
"289 500 OFFCURVE",
"362 500 CURVE SMOOTH",
"412 500 OFFCURVE",
"452 448 OFFCURVE",
"452 403 CURVE SMOOTH",
"452 0 LINE",
"427 0 LINE",
"421 65 OFFCURVE",
"398 92 OFFCURVE",
"351 92 CURVE SMOOTH",
"322 92 OFFCURVE",
"247 81 OFFCURVE",
"208 81 CURVE SMOOTH",
"107 81 OFFCURVE",
"30 155 OFFCURVE",
"30 253 CURVE SMOOTH"
);
},
{
closed = 1;
nodes = (
"450 391 LINE",
"480 391 OFFCURVE",
"499 414 OFFCURVE",
"499 447 CURVE SMOOTH",
"499 524 OFFCURVE",
"393 551 OFFCURVE",
"349 562 CURVE SMOOTH",
"274 581 OFFCURVE",
"167 611 OFFCURVE",
"167 681 CURVE SMOOTH",
"167 706 OFFCURVE",
"181 730 OFFCURVE",
"207 747 CURVE",
"221 732 LINE",
"205 718 OFFCURVE",
"196 707 OFFCURVE",
"196 692 CURVE SMOOTH",
"196 660 OFFCURVE",
"235 649 OFFCURVE",
"378 609 CURVE SMOOTH",
"477 581 OFFCURVE",
"528 512 OFFCURVE",
"528 448 CURVE SMOOTH",
"528 401 OFFCURVE",
"502 362 OFFCURVE",
"450 340 CURVE"
);
}
);
width = 541;
},
{
layerId = "A309AC34-D742-49E2-8DE7-30304959F2B2";
paths = (
{
closed = 1;
nodes = (
"493 381 LINE",
"522 383 OFFCURVE",
"540 406 OFFCURVE",
"540 442 CURVE SMOOTH",
"540 536 OFFCURVE",
"416 564 OFFCURVE",
"334 582 CURVE SMOOTH",
"239 603 OFFCURVE",
"135 631 OFFCURVE",
"135 715 CURVE SMOOTH",
"135 745 OFFCURVE",
"149 772 OFFCURVE",
"175 797 CURVE",
"211 772 LINE",
"196 755 OFFCURVE",
"189 740 OFFCURVE",
"189 730 CURVE SMOOTH",
"189 691 OFFCURVE",
"297 687 OFFCURVE",
"369 670 CURVE SMOOTH",
"508 638 OFFCURVE",
"592 545 OFFCURVE",
"592 431 CURVE SMOOTH",
"592 366 OFFCURVE",
"565 310 OFFCURVE",
"493 280 CURVE"
);
},
{
closed = 1;
nodes = (
"10 310 OFFCURVE",
"25 356 OFFCURVE",
"55 398 CURVE",
"100 374 LINE",
"84 345 OFFCURVE",
"69 308 OFFCURVE",
"69 267 CURVE SMOOTH",
"69 195 OFFCURVE",
"115 152 OFFCURVE",
"189 152 CURVE SMOOTH",
"225 152 OFFCURVE",
"289 162 OFFCURVE",
"320 162 CURVE SMOOTH",
"390 162 OFFCURVE",
"441 112 OFFCURVE",
"463 33 CURVE",
"422 81 LINE",
"422 428 LINE SMOOTH",
"422 439 OFFCURVE",
"417 448 OFFCURVE",
"406 448 CURVE SMOOTH",
"371 448 OFFCURVE",
"272 353 OFFCURVE",
"272 287 CURVE SMOOTH",
"272 276 OFFCURVE",
"275 260 OFFCURVE",
"279 251 CURVE",
"225 291 LINE",
"235 317 OFFCURVE",
"261 338 OFFCURVE",
"291 338 CURVE SMOOTH",
"327 338 OFFCURVE",
"359 306 OFFCURVE",
"359 267 CURVE SMOOTH",
"359 226 OFFCURVE",
"325 193 OFFCURVE",
"275 193 CURVE SMOOTH",
"214 193 OFFCURVE",
"164 244 OFFCURVE",
"164 311 CURVE SMOOTH",
"164 413 OFFCURVE",
"281 530 OFFCURVE",
"367 530 CURVE SMOOTH",
"437 530 OFFCURVE",
"502 451 OFFCURVE",
"502 383 CURVE SMOOTH",
"502 0 LINE",
"442 0 LINE",
"440 42 OFFCURVE",
"418 65 OFFCURVE",
"366 65 CURVE SMOOTH",
"325 65 OFFCURVE",
"268 51 OFFCURVE",
"221 51 CURVE SMOOTH",
"99 51 OFFCURVE",
"10 143 OFFCURVE",
"10 261 CURVE SMOOTH"
);
}
);
width = 598;
}
);
},
{
glyphname = bO;
lastChange = "2016-02-13 19:59:40 +0000";
layers = (
{
layerId = "F2EBC5D5-DDE2-4851-B52F-F2293ECE9CC7";
paths = (
{
closed = 1;
nodes = (
"48 417 LINE",
"123 183 OFFCURVE",
"229 91 OFFCURVE",
"331 91 CURVE SMOOTH",
"404 91 OFFCURVE",
"449 138 OFFCURVE",
"449 197 CURVE SMOOTH",
"449 238 OFFCURVE",
"428 262 OFFCURVE",
"389 271 CURVE",
"427 272 LINE",
"411 249 OFFCURVE",
"388 230 OFFCURVE",
"359 230 CURVE SMOOTH",
"328 230 OFFCURVE",
"302 253 OFFCURVE",
"302 284 CURVE SMOOTH",
"302 313 OFFCURVE",
"325 337 OFFCURVE",
"356 337 CURVE SMOOTH",
"383 337 OFFCURVE",
"406 319 OFFCURVE",
"418 303 CURVE",
"379 308 LINE",
"412 328 OFFCURVE",
"432 370 OFFCURVE",
"432 403 CURVE SMOOTH",
"432 439 OFFCURVE",
"408 460 OFFCURVE",
"363 460 CURVE SMOOTH",
"305 460 OFFCURVE",
"235 425 OFFCURVE",
"206 345 CURVE",
"192 375 LINE",
"229 384 OFFCURVE",
"260 357 OFFCURVE",
"260 323 CURVE SMOOTH",
"260 295 OFFCURVE",
"237 274 OFFCURVE",
"210 274 CURVE SMOOTH",
"178 274 OFFCURVE",
"153 303 OFFCURVE",
"153 345 CURVE SMOOTH",
"153 426 OFFCURVE",
"245 500 OFFCURVE",
"340 500 CURVE SMOOTH",
"418 500 OFFCURVE",
"469 451 OFFCURVE",
"469 384 CURVE SMOOTH",
"469 331 OFFCURVE",
"438 275 OFFCURVE",
"394 243 CURVE",
"418 300 LINE",
"453 278 OFFCURVE",
"489 232 OFFCURVE",
"489 172 CURVE SMOOTH",
"489 91 OFFCURVE",
"424 30 OFFCURVE",
"342 30 CURVE SMOOTH",
"224 30 OFFCURVE",
"99 157 OFFCURVE",
"24 408 CURVE"
);
}
);
width = 529;
},
{
layerId = "A309AC34-D742-49E2-8DE7-30304959F2B2";
paths = (
{
closed = 1;
nodes = (
"54 435 LINE",
"143 209 OFFCURVE",
"252 134 OFFCURVE",
"354 134 CURVE SMOOTH",
"420 134 OFFCURVE",
"463 165 OFFCURVE",
"463 213 CURVE SMOOTH",
"463 232 OFFCURVE",
"456 247 OFFCURVE",
"427 260 CURVE",
"479 265 LINE",
"463 239 OFFCURVE",
"431 212 OFFCURVE",
"392 212 CURVE SMOOTH",
"349 212 OFFCURVE",
"318 245 OFFCURVE",
"318 285 CURVE SMOOTH",
"318 324 OFFCURVE",
"348 357 OFFCURVE",
"390 357 CURVE SMOOTH",
"429 357 OFFCURVE",
"457 330 OFFCURVE",
"474 293 CURVE",
"405 335 LINE",
"431 352 OFFCURVE",
"448 377 OFFCURVE",
"448 401 CURVE SMOOTH",
"448 428 OFFCURVE",
"428 450 OFFCURVE",
"390 450 CURVE SMOOTH",
"339 450 OFFCURVE",
"278 412 OFFCURVE",
"252 335 CURVE",
"208 405 LINE",
"259 417 OFFCURVE",
"302 380 OFFCURVE",
"302 333 CURVE SMOOTH",
"302 294 OFFCURVE",
"272 264 OFFCURVE",
"233 264 CURVE SMOOTH",
"187 264 OFFCURVE",
"149 307 OFFCURVE",
"149 363 CURVE SMOOTH",
"149 452 OFFCURVE",
"245 530 OFFCURVE",
"346 530 CURVE SMOOTH",
"450 530 OFFCURVE",
"525 448 OFFCURVE",
"525 366 CURVE SMOOTH",
"525 316 OFFCURVE",
"498 264 OFFCURVE",
"460 249 CURVE",
"474 300 LINE",
"507 278 OFFCURVE",
"545 233 OFFCURVE",
"545 169 CURVE SMOOTH",
"545 87 OFFCURVE",
"485 18 OFFCURVE",
"379 18 CURVE SMOOTH",
"235 18 OFFCURVE",
"97 147 OFFCURVE",
"0 411 CURVE"
);
}
);
width = 565;
}
);
},
{
glyphname = bAu;
lastChange = "2016-02-13 19:59:48 +0000";
layers = (
{
layerId = "F2EBC5D5-DDE2-4851-B52F-F2293ECE9CC7";
paths = (
{
closed = 1;
nodes = (
"48 417 LINE",
"123 183 OFFCURVE",
"229 91 OFFCURVE",
"331 91 CURVE SMOOTH",
"404 91 OFFCURVE",
"449 138 OFFCURVE",
"449 197 CURVE SMOOTH",
"449 238 OFFCURVE",
"428 262 OFFCURVE",
"389 271 CURVE",
"427 272 LINE",
"411 249 OFFCURVE",
"388 230 OFFCURVE",
"359 230 CURVE SMOOTH",
"328 230 OFFCURVE",
"302 253 OFFCURVE",
"302 284 CURVE SMOOTH",
"302 313 OFFCURVE",
"325 337 OFFCURVE",
"356 337 CURVE SMOOTH",
"383 337 OFFCURVE",
"406 319 OFFCURVE",
"418 303 CURVE",
"379 308 LINE",
"412 328 OFFCURVE",
"432 370 OFFCURVE",
"432 403 CURVE SMOOTH",
"432 439 OFFCURVE",
"408 460 OFFCURVE",
"363 460 CURVE SMOOTH",
"305 460 OFFCURVE",
"235 425 OFFCURVE",
"206 345 CURVE",
"192 375 LINE",
"229 384 OFFCURVE",
"260 357 OFFCURVE",
"260 323 CURVE SMOOTH",
"260 295 OFFCURVE",
"237 274 OFFCURVE",
"210 274 CURVE SMOOTH",
"178 274 OFFCURVE",
"153 303 OFFCURVE",
"153 345 CURVE SMOOTH",
"153 426 OFFCURVE",
"245 500 OFFCURVE",
"340 500 CURVE SMOOTH",
"418 500 OFFCURVE",
"469 451 OFFCURVE",
"469 384 CURVE SMOOTH",
"469 331 OFFCURVE",
"438 275 OFFCURVE",
"394 243 CURVE",
"418 300 LINE",
"453 278 OFFCURVE",
"489 232 OFFCURVE",
"489 172 CURVE SMOOTH",
"489 91 OFFCURVE",
"424 30 OFFCURVE",
"342 30 CURVE SMOOTH",
"224 30 OFFCURVE",
"99 157 OFFCURVE",
"24 408 CURVE"
);
},
{
closed = 1;
nodes = (
"415 321 LINE",
"466 351 OFFCURVE",
"499 387 OFFCURVE",
"499 435 CURVE SMOOTH",
"499 521 OFFCURVE",
"395 550 OFFCURVE",
"349 562 CURVE SMOOTH",
"263 584 OFFCURVE",
"157 613 OFFCURVE",
"157 682 CURVE SMOOTH",
"157 706 OFFCURVE",
"170 729 OFFCURVE",
"197 747 CURVE",
"211 732 LINE",
"194 717 OFFCURVE",
"186 707 OFFCURVE",
"186 693 CURVE SMOOTH",
"186 662 OFFCURVE",
"222 652 OFFCURVE",
"378 609 CURVE SMOOTH",
"469 584 OFFCURVE",
"528 514 OFFCURVE",
"528 433 CURVE SMOOTH",
"528 372 OFFCURVE",
"495 318 OFFCURVE",
"420 270 CURVE"
);
}
);
width = 556;
},
{
layerId = "A309AC34-D742-49E2-8DE7-30304959F2B2";
paths = (
{
closed = 1;
nodes = (
"463 331 LINE",
"517 345 OFFCURVE",
"550 386 OFFCURVE",
"550 438 CURVE SMOOTH",
"550 534 OFFCURVE",
"436 560 OFFCURVE",
"334 582 CURVE SMOOTH",
"255 599 OFFCURVE",
"135 627 OFFCURVE",
"135 715 CURVE SMOOTH",
"135 748 OFFCURVE",
"152 775 OFFCURVE",
"175 797 CURVE",
"211 772 LINE",
"198 757 OFFCURVE",
"189 742 OFFCURVE",
"189 731 CURVE SMOOTH",
"189 692 OFFCURVE",
"298 686 OFFCURVE",
"369 670 CURVE SMOOTH",
"526 635 OFFCURVE",
"602 537 OFFCURVE",
"602 427 CURVE SMOOTH",
"602 350 OFFCURVE",
"564 278 OFFCURVE",
"463 238 CURVE"
);
},
{
closed = 1;
nodes = (
"54 435 LINE",
"143 209 OFFCURVE",
"252 134 OFFCURVE",
"354 134 CURVE SMOOTH",
"420 134 OFFCURVE",
"463 165 OFFCURVE",
"463 213 CURVE SMOOTH",
"463 232 OFFCURVE",
"456 247 OFFCURVE",
"427 260 CURVE",
"479 265 LINE",
"463 239 OFFCURVE",
"431 212 OFFCURVE",
"392 212 CURVE SMOOTH",
"349 212 OFFCURVE",
"318 245 OFFCURVE",
"318 285 CURVE SMOOTH",
"318 324 OFFCURVE",
"348 357 OFFCURVE",
"390 357 CURVE SMOOTH",
"429 357 OFFCURVE",
"457 330 OFFCURVE",
"474 293 CURVE",
"405 335 LINE",
"431 352 OFFCURVE",
"448 377 OFFCURVE",
"448 401 CURVE SMOOTH",
"448 428 OFFCURVE",
"428 450 OFFCURVE",
"390 450 CURVE SMOOTH",
"339 450 OFFCURVE",
"278 412 OFFCURVE",
"252 335 CURVE",
"208 405 LINE",
"259 417 OFFCURVE",
"302 380 OFFCURVE",
"302 333 CURVE SMOOTH",
"302 294 OFFCURVE",
"272 264 OFFCURVE",
"233 264 CURVE SMOOTH",
"187 264 OFFCURVE",
"149 307 OFFCURVE",
"149 363 CURVE SMOOTH",
"149 452 OFFCURVE",
"245 530 OFFCURVE",
"346 530 CURVE SMOOTH",
"450 530 OFFCURVE",
"525 448 OFFCURVE",
"525 366 CURVE SMOOTH",
"525 316 OFFCURVE",
"498 264 OFFCURVE",
"460 249 CURVE",
"474 300 LINE",
"507 278 OFFCURVE",
"545 233 OFFCURVE",
"545 169 CURVE SMOOTH",
"545 87 OFFCURVE",
"485 18 OFFCURVE",
"379 18 CURVE SMOOTH",
"235 18 OFFCURVE",
"97 147 OFFCURVE",
"0 411 CURVE"
);
}
);
width = 608;
}
);
},
{
color = 0;
glyphname = bVocalicRr;
lastChange = "2016-02-13 20:01:15 +0000";
layers = (
{
layerId = "F2EBC5D5-DDE2-4851-B52F-F2293ECE9CC7";
paths = (
{
closed = 1;
nodes = (
"359 261 LINE",
"404 229 OFFCURVE",
"440 187 OFFCURVE",
"458 133 CURVE",
"446 126 LINE",
"446 491 LINE",
"566 491 LINE",
"566 456 LINE",
"486 456 LINE",
"486 51 LINE",
"461 51 LINE",
"451 132 OFFCURVE",
"420 181 OFFCURVE",
"355 214 CURVE"
);
},
{
closed = 1;
nodes = (
"328 491 LINE",
"368 491 LINE",
"368 0 LINE",
"343 0 LINE",
"333 87 OFFCURVE",
"249 169 OFFCURVE",
"118 192 CURVE",
"64 260 LINE",
"150 327 OFFCURVE",
"240 385 OFFCURVE",
"336 437 CURVE",
"336 378 LINE",
"255 335 OFFCURVE",
"178 284 OFFCURVE",
"103 225 CURVE",
"107 253 LINE",
"203 227 OFFCURVE",
"292 176 OFFCURVE",
"338 78 CURVE",
"328 62 LINE"
);
},
{
closed = 1;
nodes = (
"284 384 LINE",
"273 417 OFFCURVE",
"247 449 OFFCURVE",
"220 463 CURVE",
"248 459 LINE",
"205 394 OFFCURVE",
"152 364 OFFCURVE",
"103 364 CURVE SMOOTH",
"55 364 OFFCURVE",
"22 392 OFFCURVE",
"22 430 CURVE SMOOTH",
"22 459 OFFCURVE",
"41 479 OFFCURVE",
"68 479 CURVE SMOOTH",
"94 479 OFFCURVE",
"112 460 OFFCURVE",
"112 436 CURVE SMOOTH",
"112 425 OFFCURVE",
"108 414 OFFCURVE",
"100 403 CURVE",
"85 427 LINE",
"92 424 OFFCURVE",
"99 423 OFFCURVE",
"106 423 CURVE SMOOTH",
"144 423 OFFCURVE",
"186 458 OFFCURVE",
"214 509 CURVE",
"262 476 OFFCURVE",
"300 430 OFFCURVE",
"308 393 CURVE"
);
},
{
closed = 1;
nodes = (
"250 -75 LINE",
"237 -44 LINE",
"423 -142 LINE",
"409 -161 LINE",
"195 -52 LINE",
"333 33 LINE",
"333 84 LINE",
"346 73 OFFCURVE",
"355 65 OFFCURVE",
"359 61 CURVE SMOOTH",
"365 55 OFFCURVE",
"368 50 OFFCURVE",
"368 46 CURVE SMOOTH",
"368 0 LINE"
);
}
);
width = 556;
},
{
layerId = "A309AC34-D742-49E2-8DE7-30304959F2B2";
width = 600;
}
);
},
{
glyphname = bKa;
lastChange = "2016-02-13 20:01:38 +0000";
layers = (
{
layerId = "F2EBC5D5-DDE2-4851-B52F-F2293ECE9CC7";
paths = (
{
closed = 1;
nodes = (
"240 370 OFFCURVE",
"151 324 OFFCURVE",
"76 250 CURVE",
"61 278 LINE",
"172 252 OFFCURVE",
"269 162 OFFCURVE",
"308 63 CURVE",
"291 67 LINE",
"291 468 LINE",
"331 468 LINE",
"331 0 LINE",
"306 0 LINE",
"285 109 OFFCURVE",
"190 195 OFFCURVE",
"68 217 CURVE",
"23 279 LINE",
"109 364 OFFCURVE",
"226 422 OFFCURVE",
"316 422 CURVE SMOOTH",
"425 422 OFFCURVE",
"499 337 OFFCURVE",
"499 250 CURVE SMOOTH",
"499 193 OFFCURVE",
"468 153 OFFCURVE",
"430 153 CURVE SMOOTH",
"402 153 OFFCURVE",
"377 175 OFFCURVE",
"377 203 CURVE SMOOTH",
"377 229 OFFCURVE",
"398 250 OFFCURVE",
"426 250 CURVE SMOOTH",
"456 250 OFFCURVE",
"476 226 OFFCURVE",
"477 196 CURVE",
"445 195 LINE",
"460 208 OFFCURVE",
"472 230 OFFCURVE",
"472 258 CURVE SMOOTH",
"472 316 OFFCURVE",
"420 370 OFFCURVE",
"327 370 CURVE SMOOTH"
);
},
{
closed = 1;
nodes = (
"-10 456 LINE",
"-10 491 LINE",
"546 491 LINE",
"546 456 LINE"
);
}
);
width = 536;
},
{
layerId = "A309AC34-D742-49E2-8DE7-30304959F2B2";
paths = (
{
closed = 1;
nodes = (
"279 330 OFFCURVE",
"179 288 OFFCURVE",
"102 227 CURVE",
"66 282 LINE",
"189 256 OFFCURVE",
"296 145 OFFCURVE",
"338 23 CURVE",
"281 67 LINE",
"281 468 LINE",
"361 468 LINE",
"361 0 LINE",
"301 0 LINE",
"275 89 OFFCURVE",
"193 153 OFFCURVE",
"78 167 CURVE",
"-5 294 LINE",
"80 368 OFFCURVE",
"204 432 OFFCURVE",
"315 432 CURVE SMOOTH",
"445 432 OFFCURVE",
"547 345 OFFCURVE",
"547 229 CURVE SMOOTH",
"547 156 OFFCURVE",
"507 113 OFFCURVE",
"459 113 CURVE SMOOTH",
"419 113 OFFCURVE",
"387 142 OFFCURVE",
"387 184 CURVE SMOOTH",
"387 222 OFFCURVE",
"413 250 OFFCURVE",
"452 250 CURVE SMOOTH",
"495 250 OFFCURVE",
"516 217 OFFCURVE",
"517 176 CURVE",
"455 195 LINE",
"470 208 OFFCURVE",
"482 231 OFFCURVE",
"482 254 CURVE SMOOTH",
"482 298 OFFCURVE",
"436 330 OFFCURVE",
"363 330 CURVE SMOOTH"
);
},
{
closed = 1;
nodes = (
"-30 456 LINE",
"-30 521 LINE",
"606 521 LINE",
"606 456 LINE"
);
}
);
width = 576;
}
);
},
{
glyphname = bKha;
lastChange = "2016-02-13 20:01:47 +0000";
layers = (
{
layerId = "F2EBC5D5-DDE2-4851-B52F-F2293ECE9CC7";
paths = (
{
closed = 1;
nodes = (
"455 491 LINE",
"455 456 LINE",
"375 456 LINE",
"375 0 LINE",
"350 0 LINE",
"335 114 OFFCURVE",
"235 204 OFFCURVE",
"98 228 CURVE",
"51 292 LINE",
"179 292 OFFCURVE",
"244 345 OFFCURVE",
"244 398 CURVE SMOOTH",
"244 426 OFFCURVE",
"226 445 OFFCURVE",
"205 453 CURVE",
"238 459 LINE",
"195 396 OFFCURVE",
"142 366 OFFCURVE",
"92 366 CURVE SMOOTH",
"46 366 OFFCURVE",
"14 392 OFFCURVE",
"14 428 CURVE SMOOTH",
"14 456 OFFCURVE",
"33 478 OFFCURVE",
"60 478 CURVE SMOOTH",
"85 478 OFFCURVE",
"102 459 OFFCURVE",
"102 436 CURVE SMOOTH",
"102 425 OFFCURVE",
"98 414 OFFCURVE",
"90 403 CURVE",
"77 430 LINE",
"84 427 OFFCURVE",
"91 426 OFFCURVE",
"98 426 CURVE SMOOTH",
"132 426 OFFCURVE",
"169 456 OFFCURVE",
"193 501 CURVE",
"252 466 OFFCURVE",
"285 422 OFFCURVE",
"285 373 CURVE SMOOTH",
"285 312 OFFCURVE",
"231 260 OFFCURVE",
"143 254 CURVE",
"146 269 LINE",
"241 238 OFFCURVE",
"309 166 OFFCURVE",
"349 78 CURVE",
"335 72 LINE",
"335 491 LINE"
);
}
);
width = 445;
},
{
layerId = "A309AC34-D742-49E2-8DE7-30304959F2B2";
paths = (
{
closed = 1;
nodes = (
"531 521 LINE",
"531 456 LINE",
"451 456 LINE",
"451 0 LINE",
"391 0 LINE",
"364 83 OFFCURVE",
"282 152 OFFCURVE",
"134 168 CURVE",
"57 290 LINE",
"199 290 OFFCURVE",
"268 342 OFFCURVE",
"268 394 CURVE SMOOTH",
"268 423 OFFCURVE",
"246 442 OFFCURVE",
"222 453 CURVE",
"284 455 LINE",
"240 380 OFFCURVE",
"172 344 OFFCURVE",
"113 344 CURVE SMOOTH",
"52 344 OFFCURVE",
"16 383 OFFCURVE",
"16 429 CURVE SMOOTH",
"16 472 OFFCURVE",
"47 500 OFFCURVE",
"84 500 CURVE SMOOTH",
"121 500 OFFCURVE",
"144 471 OFFCURVE",
"144 439 CURVE SMOOTH",
"144 421 OFFCURVE",
"137 407 OFFCURVE",
"122 396 CURVE",
"87 455 LINE",
"97 452 OFFCURVE",
"109 451 OFFCURVE",
"116 451 CURVE SMOOTH",
"152 451 OFFCURVE",
"198 483 OFFCURVE",
"223 531 CURVE",
"296 486 OFFCURVE",
"343 423 OFFCURVE",
"343 355 CURVE SMOOTH",
"343 276 OFFCURVE",
"280 214 OFFCURVE",
"189 207 CURVE",
"152 269 LINE",
"296 239 OFFCURVE",
"371 144 OFFCURVE",
"421 38 CURVE",
"371 72 LINE",
"371 521 LINE"
);
}
);
width = 501;
}
);
},
{
glyphname = bGa;
lastChange = "2016-02-13 20:01:55 +0000";
layers = (
{
layerId = "F2EBC5D5-DDE2-4851-B52F-F2293ECE9CC7";
paths = (
{
closed = 1;
nodes = (
"474 491 LINE",
"474 456 LINE",
"394 456 LINE",
"394 0 LINE",
"354 0 LINE",
"354 284 LINE SMOOTH",
"354 374 OFFCURVE",
"284 447 OFFCURVE",
"199 447 CURVE SMOOTH",
"131 447 OFFCURVE",
"85 399 OFFCURVE",
"85 346 CURVE SMOOTH",
"85 333 OFFCURVE",
"88 320 OFFCURVE",
"95 307 CURVE",
"68 332 LINE",
"98 359 OFFCURVE",
"138 372 OFFCURVE",
"167 372 CURVE SMOOTH",
"227 372 OFFCURVE",
"259 318 OFFCURVE",
"259 266 CURVE SMOOTH",
"259 214 OFFCURVE",
"226 156 OFFCURVE",
"168 101 CURVE",
"120 141 LINE",
"190 199 OFFCURVE",
"225 258 OFFCURVE",
"225 295 CURVE SMOOTH",
"225 318 OFFCURVE",
"211 327 OFFCURVE",
"189 327 CURVE SMOOTH",
"139 327 OFFCURVE",
"108 278 OFFCURVE",
"71 278 CURVE SMOOTH",
"45 278 OFFCURVE",
"22 301 OFFCURVE",
"22 346 CURVE SMOOTH",
"22 425 OFFCURVE",
"91 500 OFFCURVE",
"182 500 CURVE SMOOTH",
"271 500 OFFCURVE",
"344 430 OFFCURVE",
"373 336 CURVE",
"354 334 LINE",
"354 491 LINE"
);
}
);
width = 464;
},
{
layerId = "A309AC34-D742-49E2-8DE7-30304959F2B2";
paths = (
{
closed = 1;
nodes = (
"537 521 LINE",
"537 456 LINE",
"457 456 LINE",
"457 0 LINE",
"377 0 LINE",
"377 244 LINE SMOOTH",
"377 351 OFFCURVE",
"314 437 OFFCURVE",
"229 437 CURVE SMOOTH",
"165 437 OFFCURVE",
"115 389 OFFCURVE",
"115 329 CURVE SMOOTH",
"115 317 OFFCURVE",
"117 300 OFFCURVE",
"123 287 CURVE",
"76 339 LINE",
"118 368 OFFCURVE",
"152 379 OFFCURVE",
"185 379 CURVE SMOOTH",
"269 379 OFFCURVE",
"316 305 OFFCURVE",
"316 236 CURVE SMOOTH",
"316 178 OFFCURVE",
"282 116 OFFCURVE",
"211 61 CURVE",
"113 141 LINE",
"195 194 OFFCURVE",
"238 246 OFFCURVE",
"238 275 CURVE SMOOTH",
"238 286 OFFCURVE",
"232 293 OFFCURVE",
"220 293 CURVE SMOOTH",
"189 293 OFFCURVE",
"144 248 OFFCURVE",
"98 248 CURVE SMOOTH",
"54 248 OFFCURVE",
"10 289 OFFCURVE",
"10 360 CURVE SMOOTH",
"10 455 OFFCURVE",
"90 530 OFFCURVE",
"193 530 CURVE SMOOTH",
"314 530 OFFCURVE",
"392 428 OFFCURVE",
"426 296 CURVE",
"377 294 LINE",
"377 521 LINE"
);
}
);
width = 507;
}
);
},
{
glyphname = bGha;
lastChange = "2016-02-13 20:02:03 +0000";
layers = (
{
layerId = "F2EBC5D5-DDE2-4851-B52F-F2293ECE9CC7";
paths = (
{
closed = 1;
nodes = (
"-10 456 LINE",
"-10 491 LINE",
"437 491 LINE",
"437 456 LINE"
);
},
{
closed = 1;
nodes = (
"204 329 LINE",
"185 321 OFFCURVE",
"164 317 OFFCURVE",
"146 317 CURVE SMOOTH",
"90 317 OFFCURVE",
"37 359 OFFCURVE",
"37 412 CURVE SMOOTH",
"37 439 OFFCURVE",
"51 464 OFFCURVE",
"69 478 CURVE",
"164 456 LINE",
"119 456 OFFCURVE",
"92 428 OFFCURVE",
"92 397 CURVE SMOOTH",
"92 369 OFFCURVE",
"112 347 OFFCURVE",
"144 347 CURVE SMOOTH",
"163 347 OFFCURVE",
"185 355 OFFCURVE",
"201 367 CURVE"
);
},
{
closed = 1;
nodes = (
"224 387 LINE",
"265 342 LINE",
"102 204 LINE",
"94 245 LINE",
"203 222 OFFCURVE",
"293 157 OFFCURVE",
"337 55 CURVE",
"317 59 LINE",
"317 467 LINE",
"357 467 LINE",
"357 0 LINE",
"332 0 LINE",
"315 91 OFFCURVE",
"222 178 OFFCURVE",
"94 189 CURVE",
"53 240 LINE"
);
}
);
width = 427;
},
{
layerId = "A309AC34-D742-49E2-8DE7-30304959F2B2";
paths = (
{
closed = 1;
nodes = (
"-30 456 LINE",
"-30 521 LINE",
"477 521 LINE",
"477 456 LINE"
);
},
{
closed = 1;
nodes = (
"244 319 LINE",
"218 304 OFFCURVE",
"188 297 OFFCURVE",
"159 297 CURVE SMOOTH",
"80 297 OFFCURVE",
"12 349 OFFCURVE",
"12 416 CURVE SMOOTH",
"12 451 OFFCURVE",
"31 482 OFFCURVE",
"59 498 CURVE",
"206 456 LINE",
"148 456 OFFCURVE",
"111 421 OFFCURVE",
"111 388 CURVE SMOOTH",
"111 366 OFFCURVE",
"128 353 OFFCURVE",
"149 353 CURVE SMOOTH",
"164 353 OFFCURVE",
"179 360 OFFCURVE",
"192 371 CURVE"
);
},
{
closed = 1;
nodes = (
"221 396 LINE",
"297 310 LINE",
"137 174 LINE",
"104 245 LINE",
"226 217 OFFCURVE",
"328 138 OFFCURVE",
"377 15 CURVE",
"317 59 LINE",
"317 467 LINE",
"397 467 LINE",
"397 0 LINE",
"337 0 LINE",
"316 67 OFFCURVE",
"237 130 OFFCURVE",
"114 139 CURVE",
"33 236 LINE"
);
}
);
width = 447;
}
);
},
{
glyphname = bNga;
lastChange = "2016-02-13 20:02:11 +0000";
layers = (
{
layerId = "F2EBC5D5-DDE2-4851-B52F-F2293ECE9CC7";
paths = (
{
closed = 1;
nodes = (
"198 337 OFFCURVE",
"120 397 OFFCURVE",
"58 488 CURVE",
"78 502 LINE",
"136 423 OFFCURVE",
"195 382 OFFCURVE",
"259 382 CURVE SMOOTH",
"309 382 OFFCURVE",
"352 407 OFFCURVE",
"352 435 CURVE SMOOTH",
"352 449 OFFCURVE",
"341 460 OFFCURVE",
"315 460 CURVE SMOOTH",
"241 460 OFFCURVE",
"198 373 OFFCURVE",
"198 291 CURVE SMOOTH",
"198 236 OFFCURVE",
"217 217 OFFCURVE",
"242 217 CURVE SMOOTH",
"277 217 OFFCURVE",
"319 255 OFFCURVE",
"348 313 CURVE",
"401 273 OFFCURVE",
"431 226 OFFCURVE",
"431 165 CURVE SMOOTH",
"431 76 OFFCURVE",
"367 18 OFFCURVE",
"284 18 CURVE SMOOTH",
"141 18 OFFCURVE",
"54 191 OFFCURVE",
"22 412 CURVE",
"46 417 LINE",
"75 224 OFFCURVE",
"153 74 OFFCURVE",
"272 74 CURVE SMOOTH",
"341 74 OFFCURVE",
"400 124 OFFCURVE",
"400 185 CURVE SMOOTH",
"400 219 OFFCURVE",
"381 249 OFFCURVE",
"360 263 CURVE",
"385 264 LINE",
"360 206 OFFCURVE",
"311 164 OFFCURVE",
"264 164 CURVE SMOOTH",
"211 164 OFFCURVE",
"159 218 OFFCURVE",
"159 318 CURVE SMOOTH",
"159 436 OFFCURVE",
"231 500 OFFCURVE",
"296 500 CURVE SMOOTH",
"344 500 OFFCURVE",
"391 464 OFFCURVE",
"391 419 CURVE SMOOTH",
"391 374 OFFCURVE",
"346 337 OFFCURVE",
"281 337 CURVE SMOOTH"
);
}
);
width = 451;
},
{
layerId = "A309AC34-D742-49E2-8DE7-30304959F2B2";
paths = (
{
closed = 1;
nodes = (
"226 328 OFFCURVE",
"129 403 OFFCURVE",
"60 497 CURVE",
"104 534 LINE",
"171 452 OFFCURVE",
"247 408 OFFCURVE",
"306 408 CURVE SMOOTH",
"337 408 OFFCURVE",
"366 421 OFFCURVE",
"366 443 CURVE SMOOTH",
"366 454 OFFCURVE",
"359 460 OFFCURVE",
"344 460 CURVE SMOOTH",
"285 460 OFFCURVE",
"234 359 OFFCURVE",
"234 298 CURVE SMOOTH",
"234 270 OFFCURVE",
"245 256 OFFCURVE",
"274 256 CURVE SMOOTH",
"320 256 OFFCURVE",
"364 286 OFFCURVE",
"400 326 CURVE",
"445 281 OFFCURVE",
"477 230 OFFCURVE",
"477 170 CURVE SMOOTH",
"477 67 OFFCURVE",
"408 8 OFFCURVE",
"314 8 CURVE SMOOTH",
"143 8 OFFCURVE",
"47 194 OFFCURVE",
"8 414 CURVE",
"66 427 LINE",
"106 223 OFFCURVE",
"183 120 OFFCURVE",
"295 120 CURVE SMOOTH",
"363 120 OFFCURVE",
"410 161 OFFCURVE",
"410 205 CURVE SMOOTH",
"410 228 OFFCURVE",
"399 245 OFFCURVE",
"380 258 CURVE",
"443 246 LINE",
"414 201 OFFCURVE",
"361 166 OFFCURVE",
"307 166 CURVE SMOOTH",
"235 166 OFFCURVE",
"155 229 OFFCURVE",
"155 343 CURVE SMOOTH",
"155 454 OFFCURVE",
"230 530 OFFCURVE",
"312 530 CURVE SMOOTH",
"377 530 OFFCURVE",
"436 481 OFFCURVE",
"436 423 CURVE SMOOTH",
"436 371 OFFCURVE",
"390 328 OFFCURVE",
"319 328 CURVE SMOOTH"
);
}
);
width = 499;
}
);
},
{
glyphname = bCa;
lastChange = "2016-02-13 20:02:19 +0000";
layers = (
{
layerId = "F2EBC5D5-DDE2-4851-B52F-F2293ECE9CC7";
paths = (
{
closed = 1;
nodes = (
"102 70 OFFCURVE",
"118 56 OFFCURVE",
"136 56 CURVE SMOOTH",
"191 56 OFFCURVE",
"286 196 OFFCURVE",
"286 253 CURVE SMOOTH",
"286 277 OFFCURVE",
"277 282 OFFCURVE",
"227 296 CURVE SMOOTH",
"169 313 OFFCURVE",
"115 346 OFFCURVE",
"81 440 CURVE",
"102 443 LINE",
"102 122 LINE SMOOTH"
);
},
{
closed = 1;
nodes = (
"102 467 LINE",
"102 416 OFFCURVE",
"140 369 OFFCURVE",
"214 351 CURVE SMOOTH",
"253 342 OFFCURVE",
"272 335 OFFCURVE",
"302 299 CURVE SMOOTH",
"317 281 OFFCURVE",
"332 259 OFFCURVE",
"332 230 CURVE SMOOTH",
"332 160 OFFCURVE",
"224 10 OFFCURVE",
"158 10 CURVE SMOOTH",
"118 10 OFFCURVE",
"62 62 OFFCURVE",
"62 137 CURVE SMOOTH",
"62 467 LINE"
);
},
{
closed = 1;
nodes = (
"-10 456 LINE",
"-10 491 LINE",
"368 491 LINE",
"368 456 LINE"
);
}
);
width = 358;
},
{
layerId = "A309AC34-D742-49E2-8DE7-30304959F2B2";
paths = (
{
closed = 1;
nodes = (
"122 104 OFFCURVE",
"129 97 OFFCURVE",
"139 97 CURVE SMOOTH",
"187 97 OFFCURVE",
"276 200 OFFCURVE",
"276 246 CURVE SMOOTH",
"276 263 OFFCURVE",
"270 266 OFFCURVE",
"242 271 CURVE SMOOTH",
"152 286 OFFCURVE",
"105 340 OFFCURVE",
"82 440 CURVE",
"122 413 LINE",
"122 132 LINE SMOOTH"
);
},
{
closed = 1;
nodes = (
"122 467 LINE",
"122 430 OFFCURVE",
"147 394 OFFCURVE",
"202 384 CURVE SMOOTH",
"276 369 OFFCURVE",
"300 351 OFFCURVE",
"333 313 CURVE SMOOTH",
"356 287 OFFCURVE",
"379 252 OFFCURVE",
"379 209 CURVE SMOOTH",
"379 128 OFFCURVE",
"258 0 OFFCURVE",
"168 0 CURVE SMOOTH",
"116 0 OFFCURVE",
"42 68 OFFCURVE",
"42 167 CURVE SMOOTH",
"42 467 LINE"
);
},
{
closed = 1;
nodes = (
"-30 456 LINE",
"-30 521 LINE",
"428 521 LINE",
"428 456 LINE"
);
}
);
width = 398;
}
);
},
{
glyphname = bCha;
lastChange = "2016-02-13 20:02:27 +0000";
layers = (
{
layerId = "F2EBC5D5-DDE2-4851-B52F-F2293ECE9CC7";
paths = (
{
closed = 1;
nodes = (
"206 354 LINE",
"231 348 OFFCURVE",
"245 331 OFFCURVE",
"245 311 CURVE SMOOTH",
"245 266 OFFCURVE",
"170 203 OFFCURVE",
"121 203 CURVE SMOOTH",
"78 203 OFFCURVE",
"44 252 OFFCURVE",
"44 294 CURVE SMOOTH",
"44 467 LINE",
"83 467 LINE",
"87 426 OFFCURVE",
"130 389 OFFCURVE",
"191 389 CURVE SMOOTH",
"205 389 OFFCURVE",
"229 391 OFFCURVE",
"242 391 CURVE SMOOTH",
"311 391 OFFCURVE",
"370 337 OFFCURVE",
"370 272 CURVE SMOOTH",
"370 199 OFFCURVE",
"296 124 OFFCURVE",
"176 98 CURVE",
"191 129 LINE",
"271 101 OFFCURVE",
"333 57 OFFCURVE",
"420 -15 CURVE",
"404 -35 LINE",
"296 46 OFFCURVE",
"206 83 OFFCURVE",
"90 89 CURVE",
"56 166 LINE",
"86 158 OFFCURVE",
"115 153 OFFCURVE",
"140 153 CURVE SMOOTH",
"236 153 OFFCURVE",
"326 230 OFFCURVE",
"326 296 CURVE SMOOTH",
"326 325 OFFCURVE",
"309 346 OFFCURVE",
"264 346 CURVE SMOOTH",
"245 346 OFFCURVE",
"219 342 OFFCURVE",
"202 342 CURVE SMOOTH",
"145 342 OFFCURVE",
"85 386 OFFCURVE",
"66 444 CURVE",
"84 458 LINE",
"84 280 LINE SMOOTH",
"84 256 OFFCURVE",
"91 245 OFFCURVE",
"105 245 CURVE SMOOTH",
"137 245 OFFCURVE",
"193 295 OFFCURVE",
"193 325 CURVE SMOOTH",
"193 334 OFFCURVE",
"188 342 OFFCURVE",
"172 346 CURVE"
);
},
{
closed = 1;
nodes = (
"-10 456 LINE",
"-10 491 LINE",
"417 491 LINE",
"417 456 LINE"
);
}
);
width = 407;
},
{
layerId = "A309AC34-D742-49E2-8DE7-30304959F2B2";
paths = (
{
closed = 1;
nodes = (
"196 374 LINE",
"243 363 OFFCURVE",
"275 328 OFFCURVE",
"275 293 CURVE SMOOTH",
"275 244 OFFCURVE",
"211 188 OFFCURVE",
"152 188 CURVE SMOOTH",
"86 188 OFFCURVE",
"34 256 OFFCURVE",
"34 314 CURVE SMOOTH",
"34 467 LINE",
"113 467 LINE",
"116 423 OFFCURVE",
"155 399 OFFCURVE",
"196 399 CURVE SMOOTH",
"208 399 OFFCURVE",
"238 401 OFFCURVE",
"253 401 CURVE SMOOTH",
"343 401 OFFCURVE",
"420 327 OFFCURVE",
"420 242 CURVE SMOOTH",
"420 158 OFFCURVE",
"345 68 OFFCURVE",
"206 54 CURVE",
"201 115 LINE",
"289 90 OFFCURVE",
"362 50 OFFCURVE",
"452 -15 CURVE",
"414 -63 LINE",
"314 3 OFFCURVE",
"231 34 OFFCURVE",
"110 39 CURVE",
"51 161 LINE",
"87 153 OFFCURVE",
"127 148 OFFCURVE",
"153 148 CURVE SMOOTH",
"256 148 OFFCURVE",
"328 225 OFFCURVE",
"328 284 CURVE SMOOTH",
"328 309 OFFCURVE",
"315 324 OFFCURVE",
"278 324 CURVE SMOOTH",
"269 324 OFFCURVE",
"272 323 OFFCURVE",
"212 323 CURVE SMOOTH",
"159 323 OFFCURVE",
"104 355 OFFCURVE",
"90 424 CURVE",
"114 458 LINE",
"114 290 LINE SMOOTH",
"114 275 OFFCURVE",
"118 269 OFFCURVE",
"127 269 CURVE SMOOTH",
"145 269 OFFCURVE",
"181 299 OFFCURVE",
"181 318 CURVE SMOOTH",
"181 323 OFFCURVE",
"179 327 OFFCURVE",
"167 331 CURVE"
);
},
{
closed = 1;
nodes = (
"-30 456 LINE",
"-30 521 LINE",
"477 521 LINE",
"477 456 LINE"
);
}
);
width = 447;
}
);
},
{
glyphname = bJa;
lastChange = "2016-02-13 20:02:35 +0000";
layers = (
{
layerId = "F2EBC5D5-DDE2-4851-B52F-F2293ECE9CC7";
paths = (
{
closed = 1;
nodes = (
"250 474 LINE",
"301 411 OFFCURVE",
"329 390 OFFCURVE",
"375 390 CURVE SMOOTH",
"401 390 OFFCURVE",
"430 397 OFFCURVE",
"454 411 CURVE",
"511 350 LINE",
"465 286 OFFCURVE",
"451 229 OFFCURVE",
"451 155 CURVE SMOOTH",
"451 110 OFFCURVE",
"456 58 OFFCURVE",
"468 4 CURVE",
"442 -2 LINE",
"425 73 OFFCURVE",
"417 132 OFFCURVE",
"417 188 CURVE SMOOTH",
"417 265 OFFCURVE",
"432 331 OFFCURVE",
"456 372 CURVE",
"474 359 LINE",
"450 346 OFFCURVE",
"428 340 OFFCURVE",
"400 340 CURVE SMOOTH",
"332 340 OFFCURVE",
"286 374 OFFCURVE",
"235 445 CURVE",
"268 429 LINE",
"183 360 OFFCURVE",
"167 322 OFFCURVE",
"167 298 CURVE SMOOTH",
"167 278 OFFCURVE",
"179 265 OFFCURVE",
"200 265 CURVE SMOOTH",
"226 265 OFFCURVE",
"266 287 OFFCURVE",
"306 323 CURVE",
"344 291 OFFCURVE",
"371 246 OFFCURVE",
"371 194 CURVE SMOOTH",
"371 125 OFFCURVE",
"324 62 OFFCURVE",
"247 62 CURVE SMOOTH",
"143 62 OFFCURVE",
"50 179 OFFCURVE",
"14 407 CURVE",
"39 411 LINE",
"66 244 OFFCURVE",
"129 121 OFFCURVE",
"232 121 CURVE SMOOTH",
"290 121 OFFCURVE",
"337 160 OFFCURVE",
"337 213 CURVE SMOOTH",
"337 244 OFFCURVE",
"321 270 OFFCURVE",
"301 285 CURVE",
"342 276 LINE",
"305 241 OFFCURVE",
"257 216 OFFCURVE",
"222 216 CURVE SMOOTH",
"166 216 OFFCURVE",
"128 280 OFFCURVE",
"128 326 CURVE SMOOTH",
"128 374 OFFCURVE",
"169 430 OFFCURVE",
"228 470 CURVE"
);
},
{
closed = 1;
nodes = (
"-10 456 LINE",
"-10 491 LINE",
"552 491 LINE",
"552 456 LINE"
);
}
);
width = 542;
},
{
layerId = "A309AC34-D742-49E2-8DE7-30304959F2B2";
paths = (
{
closed = 1;
nodes = (
"300 494 LINE",
"331 432 OFFCURVE",
"375 405 OFFCURVE",
"419 405 CURVE SMOOTH",
"440 405 OFFCURVE",
"470 411 OFFCURVE",
"494 424 CURVE",
"581 320 LINE",
"533 270 OFFCURVE",
"514 219 OFFCURVE",
"514 151 CURVE SMOOTH",
"514 124 OFFCURVE",
"517 63 OFFCURVE",
"527 6 CURVE",
"469 -3 LINE",
"450 84 OFFCURVE",
"442 158 OFFCURVE",
"442 208 CURVE SMOOTH",
"442 283 OFFCURVE",
"460 345 OFFCURVE",
"496 385 CURVE",
"534 335 LINE",
"505 320 OFFCURVE",
"478 313 OFFCURVE",
"447 313 CURVE SMOOTH",
"380 313 OFFCURVE",
"335 345 OFFCURVE",
"283 425 CURVE",
"318 419 LINE",
"219 354 OFFCURVE",
"204 319 OFFCURVE",
"204 301 CURVE SMOOTH",
"204 288 OFFCURVE",
"213 283 OFFCURVE",
"225 283 CURVE SMOOTH",
"246 283 OFFCURVE",
"277 299 OFFCURVE",
"326 338 CURVE",
"382 296 OFFCURVE",
"418 236 OFFCURVE",
"418 175 CURVE SMOOTH",
"418 98 OFFCURVE",
"359 30 OFFCURVE",
"268 30 CURVE SMOOTH",
"144 30 OFFCURVE",
"44 158 OFFCURVE",
"4 407 CURVE",
"59 421 LINE",
"84 268 OFFCURVE",
"142 143 OFFCURVE",
"248 143 CURVE SMOOTH",
"300 143 OFFCURVE",
"344 174 OFFCURVE",
"344 214 CURVE SMOOTH",
"344 238 OFFCURVE",
"329 264 OFFCURVE",
"311 275 CURVE",
"383 252 LINE",
"350 217 OFFCURVE",
"301 196 OFFCURVE",
"262 196 CURVE SMOOTH",
"183 196 OFFCURVE",
"128 283 OFFCURVE",
"128 342 CURVE SMOOTH",
"128 398 OFFCURVE",
"179 452 OFFCURVE",
"248 490 CURVE"
);
},
{
closed = 1;
nodes = (
"-30 456 LINE",
"-30 521 LINE",
"638 521 LINE",
"638 456 LINE"
);
}
);
width = 608;
}
);
},
{
glyphname = bJha;
lastChange = "2016-02-13 20:02:44 +0000";
layers = (
{
layerId = "F2EBC5D5-DDE2-4851-B52F-F2293ECE9CC7";
paths = (
{
closed = 1;
nodes = (
"240 357 OFFCURVE",
"153 310 OFFCURVE",
"84 253 CURVE",
"81 273 LINE",
"169 247 OFFCURVE",
"274 173 OFFCURVE",
"313 79 CURVE",
"304 72 LINE",
"304 466 LINE",
"344 466 LINE",
"344 0 LINE",
"319 0 LINE",
"299 118 OFFCURVE",
"184 197 OFFCURVE",
"77 214 CURVE",
"25 283 LINE",
"113 355 OFFCURVE",
"235 416 OFFCURVE",
"322 436 CURVE",
"328 384 LINE"
);
},
{
closed = 1;
nodes = (
"-10 456 LINE",
"-10 491 LINE",
"344 491 LINE",
"344 456 LINE"
);
},
{
closed = 1;
nodes = (
"336 261 LINE",
"381 229 OFFCURVE",
"417 187 OFFCURVE",
"435 133 CURVE",
"423 126 LINE",
"423 491 LINE",
"543 491 LINE",
"543 456 LINE",
"463 456 LINE",
"463 51 LINE",
"438 51 LINE",
"428 132 OFFCURVE",
"397 181 OFFCURVE",
"332 214 CURVE"
);
}
);
width = 533;
},
{
layerId = "A309AC34-D742-49E2-8DE7-30304959F2B2";
paths = (
{
closed = 1;
nodes = (
"269 312 OFFCURVE",
"171 268 OFFCURVE",
"94 213 CURVE",
"81 283 LINE",
"204 251 OFFCURVE",
"307 157 OFFCURVE",
"353 39 CURVE",
"304 72 LINE",
"304 466 LINE",
"384 466 LINE",
"384 0 LINE",
"324 0 LINE",
"288 106 OFFCURVE",
"203 153 OFFCURVE",
"87 164 CURVE",
"-5 293 LINE",
"95 364 OFFCURVE",
"233 424 OFFCURVE",
"332 444 CURVE",
"368 338 LINE"
);
},
{
closed = 1;
nodes = (
"-30 456 LINE",
"-30 521 LINE",
"384 521 LINE",
"384 456 LINE"
);
},
{
closed = 1;
nodes = (
"367 257 LINE",
"431 217 OFFCURVE",
"473 158 OFFCURVE",
"494 83 CURVE",
"446 126 LINE",
"446 521 LINE",
"606 521 LINE",
"606 456 LINE",
"526 456 LINE",
"526 51 LINE",
"466 51 LINE",
"462 102 OFFCURVE",
"434 140 OFFCURVE",
"375 154 CURVE"
);
}
);
width = 576;
}
);
},
{
glyphname = bNya;
lastChange = "2016-02-13 20:02:52 +0000";
layers = (
{
layerId = "F2EBC5D5-DDE2-4851-B52F-F2293ECE9CC7";
paths = (
{
closed = 1;
nodes = (
"441 354 LINE",
"493 441 OFFCURVE",
"548 485 OFFCURVE",
"594 485 CURVE SMOOTH",
"642 485 OFFCURVE",
"683 438 OFFCURVE",
"683 379 CURVE SMOOTH",
"683 337 OFFCURVE",
"662 296 OFFCURVE",
"612 258 CURVE",
"619 322 LINE",
"651 299 OFFCURVE",
"683 257 OFFCURVE",
"683 207 CURVE SMOOTH",
"683 156 OFFCURVE",
"651 116 OFFCURVE",
"603 116 CURVE SMOOTH",
"550 116 OFFCURVE",
"489 165 OFFCURVE",
"451 244 CURVE"
);
},
{
closed = 1;
nodes = (
"461 240 OFFCURVE",
"523 171 OFFCURVE",
"589 171 CURVE SMOOTH",
"627 171 OFFCURVE",
"652 193 OFFCURVE",
"652 223 CURVE SMOOTH",
"652 242 OFFCURVE",
"642 268 OFFCURVE",
"601 286 CURVE",
"639 285 LINE",
"627 259 OFFCURVE",
"600 245 OFFCURVE",
"577 245 CURVE SMOOTH",
"547 245 OFFCURVE",
"523 269 OFFCURVE",
"523 298 CURVE SMOOTH",
"523 327 OFFCURVE",
"547 351 OFFCURVE",
"576 351 CURVE SMOOTH",
"599 351 OFFCURVE",
"621 336 OFFCURVE",
"631 313 CURVE",
"588 304 LINE",
"635 339 OFFCURVE",
"651 368 OFFCURVE",
"651 394 CURVE SMOOTH",
"651 419 OFFCURVE",
"636 434 OFFCURVE",
"608 434 CURVE SMOOTH",
"556 434 OFFCURVE",
"488 380 OFFCURVE",
"435 258 CURVE",
"440 336 LINE"
);
},
{
closed = 1;
nodes = (
"30 292 OFFCURVE",
"42 331 OFFCURVE",
"66 366 CURVE",
"86 354 LINE",
"69 329 OFFCURVE",
"59 296 OFFCURVE",
"59 263 CURVE SMOOTH",
"59 194 OFFCURVE",
"100 139 OFFCURVE",
"183 139 CURVE SMOOTH",
"218 139 OFFCURVE",
"295 149 OFFCURVE",
"322 149 CURVE SMOOTH",
"371 149 OFFCURVE",
"408 118 OFFCURVE",
"423 73 CURVE",
"412 81 LINE",
"412 418 LINE SMOOTH",
"412 443 OFFCURVE",
"402 458 OFFCURVE",
"383 458 CURVE SMOOTH",
"336 458 OFFCURVE",
"240 363 OFFCURVE",
"240 307 CURVE SMOOTH",
"240 301 OFFCURVE",
"241 291 OFFCURVE",
"249 281 CURVE",
"235 291 LINE",
"242 306 OFFCURVE",
"259 318 OFFCURVE",
"280 318 CURVE SMOOTH",
"309 318 OFFCURVE",
"334 296 OFFCURVE",
"334 264 CURVE SMOOTH",
"334 231 OFFCURVE",
"308 207 OFFCURVE",
"268 207 CURVE SMOOTH",
"218 207 OFFCURVE",
"180 244 OFFCURVE",
"180 299 CURVE SMOOTH",
"180 392 OFFCURVE",
"289 500 OFFCURVE",
"362 500 CURVE SMOOTH",
"412 500 OFFCURVE",
"452 448 OFFCURVE",
"452 403 CURVE SMOOTH",
"452 0 LINE",
"427 0 LINE",
"421 65 OFFCURVE",
"398 92 OFFCURVE",
"351 92 CURVE SMOOTH",
"322 92 OFFCURVE",
"247 81 OFFCURVE",
"208 81 CURVE SMOOTH",
"107 81 OFFCURVE",
"30 155 OFFCURVE",
"30 253 CURVE SMOOTH"
);
}
);
width = 726;
},
{
layerId = "A309AC34-D742-49E2-8DE7-30304959F2B2";
paths = (
{
closed = 1;
nodes = (
"446 344 LINE",
"503 448 OFFCURVE",
"563 495 OFFCURVE",
"616 495 CURVE SMOOTH",
"684 495 OFFCURVE",
"743 426 OFFCURVE",
"743 350 CURVE SMOOTH",
"743 302 OFFCURVE",
"720 262 OFFCURVE",
"652 220 CURVE",
"659 304 LINE",
"699 286 OFFCURVE",
"743 231 OFFCURVE",
"743 171 CURVE SMOOTH",
"743 108 OFFCURVE",
"696 63 OFFCURVE",
"639 63 CURVE SMOOTH",
"565 63 OFFCURVE",
"507 123 OFFCURVE",
"460 244 CURVE"
);
},
{
closed = 1;
nodes = (
"518 213 OFFCURVE",
"566 151 OFFCURVE",
"622 151 CURVE SMOOTH",
"653 151 OFFCURVE",
"674 172 OFFCURVE",
"674 201 CURVE SMOOTH",
"674 228 OFFCURVE",
"653 249 OFFCURVE",
"631 258 CURVE",
"679 247 LINE",
"665 221 OFFCURVE",
"634 207 OFFCURVE",
"608 207 CURVE SMOOTH",
"571 207 OFFCURVE",
"543 236 OFFCURVE",
"543 271 CURVE SMOOTH",
"543 306 OFFCURVE",
"572 333 OFFCURVE",
"605 333 CURVE SMOOTH",
"634 333 OFFCURVE",
"659 314 OFFCURVE",
"671 296 CURVE",
"599 290 LINE",
"655 325 OFFCURVE",
"672 358 OFFCURVE",
"672 379 CURVE SMOOTH",
"672 395 OFFCURVE",
"664 406 OFFCURVE",
"642 406 CURVE SMOOTH",
"596 406 OFFCURVE",
"536 361 OFFCURVE",
"494 260 CURVE",
"499 286 LINE"
);
},
{
closed = 1;
nodes = (
"10 310 OFFCURVE",
"25 356 OFFCURVE",
"55 398 CURVE",
"100 374 LINE",
"84 345 OFFCURVE",
"69 308 OFFCURVE",
"69 267 CURVE SMOOTH",
"69 195 OFFCURVE",
"115 152 OFFCURVE",
"189 152 CURVE SMOOTH",
"225 152 OFFCURVE",
"289 162 OFFCURVE",
"320 162 CURVE SMOOTH",
"390 162 OFFCURVE",
"441 112 OFFCURVE",
"463 33 CURVE",
"422 81 LINE",
"422 428 LINE SMOOTH",
"422 439 OFFCURVE",
"417 448 OFFCURVE",
"406 448 CURVE SMOOTH",
"371 448 OFFCURVE",
"272 353 OFFCURVE",
"272 287 CURVE SMOOTH",
"272 276 OFFCURVE",
"275 260 OFFCURVE",
"279 251 CURVE",
"225 291 LINE",
"235 317 OFFCURVE",
"261 338 OFFCURVE",
"291 338 CURVE SMOOTH",
"327 338 OFFCURVE",
"359 306 OFFCURVE",
"359 267 CURVE SMOOTH",
"359 226 OFFCURVE",
"325 193 OFFCURVE",
"275 193 CURVE SMOOTH",
"214 193 OFFCURVE",
"164 244 OFFCURVE",
"164 311 CURVE SMOOTH",
"164 413 OFFCURVE",
"281 530 OFFCURVE",
"367 530 CURVE SMOOTH",
"437 530 OFFCURVE",
"502 451 OFFCURVE",
"502 383 CURVE SMOOTH",
"502 0 LINE",
"442 0 LINE",
"440 42 OFFCURVE",
"418 65 OFFCURVE",
"366 65 CURVE SMOOTH",
"325 65 OFFCURVE",
"268 51 OFFCURVE",
"221 51 CURVE SMOOTH",
"99 51 OFFCURVE",
"10 143 OFFCURVE",
"10 261 CURVE SMOOTH"
);
}
);
width = 773;
}
);
},
{
glyphname = bTta;
lastChange = "2016-02-13 20:03:00 +0000";
layers = (
{
layerId = "F2EBC5D5-DDE2-4851-B52F-F2293ECE9CC7";
paths = (
{
closed = 1;
nodes = (
"102 467 LINE",
"102 121 LINE SMOOTH",
"102 76 OFFCURVE",
"113 56 OFFCURVE",
"137 56 CURVE SMOOTH",
"197 56 OFFCURVE",
"290 182 OFFCURVE",
"290 264 CURVE",
"310 250 LINE",
"297 239 OFFCURVE",
"285 234 OFFCURVE",
"270 234 CURVE SMOOTH",
"235 234 OFFCURVE",
"208 261 OFFCURVE",
"208 293 CURVE SMOOTH",
"208 324 OFFCURVE",
"234 349 OFFCURVE",
"268 349 CURVE SMOOTH",
"313 349 OFFCURVE",
"342 306 OFFCURVE",
"342 256 CURVE SMOOTH",
"342 153 OFFCURVE",
"228 10 OFFCURVE",
"154 10 CURVE SMOOTH",
"109 10 OFFCURVE",
"62 63 OFFCURVE",
"62 138 CURVE SMOOTH",
"62 467 LINE"
);
},
{
closed = 1;
nodes = (
"-10 456 LINE",
"-10 491 LINE",
"382 491 LINE",
"382 456 LINE"
);
},
{
closed = 1;
nodes = (
"282 486 LINE",
"289 497 OFFCURVE",
"292 508 OFFCURVE",
"292 520 CURVE SMOOTH",
"292 548 OFFCURVE",
"275 564 OFFCURVE",
"234 564 CURVE SMOOTH",
"200 564 OFFCURVE",
"130 553 OFFCURVE",
"96 553 CURVE SMOOTH",
"34 553 OFFCURVE",
"-9 588 OFFCURVE",
"-9 638 CURVE SMOOTH",
"-9 668 OFFCURVE",
"6 694 OFFCURVE",
"25 714 CURVE",
"44 700 LINE",
"30 683 OFFCURVE",
"19 662 OFFCURVE",
"19 644 CURVE SMOOTH",
"19 621 OFFCURVE",
"36 604 OFFCURVE",
"78 604 CURVE SMOOTH",
"113 604 OFFCURVE",
"167 616 OFFCURVE",
"204 616 CURVE SMOOTH",
"280 616 OFFCURVE",
"320 564 OFFCURVE",
"326 485 CURVE"
);
}
);
width = 372;
},
{
layerId = "A309AC34-D742-49E2-8DE7-30304959F2B2";
paths = (
{
closed = 1;
nodes = (
"302 516 LINE",
"309 525 OFFCURVE",
"312 535 OFFCURVE",
"312 545 CURVE SMOOTH",
"312 565 OFFCURVE",
"301 576 OFFCURVE",
"269 576 CURVE SMOOTH",
"237 576 OFFCURVE",
"154 564 OFFCURVE",
"113 564 CURVE SMOOTH",
"32 564 OFFCURVE",
"-29 610 OFFCURVE",
"-29 678 CURVE SMOOTH",
"-29 711 OFFCURVE",
"-14 739 OFFCURVE",
"6 764 CURVE",
"50 738 LINE",
"37 721 OFFCURVE",
"29 703 OFFCURVE",
"29 690 CURVE SMOOTH",
"29 673 OFFCURVE",
"43 663 OFFCURVE",
"78 663 CURVE SMOOTH",
"116 663 OFFCURVE",
"183 675 OFFCURVE",
"222 675 CURVE SMOOTH",
"316 675 OFFCURVE",
"372 606 OFFCURVE",
"381 515 CURVE"
);
},
{
closed = 1;
nodes = (
"122 467 LINE",
"122 130 LINE SMOOTH",
"122 103 OFFCURVE",
"127 95 OFFCURVE",
"140 95 CURVE SMOOTH",
"192 95 OFFCURVE",
"281 219 OFFCURVE",
"281 294 CURVE",
"325 240 LINE",
"313 229 OFFCURVE",
"298 224 OFFCURVE",
"279 224 CURVE SMOOTH",
"230 224 OFFCURVE",
"193 260 OFFCURVE",
"193 305 CURVE SMOOTH",
"193 350 OFFCURVE",
"229 389 OFFCURVE",
"281 389 CURVE SMOOTH",
"343 389 OFFCURVE",
"387 333 OFFCURVE",
"387 267 CURVE SMOOTH",
"387 155 OFFCURVE",
"262 -1 OFFCURVE",
"172 -1 CURVE SMOOTH",
"111 -1 OFFCURVE",
"42 69 OFFCURVE",
"42 167 CURVE SMOOTH",
"42 467 LINE"
);
},
{
closed = 1;
nodes = (
"-30 456 LINE",
"-30 521 LINE",
"452 521 LINE",
"452 456 LINE"
);
}
);
width = 422;
}
);
},
{
glyphname = bTtha;
lastChange = "2016-02-13 20:03:07 +0000";
layers = (
{
layerId = "F2EBC5D5-DDE2-4851-B52F-F2293ECE9CC7";
paths = (
{
closed = 1;
nodes = (
"156 481 LINE",
"85 569 OFFCURVE",
"51 619 OFFCURVE",
"51 669 CURVE SMOOTH",
"51 701 OFFCURVE",
"66 728 OFFCURVE",
"92 748 CURVE",
"124 720 LINE",
"104 703 OFFCURVE",
"89 681 OFFCURVE",
"89 654 CURVE SMOOTH",
"89 617 OFFCURVE",
"118 563 OFFCURVE",
"192 482 CURVE"
);
},
{
closed = 1;
nodes = (
"60 180 LINE",
"66 107 OFFCURVE",
"110 61 OFFCURVE",
"172 61 CURVE SMOOTH",
"242 61 OFFCURVE",
"293 121 OFFCURVE",
"293 209 CURVE SMOOTH",
"293 280 OFFCURVE",
"259 362 OFFCURVE",
"191 444 CURVE",
"187 463 LINE",
"206 434 OFFCURVE",
"217 410 OFFCURVE",
"217 365 CURVE SMOOTH",
"217 259 OFFCURVE",
"157 186 OFFCURVE",
"47 160 CURVE"
);
},
{
closed = 1;
nodes = (
"206 466 LINE",
"291 370 OFFCURVE",
"332 274 OFFCURVE",
"332 193 CURVE SMOOTH",
"332 88 OFFCURVE",
"263 23 OFFCURVE",
"181 23 CURVE SMOOTH",
"94 23 OFFCURVE",
"21 102 OFFCURVE",
"21 211 CURVE",
"130 240 OFFCURVE",
"183 311 OFFCURVE",
"183 393 CURVE SMOOTH",
"183 423 OFFCURVE",
"176 447 OFFCURVE",
"160 471 CURVE"
);
},
{
closed = 1;
nodes = (
"-10 456 LINE",
"-10 491 LINE",
"375 491 LINE",
"375 456 LINE"
);
}
);
width = 365;
},
{
layerId = "A309AC34-D742-49E2-8DE7-30304959F2B2";
paths = (
{
closed = 1;
nodes = (
"151 481 LINE",
"80 576 OFFCURVE",
"46 631 OFFCURVE",
"46 684 CURVE SMOOTH",
"46 718 OFFCURVE",
"60 746 OFFCURVE",
"87 778 CURVE",
"161 734 LINE",
"135 699 OFFCURVE",
"124 677 OFFCURVE",
"124 650 CURVE SMOOTH",
"124 611 OFFCURVE",
"148 561 OFFCURVE",
"217 485 CURVE"
);
},
{
closed = 1;
nodes = (
"90 174 LINE",
"100 128 OFFCURVE",
"133 103 OFFCURVE",
"181 103 CURVE SMOOTH",
"250 103 OFFCURVE",
"303 155 OFFCURVE",
"303 227 CURVE SMOOTH",
"303 284 OFFCURVE",
"270 350 OFFCURVE",
"216 414 CURVE",
"202 463 LINE",
"224 426 OFFCURVE",
"242 369 OFFCURVE",
"242 319 CURVE SMOOTH",
"242 242 OFFCURVE",
"200 171 OFFCURVE",
"82 146 CURVE"
);
},
{
closed = 1;
nodes = (
"223 483 LINE",
"337 358 OFFCURVE",
"380 272 OFFCURVE",
"380 189 CURVE SMOOTH",
"380 75 OFFCURVE",
"300 13 OFFCURVE",
"212 13 CURVE SMOOTH",
"104 13 OFFCURVE",
"17 106 OFFCURVE",
"3 241 CURVE",
"112 265 OFFCURVE",
"170 319 OFFCURVE",
"170 398 CURVE SMOOTH",
"170 421 OFFCURVE",
"165 447 OFFCURVE",
"155 471 CURVE"
);
},
{
closed = 1;
nodes = (
"-30 456 LINE",
"-30 521 LINE",
"435 521 LINE",
"435 456 LINE"
);
}
);
width = 405;
}
);
},
{
glyphname = bDda;
lastChange = "2016-02-13 20:03:16 +0000";
layers = (
{
layerId = "F2EBC5D5-DDE2-4851-B52F-F2293ECE9CC7";
paths = (
{
closed = 1;
nodes = (
"233 466 LINE",
"233 274 LINE SMOOTH",
"233 261 OFFCURVE",
"238 253 OFFCURVE",
"249 253 CURVE SMOOTH",
"275 253 OFFCURVE",
"324 299 OFFCURVE",
"363 371 CURVE",
"406 335 OFFCURVE",
"443 285 OFFCURVE",
"443 207 CURVE SMOOTH",
"443 105 OFFCURVE",
"380 24 OFFCURVE",
"282 24 CURVE SMOOTH",
"168 24 OFFCURVE",
"69 132 OFFCURVE",
"10 404 CURVE",
"35 411 LINE",
"89 178 OFFCURVE",
"164 82 OFFCURVE",
"268 82 CURVE SMOOTH",
"353 82 OFFCURVE",
"413 144 OFFCURVE",
"413 225 CURVE SMOOTH",
"413 270 OFFCURVE",
"394 300 OFFCURVE",
"370 317 CURVE",
"396 318 LINE",
"362 254 OFFCURVE",
"309 209 OFFCURVE",
"271 209 CURVE SMOOTH",
"231 209 OFFCURVE",
"193 257 OFFCURVE",
"193 305 CURVE SMOOTH",
"193 466 LINE"
);
},
{
closed = 1;
nodes = (
"-10 456 LINE",
"-10 491 LINE",
"487 491 LINE",
"487 456 LINE"
);
}
);
width = 477;
},
{
layerId = "A309AC34-D742-49E2-8DE7-30304959F2B2";
paths = (
{
closed = 1;
nodes = (
"253 466 LINE",
"253 314 LINE SMOOTH",
"253 303 OFFCURVE",
"256 295 OFFCURVE",
"266 295 CURVE SMOOTH",
"289 295 OFFCURVE",
"335 337 OFFCURVE",
"380 407 CURVE",
"434 360 OFFCURVE",
"487 289 OFFCURVE",
"487 195 CURVE SMOOTH",
"487 87 OFFCURVE",
"417 12 OFFCURVE",
"305 12 CURVE SMOOTH",
"176 12 OFFCURVE",
"68 112 OFFCURVE",
"-10 404 CURVE",
"48 422 LINE",
"109 189 OFFCURVE",
"193 128 OFFCURVE",
"285 128 CURVE SMOOTH",
"363 128 OFFCURVE",
"417 172 OFFCURVE",
"417 232 CURVE SMOOTH",
"417 267 OFFCURVE",
"398 305 OFFCURVE",
"360 327 CURVE",
"432 297 LINE",
"400 236 OFFCURVE",
"339 194 OFFCURVE",
"293 194 CURVE SMOOTH",
"230 194 OFFCURVE",
"173 274 OFFCURVE",
"173 349 CURVE SMOOTH",
"173 466 LINE"
);
},
{
closed = 1;
nodes = (
"-30 456 LINE",
"-30 521 LINE",
"543 521 LINE",
"543 456 LINE"
);
}
);
width = 513;
}
);
},
{
glyphname = bDdha;
lastChange = "2016-02-13 20:03:23 +0000";
layers = (
{
layerId = "F2EBC5D5-DDE2-4851-B52F-F2293ECE9CC7";
paths = (
{
closed = 1;
nodes = (
"102 467 LINE",
"102 121 LINE SMOOTH",
"102 76 OFFCURVE",
"113 56 OFFCURVE",
"137 56 CURVE SMOOTH",
"197 56 OFFCURVE",
"290 182 OFFCURVE",
"290 264 CURVE",
"310 250 LINE",
"297 239 OFFCURVE",
"285 234 OFFCURVE",
"270 234 CURVE SMOOTH",
"235 234 OFFCURVE",
"208 261 OFFCURVE",
"208 293 CURVE SMOOTH",
"208 324 OFFCURVE",
"234 349 OFFCURVE",
"268 349 CURVE SMOOTH",
"313 349 OFFCURVE",
"342 306 OFFCURVE",
"342 256 CURVE SMOOTH",
"342 153 OFFCURVE",
"228 10 OFFCURVE",
"154 10 CURVE SMOOTH",
"109 10 OFFCURVE",
"62 63 OFFCURVE",
"62 138 CURVE SMOOTH",
"62 467 LINE"
);
},
{
closed = 1;
nodes = (
"-10 456 LINE",
"-10 491 LINE",
"382 491 LINE",
"382 456 LINE"
);
}
);
width = 372;
},
{
layerId = "A309AC34-D742-49E2-8DE7-30304959F2B2";
paths = (
{
closed = 1;
nodes = (
"-30 456 LINE",
"-30 521 LINE",
"452 521 LINE",
"452 456 LINE"
);
},
{
closed = 1;
nodes = (
"122 467 LINE",
"122 130 LINE SMOOTH",
"122 103 OFFCURVE",
"127 95 OFFCURVE",
"140 95 CURVE SMOOTH",
"192 95 OFFCURVE",
"281 219 OFFCURVE",
"281 294 CURVE",
"325 240 LINE",
"313 229 OFFCURVE",
"298 224 OFFCURVE",
"279 224 CURVE SMOOTH",
"230 224 OFFCURVE",
"193 260 OFFCURVE",
"193 305 CURVE SMOOTH",
"193 350 OFFCURVE",
"229 389 OFFCURVE",
"281 389 CURVE SMOOTH",
"343 389 OFFCURVE",
"387 333 OFFCURVE",
"387 267 CURVE SMOOTH",
"387 155 OFFCURVE",
"262 -1 OFFCURVE",
"172 -1 CURVE SMOOTH",
"111 -1 OFFCURVE",
"42 69 OFFCURVE",
"42 167 CURVE SMOOTH",
"42 467 LINE"
);
}
);
width = 422;
}
);
},
{
glyphname = bNna;
lastChange = "2016-02-13 20:03:30 +0000";
layers = (
{
layerId = "F2EBC5D5-DDE2-4851-B52F-F2293ECE9CC7";
paths = (
{
closed = 1;
nodes = (
"300 491 LINE",
"420 491 LINE",
"420 456 LINE",
"340 456 LINE",
"340 0 LINE",
"300 0 LINE"
);
},
{
closed = 1;
nodes = (
"300 261 LINE",
"300 354 OFFCURVE",
"252 447 OFFCURVE",
"164 447 CURVE SMOOTH",
"102 447 OFFCURVE",
"65 402 OFFCURVE",
"65 353 CURVE SMOOTH",
"65 308 OFFCURVE",
"96 277 OFFCURVE",
"134 277 CURVE SMOOTH",
"140 277 OFFCURVE",
"153 278 OFFCURVE",
"164 282 CURVE",
"144 252 LINE",
"122 266 OFFCURVE",
"114 283 OFFCURVE",
"114 300 CURVE SMOOTH",
"114 326 OFFCURVE",
"133 350 OFFCURVE",
"164 350 CURVE SMOOTH",
"194 350 OFFCURVE",
"219 327 OFFCURVE",
"219 295 CURVE SMOOTH",
"219 263 OFFCURVE",
"193 237 OFFCURVE",
"149 237 CURVE SMOOTH",
"81 237 OFFCURVE",
"18 298 OFFCURVE",
"18 374 CURVE SMOOTH",
"18 444 OFFCURVE",
"70 500 OFFCURVE",
"149 500 CURVE SMOOTH",
"232 500 OFFCURVE",
"301 438 OFFCURVE",
"327 277 CURVE"
);
}
);
width = 410;
},
{
layerId = "A309AC34-D742-49E2-8DE7-30304959F2B2";
paths = (
{
closed = 1;
nodes = (
"337 521 LINE",
"497 521 LINE",
"497 456 LINE",
"417 456 LINE",
"417 0 LINE",
"337 0 LINE"
);
},
{
closed = 1;
nodes = (
"337 221 LINE",
"337 363 OFFCURVE",
"276 437 OFFCURVE",
"202 437 CURVE SMOOTH",
"145 437 OFFCURVE",
"104 396 OFFCURVE",
"104 339 CURVE SMOOTH",
"104 292 OFFCURVE",
"131 261 OFFCURVE",
"161 261 CURVE SMOOTH",
"169 261 OFFCURVE",
"182 263 OFFCURVE",
"191 266 CURVE",
"181 222 LINE",
"144 241 OFFCURVE",
"131 265 OFFCURVE",
"131 289 CURVE SMOOTH",
"131 325 OFFCURVE",
"159 354 OFFCURVE",
"199 354 CURVE SMOOTH",
"244 354 OFFCURVE",
"276 318 OFFCURVE",
"276 274 CURVE SMOOTH",
"276 228 OFFCURVE",
"240 191 OFFCURVE",
"180 191 CURVE SMOOTH",
"92 191 OFFCURVE",
"10 269 OFFCURVE",
"10 371 CURVE SMOOTH",
"10 461 OFFCURVE",
"74 530 OFFCURVE",
"173 530 CURVE SMOOTH",
"266 530 OFFCURVE",
"357 469 OFFCURVE",
"384 247 CURVE"
);
}
);
width = 467;
}
);
},
{
glyphname = bTa;
lastChange = "2016-02-13 20:03:38 +0000";
layers = (
{
layerId = "F2EBC5D5-DDE2-4851-B52F-F2293ECE9CC7";
paths = (
{
closed = 1;
nodes = (
"-10 491 LINE",
"525 491 LINE",
"525 456 LINE",
"-10 456 LINE"
);
},
{
closed = 1;
nodes = (
"192 369 OFFCURVE",
"239 412 OFFCURVE",
"306 412 CURVE SMOOTH",
"401 412 OFFCURVE",
"477 326 OFFCURVE",
"477 224 CURVE SMOOTH",
"477 121 OFFCURVE",
"401 46 OFFCURVE",
"307 46 CURVE SMOOTH",
"175 46 OFFCURVE",
"78 194 OFFCURVE",
"7 405 CURVE",
"32 414 LINE",
"97 221 OFFCURVE",
"183 105 OFFCURVE",
"296 105 CURVE SMOOTH",
"382 105 OFFCURVE",
"437 172 OFFCURVE",
"437 249 CURVE SMOOTH",
"437 316 OFFCURVE",
"396 364 OFFCURVE",
"334 364 CURVE SMOOTH",
"312 364 OFFCURVE",
"295 358 OFFCURVE",
"280 346 CURVE",
"296 376 LINE",
"322 370 OFFCURVE",
"343 343 OFFCURVE",
"343 310 CURVE SMOOTH",
"343 269 OFFCURVE",
"313 237 OFFCURVE",
"271 237 CURVE SMOOTH",
"227 237 OFFCURVE",
"192 271 OFFCURVE",
"192 316 CURVE SMOOTH"
);
}
);
width = 515;
},
{
layerId = "A309AC34-D742-49E2-8DE7-30304959F2B2";
paths = (
{
closed = 1;
nodes = (
"-30 521 LINE",
"560 521 LINE",
"560 456 LINE",
"-30 456 LINE"
);
},
{
closed = 1;
nodes = (
"184 368 OFFCURVE",
"233 418 OFFCURVE",
"312 418 CURVE SMOOTH",
"416 418 OFFCURVE",
"496 331 OFFCURVE",
"496 217 CURVE SMOOTH",
"496 111 OFFCURVE",
"426 31 OFFCURVE",
"321 31 CURVE SMOOTH",
"192 31 OFFCURVE",
"74 151 OFFCURVE",
"-5 405 CURVE",
"52 424 LINE",
"112 242 OFFCURVE",
"189 150 OFFCURVE",
"296 150 CURVE SMOOTH",
"372 150 OFFCURVE",
"422 197 OFFCURVE",
"422 259 CURVE SMOOTH",
"422 305 OFFCURVE",
"394 334 OFFCURVE",
"356 334 CURVE SMOOTH",
"340 334 OFFCURVE",
"319 329 OFFCURVE",
"305 320 CURVE",
"304 372 LINE",
"337 364 OFFCURVE",
"359 332 OFFCURVE",
"359 296 CURVE SMOOTH",
"359 248 OFFCURVE",
"322 213 OFFCURVE",
"275 213 CURVE SMOOTH",
"224 213 OFFCURVE",
"184 255 OFFCURVE",
"184 309 CURVE SMOOTH"
);
}
);
width = 530;
}
);
},
{
glyphname = bTha;
lastChange = "2016-02-13 20:03:46 +0000";
layers = (
{
layerId = "F2EBC5D5-DDE2-4851-B52F-F2293ECE9CC7";
paths = (
{
closed = 1;
nodes = (
"288 305 OFFCURVE",
"241 246 OFFCURVE",
"143 229 CURVE",
"146 249 LINE",
"241 221 OFFCURVE",
"311 158 OFFCURVE",
"348 74 CURVE",
"335 72 LINE",
"335 491 LINE",
"455 491 LINE",
"455 456 LINE",
"375 456 LINE",
"375 0 LINE",
"350 0 LINE",
"323 112 OFFCURVE",
"246 182 OFFCURVE",
"98 208 CURVE",
"51 272 LINE",
"183 272 OFFCURVE",
"251 331 OFFCURVE",
"251 395 CURVE SMOOTH",
"251 433 OFFCURVE",
"227 458 OFFCURVE",
"181 458 CURVE SMOOTH",
"139 458 OFFCURVE",
"109 437 OFFCURVE",
"93 407 CURVE",
"98 426 LINE",
"122 423 OFFCURVE",
"139 404 OFFCURVE",
"139 381 CURVE SMOOTH",
"139 354 OFFCURVE",
"118 333 OFFCURVE",
"90 333 CURVE SMOOTH",
"58 333 OFFCURVE",
"34 361 OFFCURVE",
"34 396 CURVE SMOOTH",
"34 453 OFFCURVE",
"95 500 OFFCURVE",
"163 500 CURVE SMOOTH",
"242 500 OFFCURVE",
"288 438 OFFCURVE",
"288 372 CURVE SMOOTH"
);
}
);
width = 445;
},
{
layerId = "A309AC34-D742-49E2-8DE7-30304959F2B2";
paths = (
{
closed = 1;
nodes = (
"328 285 OFFCURVE",
"281 210 OFFCURVE",
"166 194 CURVE",
"139 254 LINE",
"267 219 OFFCURVE",
"365 137 OFFCURVE",
"411 24 CURVE",
"358 72 LINE",
"358 521 LINE",
"518 521 LINE",
"518 456 LINE",
"438 456 LINE",
"438 0 LINE",
"378 0 LINE",
"347 80 OFFCURVE",
"275 130 OFFCURVE",
"121 153 CURVE",
"44 277 LINE",
"186 277 OFFCURVE",
"253 339 OFFCURVE",
"253 400 CURVE SMOOTH",
"253 432 OFFCURVE",
"231 449 OFFCURVE",
"197 449 CURVE SMOOTH",
"154 449 OFFCURVE",
"121 422 OFFCURVE",
"99 385 CURVE",
"96 449 LINE",
"141 449 OFFCURVE",
"170 420 OFFCURVE",
"170 385 CURVE SMOOTH",
"170 349 OFFCURVE",
"140 321 OFFCURVE",
"101 321 CURVE SMOOTH",
"57 321 OFFCURVE",
"22 357 OFFCURVE",
"22 409 CURVE SMOOTH",
"22 474 OFFCURVE",
"78 529 OFFCURVE",
"161 529 CURVE SMOOTH",
"263 529 OFFCURVE",
"328 447 OFFCURVE",
"328 360 CURVE SMOOTH"
);
}
);
width = 488;
}
);
},
{
glyphname = bDa;
lastChange = "2016-02-13 20:03:53 +0000";
layers = (
{
layerId = "F2EBC5D5-DDE2-4851-B52F-F2293ECE9CC7";
paths = (
{
closed = 1;
nodes = (
"84 467 LINE",
"84 220 LINE",
"73 231 LINE",
"123 307 OFFCURVE",
"205 375 OFFCURVE",
"300 406 CURVE",
"357 350 LINE",
"302 287 OFFCURVE",
"280 226 OFFCURVE",
"280 149 CURVE SMOOTH",
"280 113 OFFCURVE",
"285 54 OFFCURVE",
"295 -5 CURVE",
"269 -10 LINE",
"252 59 OFFCURVE",
"243 128 OFFCURVE",
"243 180 CURVE SMOOTH",
"243 256 OFFCURVE",
"262 320 OFFCURVE",
"291 357 CURVE",
"282 335 LINE",
"212 302 OFFCURVE",
"145 240 OFFCURVE",
"91 148 CURVE",
"44 209 LINE",
"44 467 LINE"
);
},
{
closed = 1;
nodes = (
"-10 456 LINE",
"-10 491 LINE",
"387 491 LINE",
"387 456 LINE"
);
}
);
width = 377;
},
{
layerId = "A309AC34-D742-49E2-8DE7-30304959F2B2";
paths = (
{
closed = 1;
nodes = (
"124 467 LINE",
"124 190 LINE",
"79 237 LINE",
"131 317 OFFCURVE",
"220 386 OFFCURVE",
"320 417 CURVE",
"417 330 LINE",
"354 265 OFFCURVE",
"334 211 OFFCURVE",
"334 134 CURVE SMOOTH",
"334 99 OFFCURVE",
"338 48 OFFCURVE",
"347 -4 CURVE",
"289 -13 LINE",
"273 60 OFFCURVE",
"262 132 OFFCURVE",
"262 192 CURVE SMOOTH",
"262 267 OFFCURVE",
"279 336 OFFCURVE",
"317 375 CURVE",
"342 305 LINE",
"267 272 OFFCURVE",
"191 210 OFFCURVE",
"131 118 CURVE",
"44 209 LINE",
"44 467 LINE"
);
},
{
closed = 1;
nodes = (
"-30 456 LINE",
"-30 521 LINE",
"472 521 LINE",
"472 456 LINE"
);
}
);
width = 442;
}
);
},
{
glyphname = bDha;
lastChange = "2016-02-13 20:04:01 +0000";
layers = (
{
layerId = "F2EBC5D5-DDE2-4851-B52F-F2293ECE9CC7";
paths = (
{
closed = 1;
nodes = (
"178 347 LINE",
"168 345 OFFCURVE",
"159 344 OFFCURVE",
"150 344 CURVE SMOOTH",
"92 344 OFFCURVE",
"43 381 OFFCURVE",
"43 432 CURVE SMOOTH",
"43 476 OFFCURVE",
"78 509 OFFCURVE",
"125 509 CURVE SMOOTH",
"166 509 OFFCURVE",
"194 485 OFFCURVE",
"194 456 CURVE SMOOTH",
"194 432 OFFCURVE",
"175 415 OFFCURVE",
"153 415 CURVE SMOOTH",
"132 415 OFFCURVE",
"113 430 OFFCURVE",
"113 451 CURVE SMOOTH",
"113 465 OFFCURVE",
"120 483 OFFCURVE",
"139 491 CURVE",
"172 453 LINE",
"158 458 OFFCURVE",
"143 460 OFFCURVE",
"133 460 CURVE SMOOTH",
"106 460 OFFCURVE",
"87 442 OFFCURVE",
"87 420 CURVE SMOOTH",
"87 396 OFFCURVE",
"110 373 OFFCURVE",
"147 373 CURVE SMOOTH",
"162 373 OFFCURVE",
"176 376 OFFCURVE",
"198 386 CURVE"
);
},
{
closed = 1;
nodes = (
"281 491 LINE",
"401 491 LINE",
"401 456 LINE",
"321 456 LINE",
"321 0 LINE",
"296 0 LINE",
"286 87 OFFCURVE",
"202 169 OFFCURVE",
"71 192 CURVE",
"17 260 LINE",
"103 330 OFFCURVE",
"192 385 OFFCURVE",
"289 439 CURVE",
"289 378 LINE",
"207 335 OFFCURVE",
"131 287 OFFCURVE",
"56 225 CURVE",
"60 253 LINE",
"156 227 OFFCURVE",
"245 176 OFFCURVE",
"291 78 CURVE",
"281 62 LINE"
);
}
);
width = 391;
},
{
layerId = "A309AC34-D742-49E2-8DE7-30304959F2B2";
paths = (
{
closed = 1;
nodes = (
"246 339 LINE",
"228 330 OFFCURVE",
"212 326 OFFCURVE",
"191 326 CURVE SMOOTH",
"115 326 OFFCURVE",
"47 377 OFFCURVE",
"47 444 CURVE SMOOTH",
"47 503 OFFCURVE",
"98 541 OFFCURVE",
"153 541 CURVE SMOOTH",
"206 541 OFFCURVE",
"237 507 OFFCURVE",
"237 470 CURVE SMOOTH",
"237 436 OFFCURVE",
"210 415 OFFCURVE",
"180 415 CURVE SMOOTH",
"152 415 OFFCURVE",
"127 434 OFFCURVE",
"127 461 CURVE SMOOTH",
"127 475 OFFCURVE",
"134 493 OFFCURVE",
"153 501 CURVE",
"220 457 LINE",
"206 462 OFFCURVE",
"191 464 OFFCURVE",
"180 464 CURVE SMOOTH",
"145 464 OFFCURVE",
"126 444 OFFCURVE",
"126 423 CURVE SMOOTH",
"126 406 OFFCURVE",
"139 383 OFFCURVE",
"179 383 CURVE SMOOTH",
"194 383 OFFCURVE",
"203 386 OFFCURVE",
"229 398 CURVE"
);
},
{
closed = 1;
nodes = (
"299 521 LINE",
"459 521 LINE",
"459 456 LINE",
"379 456 LINE",
"379 0 LINE",
"319 0 LINE",
"304 65 OFFCURVE",
"230 128 OFFCURVE",
"99 142 CURVE",
"15 280 LINE",
"110 342 OFFCURVE",
"209 391 OFFCURVE",
"317 439 CURVE",
"347 330 LINE",
"258 292 OFFCURVE",
"175 250 OFFCURVE",
"94 195 CURVE",
"68 263 LINE",
"185 230 OFFCURVE",
"293 164 OFFCURVE",
"349 38 CURVE",
"299 62 LINE"
);
}
);
width = 429;
}
);
},
{
glyphname = bNa;
lastChange = "2016-02-13 20:04:12 +0000";
layers = (
{
layerId = "F2EBC5D5-DDE2-4851-B52F-F2293ECE9CC7";
paths = (
{
closed = 1;
nodes = (
"349 467 LINE",
"349 0 LINE",
"324 0 LINE",
"310 165 OFFCURVE",
"243 283 OFFCURVE",
"148 283 CURVE SMOOTH",
"130 283 OFFCURVE",
"116 279 OFFCURVE",
"101 271 CURVE",
"119 306 LINE",
"154 292 OFFCURVE",
"178 268 OFFCURVE",
"178 230 CURVE SMOOTH",
"178 189 OFFCURVE",
"148 157 OFFCURVE",
"106 157 CURVE SMOOTH",
"63 157 OFFCURVE",
"25 192 OFFCURVE",
"25 240 CURVE SMOOTH",
"25 291 OFFCURVE",
"66 337 OFFCURVE",
"134 337 CURVE SMOOTH",
"233 337 OFFCURVE",
"301 241 OFFCURVE",
"334 93 CURVE",
"309 151 LINE",
"309 467 LINE"
);
},
{
closed = 1;
nodes = (
"-10 456 LINE",
"-10 491 LINE",
"429 491 LINE",
"429 456 LINE"
);
}
);
width = 419;
},
{
layerId = "A309AC34-D742-49E2-8DE7-30304959F2B2";
paths = (
{
closed = 1;
nodes = (
"399 467 LINE",
"399 0 LINE",
"343 0 LINE",
"319 147 OFFCURVE",
"275 251 OFFCURVE",
"194 251 CURVE SMOOTH",
"180 251 OFFCURVE",
"165 248 OFFCURVE",
"151 241 CURVE",
"149 326 LINE",
"189 308 OFFCURVE",
"216 278 OFFCURVE",
"216 233 CURVE SMOOTH",
"216 178 OFFCURVE",
"175 135 OFFCURVE",
"119 135 CURVE SMOOTH",
"60 135 OFFCURVE",
"11 182 OFFCURVE",
"11 248 CURVE SMOOTH",
"11 315 OFFCURVE",
"61 373 OFFCURVE",
"145 373 CURVE SMOOTH",
"266 373 OFFCURVE",
"344 251 OFFCURVE",
"384 63 CURVE",
"319 151 LINE",
"319 467 LINE"
);
},
{
closed = 1;
nodes = (
"-30 456 LINE",
"-30 521 LINE",
"479 521 LINE",
"479 456 LINE"
);
}
);
width = 449;
}
);
},
{
glyphname = bPa;
lastChange = "2016-02-13 20:04:20 +0000";
layers = (
{
layerId = "F2EBC5D5-DDE2-4851-B52F-F2293ECE9CC7";
paths = (
{
closed = 1;
nodes = (
"326 378 LINE",
"133 202 LINE",
"85 244 LINE",
"117 270 LINE SMOOTH",
"134 286 OFFCURVE",
"142 304 OFFCURVE",
"142 322 CURVE SMOOTH",
"142 343 OFFCURVE",
"131 356 OFFCURVE",
"110 356 CURVE SMOOTH",
"85 356 OFFCURVE",
"68 327 OFFCURVE",
"46 327 CURVE SMOOTH",
"31 327 OFFCURVE",
"16 342 OFFCURVE",
"16 363 CURVE SMOOTH",
"16 413 OFFCURVE",
"96 498 OFFCURVE",
"186 498 CURVE SMOOTH",
"259 498 OFFCURVE",
"318 443 OFFCURVE",
"385 313 CURVE",
"381 259 LINE",
"335 355 OFFCURVE",
"276 451 OFFCURVE",
"201 451 CURVE SMOOTH",
"157 451 OFFCURVE",
"111 424 OFFCURVE",
"76 362 CURVE",
"55 381 LINE",
"69 389 OFFCURVE",
"83 392 OFFCURVE",
"95 392 CURVE SMOOTH",
"139 392 OFFCURVE",
"172 356 OFFCURVE",
"172 314 CURVE SMOOTH",
"172 303 OFFCURVE",
"170 291 OFFCURVE",
"165 280 CURVE",
"139 290 LINE",
"292 422 LINE"
);
},
{
closed = 1;
nodes = (
"377 491 LINE",
"497 491 LINE",
"497 456 LINE",
"417 456 LINE",
"417 0 LINE",
"377 0 LINE"
);
}
);
width = 487;
},
{
layerId = "A309AC34-D742-49E2-8DE7-30304959F2B2";
paths = (
{
closed = 1;
nodes = (
"396 344 LINE",
"193 147 LINE",
"104 221 LINE",
"136 247 LINE SMOOTH",
"165 271 OFFCURVE",
"174 290 OFFCURVE",
"174 307 CURVE SMOOTH",
"174 324 OFFCURVE",
"165 334 OFFCURVE",
"148 334 CURVE SMOOTH",
"116 334 OFFCURVE",
"101 299 OFFCURVE",
"68 299 CURVE SMOOTH",
"41 299 OFFCURVE",
"10 323 OFFCURVE",
"10 366 CURVE SMOOTH",
"10 439 OFFCURVE",
"99 530 OFFCURVE",
"207 530 CURVE SMOOTH",
"293 530 OFFCURVE",
"386 473 OFFCURVE",
"465 273 CURVE",
"432 225 LINE",
"384 336 OFFCURVE",
"319 444 OFFCURVE",
"240 444 CURVE SMOOTH",
"199 444 OFFCURVE",
"141 414 OFFCURVE",
"106 332 CURVE",
"85 383 LINE",
"102 391 OFFCURVE",
"119 394 OFFCURVE",
"135 394 CURVE SMOOTH",
"200 394 OFFCURVE",
"239 344 OFFCURVE",
"239 286 CURVE SMOOTH",
"239 273 OFFCURVE",
"237 261 OFFCURVE",
"232 250 CURVE",
"183 289 LINE",
"332 416 LINE"
);
},
{
closed = 1;
nodes = (
"427 521 LINE",
"587 521 LINE",
"587 456 LINE",
"507 456 LINE",
"507 0 LINE",
"427 0 LINE"
);
}
);
width = 557;
}
);
},
{
glyphname = bPha;
lastChange = "2016-02-13 20:04:28 +0000";
layers = (
{
layerId = "F2EBC5D5-DDE2-4851-B52F-F2293ECE9CC7";
paths = (
{
closed = 1;
nodes = (
"360 412 LINE SMOOTH",
"437 412 OFFCURVE",
"497 358 OFFCURVE",
"497 289 CURVE SMOOTH",
"497 240 OFFCURVE",
"467 198 OFFCURVE",
"425 198 CURVE SMOOTH",
"396 198 OFFCURVE",
"372 218 OFFCURVE",
"372 248 CURVE SMOOTH",
"372 275 OFFCURVE",
"392 296 OFFCURVE",
"421 296 CURVE SMOOTH",
"448 296 OFFCURVE",
"470 277 OFFCURVE",
"470 247 CURVE",
"449 257 LINE",
"461 270 OFFCURVE",
"468 284 OFFCURVE",
"468 302 CURVE SMOOTH",
"468 340 OFFCURVE",
"437 367 OFFCURVE",
"380 367 CURVE SMOOTH",
"334 367 LINE",
"334 0 LINE",
"309 0 LINE",
"287 107 OFFCURVE",
"196 175 OFFCURVE",
"74 198 CURVE",
"27 260 LINE",
"183 375 LINE",
"186 347 LINE",
"146 395 OFFCURVE",
"123 405 OFFCURVE",
"86 418 CURVE SMOOTH",
"35 436 OFFCURVE",
"19 442 OFFCURVE",
"17 477 CURVE",
"68 456 LINE",
"-10 456 LINE",
"-10 491 LINE",
"541 491 LINE",
"541 456 LINE",
"78 456 LINE",
"77 482 LINE",
"132 441 OFFCURVE",
"183 394 OFFCURVE",
"229 341 CURVE",
"79 227 LINE",
"72 254 LINE",
"184 221 OFFCURVE",
"268 150 OFFCURVE",
"304 75 CURVE",
"294 72 LINE",
"294 412 LINE"
);
}
);
width = 531;
},
{
layerId = "A309AC34-D742-49E2-8DE7-30304959F2B2";
paths = (
{
closed = 1;
nodes = (
"493 423 OFFCURVE",
"568 352 OFFCURVE",
"568 261 CURVE SMOOTH",
"568 193 OFFCURVE",
"526 149 OFFCURVE",
"473 149 CURVE SMOOTH",
"430 149 OFFCURVE",
"398 178 OFFCURVE",
"398 219 CURVE SMOOTH",
"398 256 OFFCURVE",
"425 284 OFFCURVE",
"463 284 CURVE SMOOTH",
"505 284 OFFCURVE",
"534 251 OFFCURVE",
"534 197 CURVE",
"483 247 LINE",
"493 261 OFFCURVE",
"498 279 OFFCURVE",
"498 292 CURVE SMOOTH",
"498 322 OFFCURVE",
"472 337 OFFCURVE",
"417 337 CURVE SMOOTH",
"378 337 LINE",
"378 0 LINE",
"318 0 LINE",
"292 79 OFFCURVE",
"216 131 OFFCURVE",
"100 148 CURVE",
"13 270 LINE",
"182 385 LINE",
"230 317 LINE",
"138 390 OFFCURVE",
"127 375 OFFCURVE",
"70 388 CURVE SMOOTH",
"32 397 OFFCURVE",
"3 413 OFFCURVE",
"1 477 CURVE",
"92 456 LINE",
"-30 456 LINE",
"-30 521 LINE",
"628 521 LINE",
"628 456 LINE",
"102 456 LINE",
"111 482 LINE",
"169 432 OFFCURVE",
"224 375 OFFCURVE",
"273 311 CURVE",
"105 187 LINE",
"78 264 LINE",
"208 222 OFFCURVE",
"306 131 OFFCURVE",
"348 35 CURVE",
"298 72 LINE",
"298 423 LINE",
"384 423 LINE"
);
}
);
width = 598;
}
);
},
{
glyphname = bBa;
lastChange = "2016-02-13 20:04:36 +0000";
layers = (
{
layerId = "F2EBC5D5-DDE2-4851-B52F-F2293ECE9CC7";
paths = (
{
closed = 1;
nodes = (
"240 357 OFFCURVE",
"153 310 OFFCURVE",
"84 253 CURVE",
"81 273 LINE",
"169 247 OFFCURVE",
"274 173 OFFCURVE",
"313 79 CURVE",
"304 72 LINE",
"304 466 LINE",
"344 466 LINE",
"344 0 LINE",
"319 0 LINE",
"299 118 OFFCURVE",
"184 197 OFFCURVE",
"77 214 CURVE",
"25 283 LINE",
"113 355 OFFCURVE",
"235 416 OFFCURVE",
"322 436 CURVE",
"328 384 LINE"
);
},
{
closed = 1;
nodes = (
"-10 456 LINE",
"-10 491 LINE",
"424 491 LINE",
"424 456 LINE"
);
}
);
width = 414;
},
{
layerId = "A309AC34-D742-49E2-8DE7-30304959F2B2";
paths = (
{
closed = 1;
nodes = (
"269 312 OFFCURVE",
"171 268 OFFCURVE",
"94 213 CURVE",
"81 283 LINE",
"204 251 OFFCURVE",
"307 157 OFFCURVE",
"353 39 CURVE",
"304 72 LINE",
"304 466 LINE",
"384 466 LINE",
"384 0 LINE",
"324 0 LINE",
"288 106 OFFCURVE",
"203 153 OFFCURVE",
"87 164 CURVE",
"-5 293 LINE",
"95 364 OFFCURVE",
"233 424 OFFCURVE",
"332 444 CURVE",
"368 338 LINE"
);
},
{
closed = 1;
nodes = (
"-30 456 LINE",
"-30 521 LINE",
"464 521 LINE",
"464 456 LINE"
);
}
);
width = 434;
}
);
},
{
glyphname = bBha;
lastChange = "2016-02-13 20:04:43 +0000";
layers = (
{
layerId = "F2EBC5D5-DDE2-4851-B52F-F2293ECE9CC7";
paths = (
{
closed = 1;
nodes = (
"437 290 OFFCURVE",
"421 324 OFFCURVE",
"396 339 CURVE",
"429 348 LINE",
"398 297 OFFCURVE",
"340 250 OFFCURVE",
"270 250 CURVE SMOOTH",
"206 250 OFFCURVE",
"162 289 OFFCURVE",
"162 338 CURVE SMOOTH",
"162 376 OFFCURVE",
"190 403 OFFCURVE",
"225 403 CURVE SMOOTH",
"255 403 OFFCURVE",
"285 384 OFFCURVE",
"285 344 CURVE SMOOTH",
"285 318 OFFCURVE",
"273 303 OFFCURVE",
"260 296 CURVE",
"238 317 LINE",
"247 312 OFFCURVE",
"257 310 OFFCURVE",
"268 310 CURVE SMOOTH",
"315 310 OFFCURVE",
"360 345 OFFCURVE",
"389 397 CURVE",
"444 355 OFFCURVE",
"477 293 OFFCURVE",
"477 225 CURVE SMOOTH",
"477 121 OFFCURVE",
"401 46 OFFCURVE",
"307 46 CURVE SMOOTH",
"175 46 OFFCURVE",
"78 194 OFFCURVE",
"7 405 CURVE",
"32 414 LINE",
"97 221 OFFCURVE",
"183 105 OFFCURVE",
"296 105 CURVE SMOOTH",
"382 105 OFFCURVE",
"437 172 OFFCURVE",
"437 248 CURVE"
);
},
{
closed = 1;
nodes = (
"-10 491 LINE",
"525 491 LINE",
"525 456 LINE",
"-10 456 LINE"
);
}
);
width = 515;
},
{
layerId = "A309AC34-D742-49E2-8DE7-30304959F2B2";
paths = (
{
closed = 1;
nodes = (
"422 300 OFFCURVE",
"399 326 OFFCURVE",
"379 336 CURVE",
"451 333 LINE",
"418 277 OFFCURVE",
"349 226 OFFCURVE",
"274 226 CURVE SMOOTH",
"195 226 OFFCURVE",
"146 282 OFFCURVE",
"146 338 CURVE SMOOTH",
"146 387 OFFCURVE",
"184 423 OFFCURVE",
"230 423 CURVE SMOOTH",
"270 423 OFFCURVE",
"309 395 OFFCURVE",
"309 344 CURVE SMOOTH",
"309 315 OFFCURVE",
"296 292 OFFCURVE",
"274 276 CURVE",
"237 337 LINE",
"247 332 OFFCURVE",
"260 330 OFFCURVE",
"270 330 CURVE SMOOTH",
"314 330 OFFCURVE",
"362 367 OFFCURVE",
"396 422 CURVE",
"453 383 OFFCURVE",
"496 303 OFFCURVE",
"496 218 CURVE SMOOTH",
"496 110 OFFCURVE",
"426 31 OFFCURVE",
"321 31 CURVE SMOOTH",
"192 31 OFFCURVE",
"74 151 OFFCURVE",
"-5 405 CURVE",
"52 424 LINE",
"112 242 OFFCURVE",
"189 150 OFFCURVE",
"296 150 CURVE SMOOTH",
"372 150 OFFCURVE",
"422 197 OFFCURVE",
"422 259 CURVE SMOOTH"
);
},
{
closed = 1;
nodes = (
"-30 521 LINE",
"560 521 LINE",
"560 456 LINE",
"-30 456 LINE"
);
}
);
width = 530;
}
);
},
{
glyphname = bMa;
lastChange = "2016-02-13 20:04:51 +0000";
layers = (
{
layerId = "F2EBC5D5-DDE2-4851-B52F-F2293ECE9CC7";
paths = (
{
closed = 1;
nodes = (
"-10 456 LINE",
"-10 491 LINE",
"426 491 LINE",
"426 456 LINE"
);
},
{
closed = 1;
nodes = (
"85 465 LINE",
"85 433 OFFCURVE",
"111 414 OFFCURVE",
"145 387 CURVE SMOOTH",
"204 339 OFFCURVE",
"223 303 OFFCURVE",
"223 258 CURVE SMOOTH",
"223 237 OFFCURVE",
"219 213 OFFCURVE",
"208 194 CURVE",
"199 234 LINE",
"251 198 OFFCURVE",
"290 151 OFFCURVE",
"310 96 CURVE",
"306 82 LINE",
"306 467 LINE",
"346 467 LINE",
"346 0 LINE",
"321 0 LINE",
"313 82 OFFCURVE",
"245 167 OFFCURVE",
"175 184 CURVE",
"209 192 LINE",
"193 154 OFFCURVE",
"164 129 OFFCURVE",
"126 129 CURVE SMOOTH",
"83 129 OFFCURVE",
"53 160 OFFCURVE",
"53 199 CURVE SMOOTH",
"53 242 OFFCURVE",
"88 269 OFFCURVE",
"127 269 CURVE SMOOTH",
"157 269 OFFCURVE",
"186 253 OFFCURVE",
"210 226 CURVE",
"160 240 LINE",
"173 251 OFFCURVE",
"184 270 OFFCURVE",
"184 292 CURVE SMOOTH",
"184 328 OFFCURVE",
"155 344 OFFCURVE",
"98 375 CURVE SMOOTH",
"43 405 OFFCURVE",
"23 419 OFFCURVE",
"15 469 CURVE"
);
}
);
width = 416;
},
{
layerId = "A309AC34-D742-49E2-8DE7-30304959F2B2";
paths = (
{
closed = 1;
nodes = (
"-30 456 LINE",
"-30 521 LINE",
"466 521 LINE",
"466 456 LINE"
);
},
{
closed = 1;
nodes = (
"117 475 LINE",
"117 427 OFFCURVE",
"140 405 OFFCURVE",
"178 371 CURVE SMOOTH",
"226 327 OFFCURVE",
"249 297 OFFCURVE",
"249 244 CURVE SMOOTH",
"249 217 OFFCURVE",
"243 194 OFFCURVE",
"234 175 CURVE",
"203 251 LINE",
"272 207 OFFCURVE",
"323 130 OFFCURVE",
"347 46 CURVE",
"306 82 LINE",
"306 467 LINE",
"386 467 LINE",
"386 0 LINE",
"326 0 LINE",
"310 73 OFFCURVE",
"262 132 OFFCURVE",
"185 150 CURVE",
"234 173 LINE",
"222 140 OFFCURVE",
"185 102 OFFCURVE",
"132 102 CURVE SMOOTH",
"78 102 OFFCURVE",
"36 140 OFFCURVE",
"36 194 CURVE SMOOTH",
"36 247 OFFCURVE",
"77 283 OFFCURVE",
"130 283 CURVE SMOOTH",
"170 283 OFFCURVE",
"203 263 OFFCURVE",
"230 233 CURVE",
"150 250 LINE",
"160 260 OFFCURVE",
"169 274 OFFCURVE",
"169 292 CURVE SMOOTH",
"169 322 OFFCURVE",
"146 334 OFFCURVE",
"83 363 CURVE SMOOTH",
"18 393 OFFCURVE",
"-10 420 OFFCURVE",
"-10 479 CURVE"
);
}
);
width = 436;
}
);
},
{
glyphname = bYa;
lastChange = "2016-02-13 20:04:58 +0000";
layers = (
{
layerId = "F2EBC5D5-DDE2-4851-B52F-F2293ECE9CC7";
paths = (
{
closed = 1;
nodes = (
"78 456 LINE",
"77 482 LINE",
"132 441 OFFCURVE",
"183 394 OFFCURVE",
"229 341 CURVE",
"79 227 LINE",
"72 254 LINE",
"184 221 OFFCURVE",
"268 150 OFFCURVE",
"304 75 CURVE",
"294 72 LINE",
"294 467 LINE",
"334 467 LINE",
"334 0 LINE",
"309 0 LINE",
"287 107 OFFCURVE",
"196 175 OFFCURVE",
"74 198 CURVE",
"27 260 LINE",
"183 375 LINE",
"186 347 LINE",
"150 390 OFFCURVE",
"126 405 OFFCURVE",
"86 418 CURVE SMOOTH",
"41 432 OFFCURVE",
"18 444 OFFCURVE",
"17 477 CURVE",
"68 456 LINE",
"-10 456 LINE",
"-10 491 LINE",
"414 491 LINE",
"414 456 LINE"
);
}
);
width = 404;
},
{
layerId = "A309AC34-D742-49E2-8DE7-30304959F2B2";
paths = (
{
closed = 1;
nodes = (
"102 456 LINE",
"111 482 LINE",
"169 432 OFFCURVE",
"224 375 OFFCURVE",
"273 311 CURVE",
"105 187 LINE",
"78 264 LINE",
"208 222 OFFCURVE",
"306 131 OFFCURVE",
"348 35 CURVE",
"298 72 LINE",
"298 467 LINE",
"378 467 LINE",
"378 0 LINE",
"318 0 LINE",
"292 79 OFFCURVE",
"216 131 OFFCURVE",
"100 148 CURVE",
"13 270 LINE",
"182 385 LINE",
"230 317 LINE",
"158 375 OFFCURVE",
"137 377 OFFCURVE",
"70 388 CURVE SMOOTH",
"30 395 OFFCURVE",
"2 420 OFFCURVE",
"1 477 CURVE",
"92 456 LINE",
"-30 456 LINE",
"-30 521 LINE",
"458 521 LINE",
"458 456 LINE"
);
}
);
width = 428;
}
);
},
{
glyphname = bRa;
lastChange = "2016-02-13 20:05:05 +0000";
layers = (
{
layerId = "F2EBC5D5-DDE2-4851-B52F-F2293ECE9CC7";
paths = (
{
closed = 1;
nodes = (
"240 357 OFFCURVE",
"153 310 OFFCURVE",
"84 253 CURVE",
"81 273 LINE",
"169 247 OFFCURVE",
"274 173 OFFCURVE",
"313 79 CURVE",
"304 72 LINE",
"304 466 LINE",
"344 466 LINE",
"344 0 LINE",
"319 0 LINE",
"299 118 OFFCURVE",
"184 197 OFFCURVE",
"77 214 CURVE",
"25 283 LINE",
"113 355 OFFCURVE",
"235 416 OFFCURVE",
"322 436 CURVE",
"328 384 LINE"
);
},
{
closed = 1;
nodes = (
"-10 456 LINE",
"-10 491 LINE",
"424 491 LINE",
"424 456 LINE"
);
},
{
closed = 1;
nodes = (
"156 42 OFFCURVE",
"174 60 OFFCURVE",
"174 82 CURVE SMOOTH",
"174 104 OFFCURVE",
"156 122 OFFCURVE",
"134 122 CURVE SMOOTH",
"112 122 OFFCURVE",
"94 104 OFFCURVE",
"94 82 CURVE SMOOTH",
"94 60 OFFCURVE",
"112 42 OFFCURVE",
"134 42 CURVE SMOOTH"
);
}
);
width = 414;
},
{
layerId = "A309AC34-D742-49E2-8DE7-30304959F2B2";
paths = (
{
closed = 1;
nodes = (
"192 -20 OFFCURVE",
"221 9 OFFCURVE",
"221 45 CURVE SMOOTH",
"221 81 OFFCURVE",
"192 110 OFFCURVE",
"156 110 CURVE SMOOTH",
"120 110 OFFCURVE",
"91 81 OFFCURVE",
"91 45 CURVE SMOOTH",
"91 9 OFFCURVE",
"120 -20 OFFCURVE",
"156 -20 CURVE SMOOTH"
);
},
{
closed = 1;
nodes = (
"269 312 OFFCURVE",
"171 268 OFFCURVE",
"94 213 CURVE",
"81 283 LINE",
"204 251 OFFCURVE",
"307 157 OFFCURVE",
"353 39 CURVE",
"304 72 LINE",
"304 466 LINE",
"384 466 LINE",
"384 0 LINE",
"324 0 LINE",
"288 106 OFFCURVE",
"203 153 OFFCURVE",
"87 164 CURVE",
"-5 293 LINE",
"95 364 OFFCURVE",
"233 424 OFFCURVE",
"332 444 CURVE",
"368 338 LINE"
);
},
{
closed = 1;
nodes = (
"-30 456 LINE",
"-30 521 LINE",
"464 521 LINE",
"464 456 LINE"
);
}
);
width = 434;
}
);
},
{
glyphname = bLa;
lastChange = "2016-02-13 20:05:17 +0000";
layers = (
{
layerId = "F2EBC5D5-DDE2-4851-B52F-F2293ECE9CC7";
paths = (
{
closed = 1;
nodes = (
"-10 456 LINE",
"-10 491 LINE",
"509 491 LINE",
"509 456 LINE"
);
},
{
closed = 1;
nodes = (
"389 467 LINE",
"429 467 LINE",
"429 0 LINE",
"389 0 LINE"
);
},
{
closed = 1;
nodes = (
"391 240 LINE",
"386 279 OFFCURVE",
"360 338 OFFCURVE",
"327 338 CURVE SMOOTH",
"303 338 OFFCURVE",
"287 308 OFFCURVE",
"287 248 CURVE",
"266 248 LINE",
"247 306 OFFCURVE",
"207 338 OFFCURVE",
"159 338 CURVE SMOOTH",
"105 338 OFFCURVE",
"68 298 OFFCURVE",
"68 252 CURVE SMOOTH",
"68 205 OFFCURVE",
"107 168 OFFCURVE",
"150 168 CURVE SMOOTH",
"162 168 OFFCURVE",
"170 171 OFFCURVE",
"179 175 CURVE",
"167 156 LINE",
"147 163 OFFCURVE",
"128 182 OFFCURVE",
"128 208 CURVE SMOOTH",
"128 235 OFFCURVE",
"151 259 OFFCURVE",
"181 259 CURVE SMOOTH",
"213 259 OFFCURVE",
"238 234 OFFCURVE",
"238 201 CURVE SMOOTH",
"238 165 OFFCURVE",
"208 132 OFFCURVE",
"160 132 CURVE SMOOTH",
"90 132 OFFCURVE",
"27 201 OFFCURVE",
"27 277 CURVE SMOOTH",
"27 347 OFFCURVE",
"80 396 OFFCURVE",
"140 396 CURVE SMOOTH",
"191 396 OFFCURVE",
"234 361 OFFCURVE",
"259 307 CURVE",
"239 304 LINE",
"241 356 OFFCURVE",
"272 393 OFFCURVE",
"306 393 CURVE SMOOTH",
"340 393 OFFCURVE",
"376 358 OFFCURVE",
"392 307 CURVE"
);
}
);
width = 499;
},
{
layerId = "A309AC34-D742-49E2-8DE7-30304959F2B2";
paths = (
{
closed = 1;
nodes = (
"-30 456 LINE",
"-30 521 LINE",
"564 521 LINE",
"564 456 LINE"
);
},
{
closed = 1;
nodes = (
"406 467 LINE",
"486 467 LINE",
"486 0 LINE",
"406 0 LINE"
);
},
{
closed = 1;
nodes = (
"409 197 LINE",
"403 250 OFFCURVE",
"388 301 OFFCURVE",
"350 301 CURVE SMOOTH",
"321 301 OFFCURVE",
"307 274 OFFCURVE",
"306 217 CURVE",
"270 217 LINE",
"257 273 OFFCURVE",
"218 301 OFFCURVE",
"176 301 CURVE SMOOTH",
"125 301 OFFCURVE",
"90 262 OFFCURVE",
"90 217 CURVE SMOOTH",
"90 179 OFFCURVE",
"114 152 OFFCURVE",
"146 152 CURVE SMOOTH",
"156 152 OFFCURVE",
"165 155 OFFCURVE",
"174 159 CURVE",
"186 115 LINE",
"152 115 OFFCURVE",
"121 141 OFFCURVE",
"121 178 CURVE SMOOTH",
"121 212 OFFCURVE",
"148 241 OFFCURVE",
"185 241 CURVE SMOOTH",
"225 241 OFFCURVE",
"255 208 OFFCURVE",
"255 167 CURVE SMOOTH",
"255 123 OFFCURVE",
"221 86 OFFCURVE",
"164 86 CURVE SMOOTH",
"80 86 OFFCURVE",
"5 168 OFFCURVE",
"5 261 CURVE SMOOTH",
"5 345 OFFCURVE",
"66 402 OFFCURVE",
"143 402 CURVE SMOOTH",
"215 402 OFFCURVE",
"260 352 OFFCURVE",
"290 272 CURVE",
"233 289 LINE",
"233 356 OFFCURVE",
"272 396 OFFCURVE",
"320 396 CURVE SMOOTH",
"386 396 OFFCURVE",
"424 320 OFFCURVE",
"448 212 CURVE"
);
}
);
width = 534;
}
);
},
{
glyphname = bSha;
lastChange = "2016-02-13 20:05:37 +0000";
layers = (
{
layerId = "F2EBC5D5-DDE2-4851-B52F-F2293ECE9CC7";
paths = (
{
closed = 1;
nodes = (
"365 332 LINE",
"334 398 OFFCURVE",
"295 443 OFFCURVE",
"263 443 CURVE SMOOTH",
"237 443 OFFCURVE",
"211 414 OFFCURVE",
"189 363 CURVE",
"190 404 LINE",
"260 376 OFFCURVE",
"292 319 OFFCURVE",
"292 281 CURVE SMOOTH",
"292 249 OFFCURVE",
"269 224 OFFCURVE",
"239 224 CURVE SMOOTH",
"196 224 OFFCURVE",
"159 274 OFFCURVE",
"153 342 CURVE",
"169 342 LINE",
"164 279 OFFCURVE",
"129 224 OFFCURVE",
"83 224 CURVE SMOOTH",
"52 224 OFFCURVE",
"30 250 OFFCURVE",
"30 283 CURVE SMOOTH",
"30 328 OFFCURVE",
"73 380 OFFCURVE",
"143 411 CURVE",
"135 368 LINE",
"113 426 OFFCURVE",
"80 456 OFFCURVE",
"37 456 CURVE SMOOTH",
"-10 456 LINE",
"-10 491 LINE",
"37 491 LINE SMOOTH",
"87 491 OFFCURVE",
"127 461 OFFCURVE",
"158 381 CURVE",
"122 375 LINE",
"169 464 OFFCURVE",
"207 500 OFFCURVE",
"245 500 CURVE SMOOTH",
"290 500 OFFCURVE",
"334 451 OFFCURVE",
"370 381 CURVE"
);
},
{
closed = 1;
nodes = (
"362 491 LINE",
"482 491 LINE",
"482 456 LINE",
"402 456 LINE",
"402 0 LINE",
"362 0 LINE"
);
}
);
width = 472;
},
{
layerId = "A309AC34-D742-49E2-8DE7-30304959F2B2";
paths = (
{
closed = 1;
nodes = (
"395 322 LINE",
"362 401 OFFCURVE",
"331 435 OFFCURVE",
"294 435 CURVE SMOOTH",
"267 435 OFFCURVE",
"242 415 OFFCURVE",
"213 333 CURVE",
"190 422 LINE",
"295 386 OFFCURVE",
"342 320 OFFCURVE",
"342 266 CURVE SMOOTH",
"342 224 OFFCURVE",
"314 192 OFFCURVE",
"271 192 CURVE SMOOTH",
"214 192 OFFCURVE",
"170 242 OFFCURVE",
"173 342 CURVE",
"199 332 LINE",
"193 246 OFFCURVE",
"151 188 OFFCURVE",
"91 188 CURVE SMOOTH",
"45 188 OFFCURVE",
"10 223 OFFCURVE",
"10 271 CURVE SMOOTH",
"10 332 OFFCURVE",
"64 385 OFFCURVE",
"143 419 CURVE",
"155 328 LINE",
"133 416 OFFCURVE",
"89 456 OFFCURVE",
"36 456 CURVE SMOOTH",
"-30 456 LINE",
"-30 521 LINE",
"27 521 LINE SMOOTH",
"119 521 OFFCURVE",
"164 450 OFFCURVE",
"198 341 CURVE",
"112 375 LINE",
"162 480 OFFCURVE",
"198 530 OFFCURVE",
"260 530 CURVE SMOOTH",
"325 530 OFFCURVE",
"372 474 OFFCURVE",
"425 371 CURVE"
);
},
{
closed = 1;
nodes = (
"392 521 LINE",
"552 521 LINE",
"552 456 LINE",
"472 456 LINE",
"472 0 LINE",
"392 0 LINE"
);
}
);
width = 522;
}
);
},
{
glyphname = bSsa;
lastChange = "2016-02-13 20:05:44 +0000";
layers = (
{
layerId = "F2EBC5D5-DDE2-4851-B52F-F2293ECE9CC7";
paths = (
{
closed = 1;
nodes = (
"78 456 LINE",
"77 482 LINE",
"142 439 OFFCURVE",
"271 304 OFFCURVE",
"317 246 CURVE",
"302 226 LINE",
"268 266 OFFCURVE",
"234 302 OFFCURVE",
"197 337 CURVE",
"220 334 LINE",
"79 227 LINE",
"72 254 LINE",
"184 221 OFFCURVE",
"268 150 OFFCURVE",
"304 75 CURVE",
"294 72 LINE",
"294 467 LINE",
"334 467 LINE",
"334 0 LINE",
"309 0 LINE",
"287 107 OFFCURVE",
"196 175 OFFCURVE",
"74 198 CURVE",
"27 260 LINE",
"183 375 LINE",
"188 347 LINE",
"150 386 OFFCURVE",
"126 404 OFFCURVE",
"86 418 CURVE SMOOTH",
"42 434 OFFCURVE",
"18 444 OFFCURVE",
"17 477 CURVE",
"68 456 LINE",
"-10 456 LINE",
"-10 491 LINE",
"414 491 LINE",
"414 456 LINE"
);
}
);
width = 404;
},
{
layerId = "A309AC34-D742-49E2-8DE7-30304959F2B2";
paths = (
{
closed = 1;
nodes = (
"102 456 LINE",
"109 482 LINE",
"185 426 OFFCURVE",
"276 338 OFFCURVE",
"352 239 CURVE",
"323 208 LINE",
"290 249 OFFCURVE",
"265 274 OFFCURVE",
"224 307 CURVE",
"258 300 LINE",
"105 187 LINE",
"78 264 LINE",
"208 222 OFFCURVE",
"306 131 OFFCURVE",
"348 35 CURVE",
"298 72 LINE",
"298 467 LINE",
"378 467 LINE",
"378 0 LINE",
"318 0 LINE",
"292 79 OFFCURVE",
"216 131 OFFCURVE",
"100 148 CURVE",
"13 270 LINE",
"182 385 LINE",
"230 317 LINE",
"159 374 OFFCURVE",
"138 377 OFFCURVE",
"70 388 CURVE SMOOTH",
"30 395 OFFCURVE",
"2 420 OFFCURVE",
"1 477 CURVE",
"92 456 LINE",
"-30 456 LINE",
"-30 521 LINE",
"458 521 LINE",
"458 456 LINE"
);
}
);
width = 428;
}
);
},
{
glyphname = bSa;
lastChange = "2016-02-13 20:05:52 +0000";
layers = (
{
layerId = "F2EBC5D5-DDE2-4851-B52F-F2293ECE9CC7";
paths = (
{
closed = 1;
nodes = (
"401 467 LINE",
"401 0 LINE",
"361 0 LINE",
"361 467 LINE"
);
},
{
closed = 1;
nodes = (
"173 271 LINE",
"179 284 OFFCURVE",
"182 305 OFFCURVE",
"182 321 CURVE SMOOTH",
"182 371 OFFCURVE",
"156 400 OFFCURVE",
"90 415 CURVE SMOOTH",
"51 424 OFFCURVE",
"28 430 OFFCURVE",
"17 472 CURVE",
"107 471 LINE",
"175 440 OFFCURVE",
"208 388 OFFCURVE",
"208 319 CURVE SMOOTH",
"208 309 OFFCURVE",
"207 296 OFFCURVE",
"202 269 CURVE"
);
},
{
closed = 1;
nodes = (
"-10 456 LINE",
"-10 491 LINE",
"481 491 LINE",
"481 456 LINE"
);
},
{
closed = 1;
nodes = (
"110 197 OFFCURVE",
"122 206 OFFCURVE",
"180 281 CURVE SMOOTH",
"217 329 OFFCURVE",
"247 352 OFFCURVE",
"277 352 CURVE SMOOTH",
"316 352 OFFCURVE",
"355 311 OFFCURVE",
"378 253 CURVE",
"367 214 LINE",
"352 267 OFFCURVE",
"327 298 OFFCURVE",
"293 298 CURVE SMOOTH",
"269 298 OFFCURVE",
"250 280 OFFCURVE",
"209 225 CURVE SMOOTH",
"168 171 OFFCURVE",
"146 142 OFFCURVE",
"115 142 CURVE SMOOTH",
"78 142 OFFCURVE",
"41 183 OFFCURVE",
"25 238 CURVE",
"45 246 LINE",
"62 207 OFFCURVE",
"75 197 OFFCURVE",
"93 197 CURVE SMOOTH"
);
}
);
width = 471;
},
{
layerId = "A309AC34-D742-49E2-8DE7-30304959F2B2";
paths = (
{
closed = 1;
nodes = (
"451 467 LINE",
"451 0 LINE",
"371 0 LINE",
"371 467 LINE"
);
},
{
closed = 1;
nodes = (
"173 272 LINE",
"185 287 OFFCURVE",
"192 304 OFFCURVE",
"192 322 CURVE SMOOTH",
"192 368 OFFCURVE",
"146 374 OFFCURVE",
"130 376 CURVE SMOOTH",
"63 385 OFFCURVE",
"30 397 OFFCURVE",
"17 472 CURVE",
"137 471 LINE",
"209 438 OFFCURVE",
"248 376 OFFCURVE",
"248 310 CURVE SMOOTH",
"248 286 OFFCURVE",
"243 266 OFFCURVE",
"232 249 CURVE"
);
},
{
closed = 1;
nodes = (
"-30 456 LINE",
"-30 521 LINE",
"531 521 LINE",
"531 456 LINE"
);
},
{
closed = 1;
nodes = (
"119 207 OFFCURVE",
"141 232 OFFCURVE",
"180 281 CURVE SMOOTH",
"221 332 OFFCURVE",
"253 362 OFFCURVE",
"293 362 CURVE SMOOTH",
"350 362 OFFCURVE",
"386 302 OFFCURVE",
"410 213 CURVE",
"377 174 LINE",
"367 228 OFFCURVE",
"354 255 OFFCURVE",
"329 255 CURVE SMOOTH",
"307 255 OFFCURVE",
"288 233 OFFCURVE",
"249 185 CURVE SMOOTH",
"199 122 OFFCURVE",
"173 102 OFFCURVE",
"134 102 CURVE SMOOTH",
"83 102 OFFCURVE",
"35 152 OFFCURVE",
"13 238 CURVE",
"55 256 LINE",
"66 217 OFFCURVE",
"79 207 OFFCURVE",
"94 207 CURVE SMOOTH"
);
}
);
width = 501;
}
);
},
{
glyphname = bHa;
lastChange = "2016-02-13 20:06:00 +0000";
layers = (
{
layerId = "F2EBC5D5-DDE2-4851-B52F-F2293ECE9CC7";
paths = (
{
closed = 1;
nodes = (
"426 491 LINE",
"426 456 LINE",
"-10 456 LINE",
"-10 491 LINE"
);
},
{
closed = 1;
nodes = (
"293 421 OFFCURVE",
"362 357 OFFCURVE",
"362 280 CURVE SMOOTH",
"362 196 OFFCURVE",
"279 129 OFFCURVE",
"171 128 CURVE",
"167 146 LINE",
"251 119 OFFCURVE",
"302 88 OFFCURVE",
"425 0 CURVE",
"409 -19 LINE",
"271 71 OFFCURVE",
"198 96 OFFCURVE",
"71 121 CURVE",
"38 196 LINE",
"69 187 OFFCURVE",
"117 181 OFFCURVE",
"152 181 CURVE SMOOTH",
"258 181 OFFCURVE",
"324 235 OFFCURVE",
"324 300 CURVE SMOOTH",
"324 344 OFFCURVE",
"293 375 OFFCURVE",
"236 375 CURVE SMOOTH",
"209 375 OFFCURVE",
"190 368 OFFCURVE",
"176 359 CURVE",
"205 390 LINE",
"210 377 OFFCURVE",
"211 364 OFFCURVE",
"211 356 CURVE SMOOTH",
"211 306 OFFCURVE",
"173 269 OFFCURVE",
"128 269 CURVE SMOOTH",
"90 269 OFFCURVE",
"65 296 OFFCURVE",
"65 330 CURVE SMOOTH",
"65 380 OFFCURVE",
"118 421 OFFCURVE",
"196 421 CURVE SMOOTH"
);
}
);
width = 416;
},
{
layerId = "A309AC34-D742-49E2-8DE7-30304959F2B2";
paths = (
{
closed = 1;
nodes = (
"476 521 LINE",
"476 456 LINE",
"-30 456 LINE",
"-30 521 LINE"
);
},
{
closed = 1;
nodes = (
"319 432 OFFCURVE",
"407 352 OFFCURVE",
"407 256 CURVE SMOOTH",
"407 159 OFFCURVE",
"318 91 OFFCURVE",
"202 91 CURVE",
"162 156 LINE",
"248 125 OFFCURVE",
"319 90 OFFCURVE",
"460 -10 CURVE",
"424 -55 LINE",
"286 27 OFFCURVE",
"213 51 OFFCURVE",
"86 71 CURVE",
"19 202 LINE",
"58 192 OFFCURVE",
"109 186 OFFCURVE",
"148 186 CURVE SMOOTH",
"259 186 OFFCURVE",
"327 236 OFFCURVE",
"327 294 CURVE SMOOTH",
"327 326 OFFCURVE",
"305 348 OFFCURVE",
"263 348 CURVE SMOOTH",
"237 348 OFFCURVE",
"223 340 OFFCURVE",
"201 329 CURVE",
"220 390 LINE",
"233 373 OFFCURVE",
"236 357 OFFCURVE",
"236 343 CURVE SMOOTH",
"236 286 OFFCURVE",
"187 239 OFFCURVE",
"128 239 CURVE SMOOTH",
"77 239 OFFCURVE",
"40 275 OFFCURVE",
"40 321 CURVE SMOOTH",
"40 382 OFFCURVE",
"105 432 OFFCURVE",
"200 432 CURVE SMOOTH"
);
}
);
width = 446;
}
);
},
{
glyphname = bRra;
lastChange = "2016-02-13 20:06:18 +0000";
layers = (
{
layerId = "F2EBC5D5-DDE2-4851-B52F-F2293ECE9CC7";
paths = (
{
closed = 1;
nodes = (
"243 466 LINE",
"243 274 LINE SMOOTH",
"243 261 OFFCURVE",
"248 253 OFFCURVE",
"259 253 CURVE SMOOTH",
"285 253 OFFCURVE",
"334 299 OFFCURVE",
"373 371 CURVE",
"416 335 OFFCURVE",
"453 285 OFFCURVE",
"453 207 CURVE SMOOTH",
"453 105 OFFCURVE",
"390 24 OFFCURVE",
"292 24 CURVE SMOOTH",
"178 24 OFFCURVE",
"79 132 OFFCURVE",
"20 404 CURVE",
"45 411 LINE",
"99 178 OFFCURVE",
"174 82 OFFCURVE",
"278 82 CURVE SMOOTH",
"363 82 OFFCURVE",
"423 144 OFFCURVE",
"423 225 CURVE SMOOTH",
"423 270 OFFCURVE",
"404 300 OFFCURVE",
"380 317 CURVE",
"406 318 LINE",
"372 254 OFFCURVE",
"319 209 OFFCURVE",
"281 209 CURVE SMOOTH",
"241 209 OFFCURVE",
"203 257 OFFCURVE",
"203 305 CURVE SMOOTH",
"203 466 LINE"
);
},
{
closed = 1;
nodes = (
"-10 456 LINE",
"-10 491 LINE",
"497 491 LINE",
"497 456 LINE"
);
},
{
closed = 1;
nodes = (
"288 -118 OFFCURVE",
"306 -100 OFFCURVE",
"306 -78 CURVE SMOOTH",
"306 -56 OFFCURVE",
"288 -38 OFFCURVE",
"266 -38 CURVE SMOOTH",
"244 -38 OFFCURVE",
"226 -56 OFFCURVE",
"226 -78 CURVE SMOOTH",
"226 -100 OFFCURVE",
"244 -118 OFFCURVE",
"266 -118 CURVE SMOOTH"
);
}
);
width = 487;
},
{
layerId = "A309AC34-D742-49E2-8DE7-30304959F2B2";
paths = (
{
closed = 1;
nodes = (
"326 -170 OFFCURVE",
"355 -141 OFFCURVE",
"355 -105 CURVE SMOOTH",
"355 -69 OFFCURVE",
"326 -40 OFFCURVE",
"290 -40 CURVE SMOOTH",
"254 -40 OFFCURVE",
"225 -69 OFFCURVE",
"225 -105 CURVE SMOOTH",
"225 -141 OFFCURVE",
"254 -170 OFFCURVE",
"290 -170 CURVE SMOOTH"
);
},
{
closed = 1;
nodes = (
"253 466 LINE",
"253 314 LINE SMOOTH",
"253 303 OFFCURVE",
"256 295 OFFCURVE",
"266 295 CURVE SMOOTH",
"289 295 OFFCURVE",
"335 337 OFFCURVE",
"380 407 CURVE",
"434 360 OFFCURVE",
"487 289 OFFCURVE",
"487 195 CURVE SMOOTH",
"487 87 OFFCURVE",
"417 12 OFFCURVE",
"305 12 CURVE SMOOTH",
"176 12 OFFCURVE",
"68 112 OFFCURVE",
"-10 404 CURVE",
"48 422 LINE",
"109 189 OFFCURVE",
"193 128 OFFCURVE",
"285 128 CURVE SMOOTH",
"363 128 OFFCURVE",
"417 172 OFFCURVE",
"417 232 CURVE SMOOTH",
"417 267 OFFCURVE",
"398 305 OFFCURVE",
"360 327 CURVE",
"432 297 LINE",
"400 236 OFFCURVE",
"339 194 OFFCURVE",
"293 194 CURVE SMOOTH",
"230 194 OFFCURVE",
"173 274 OFFCURVE",
"173 349 CURVE SMOOTH",
"173 466 LINE"
);
},
{
closed = 1;
nodes = (
"-30 456 LINE",
"-30 521 LINE",
"543 521 LINE",
"543 456 LINE"
);
}
);
width = 513;
}
);
},
{
glyphname = bRha;
lastChange = "2016-02-13 20:06:33 +0000";
layers = (
{
layerId = "F2EBC5D5-DDE2-4851-B52F-F2293ECE9CC7";
paths = (
{
closed = 1;
nodes = (
"102 467 LINE",
"102 121 LINE SMOOTH",
"102 76 OFFCURVE",
"113 56 OFFCURVE",
"137 56 CURVE SMOOTH",
"197 56 OFFCURVE",
"290 182 OFFCURVE",
"290 264 CURVE",
"310 250 LINE",
"297 239 OFFCURVE",
"285 234 OFFCURVE",
"270 234 CURVE SMOOTH",
"235 234 OFFCURVE",
"208 261 OFFCURVE",
"208 293 CURVE SMOOTH",
"208 324 OFFCURVE",
"234 349 OFFCURVE",
"268 349 CURVE SMOOTH",
"313 349 OFFCURVE",
"342 306 OFFCURVE",
"342 256 CURVE SMOOTH",
"342 153 OFFCURVE",
"228 10 OFFCURVE",
"154 10 CURVE SMOOTH",
"109 10 OFFCURVE",
"62 63 OFFCURVE",
"62 138 CURVE SMOOTH",
"62 467 LINE"
);
},
{
closed = 1;
nodes = (
"-10 456 LINE",
"-10 491 LINE",
"382 491 LINE",
"382 456 LINE"
);
},
{
closed = 1;
nodes = (
"179 -119 OFFCURVE",
"197 -101 OFFCURVE",
"197 -79 CURVE SMOOTH",
"197 -57 OFFCURVE",
"179 -39 OFFCURVE",
"157 -39 CURVE SMOOTH",
"135 -39 OFFCURVE",
"117 -57 OFFCURVE",
"117 -79 CURVE SMOOTH",
"117 -101 OFFCURVE",
"135 -119 OFFCURVE",
"157 -119 CURVE SMOOTH"
);
}
);
width = 372;
},
{
layerId = "A309AC34-D742-49E2-8DE7-30304959F2B2";
paths = (
{
closed = 1;
nodes = (
"276 -170 OFFCURVE",
"305 -141 OFFCURVE",
"305 -105 CURVE SMOOTH",
"305 -69 OFFCURVE",
"276 -40 OFFCURVE",
"240 -40 CURVE SMOOTH",
"204 -40 OFFCURVE",
"175 -69 OFFCURVE",
"175 -105 CURVE SMOOTH",
"175 -141 OFFCURVE",
"204 -170 OFFCURVE",
"240 -170 CURVE SMOOTH"
);
},
{
closed = 1;
nodes = (
"-30 456 LINE",
"-30 521 LINE",
"452 521 LINE",
"452 456 LINE"
);
},
{
closed = 1;
nodes = (
"122 467 LINE",
"122 130 LINE SMOOTH",
"122 103 OFFCURVE",
"127 95 OFFCURVE",
"140 95 CURVE SMOOTH",
"192 95 OFFCURVE",
"281 219 OFFCURVE",
"281 294 CURVE",
"325 240 LINE",
"313 229 OFFCURVE",
"298 224 OFFCURVE",
"279 224 CURVE SMOOTH",
"230 224 OFFCURVE",
"193 260 OFFCURVE",
"193 305 CURVE SMOOTH",
"193 350 OFFCURVE",
"229 389 OFFCURVE",
"281 389 CURVE SMOOTH",
"343 389 OFFCURVE",
"387 333 OFFCURVE",
"387 267 CURVE SMOOTH",
"387 155 OFFCURVE",
"262 -1 OFFCURVE",
"172 -1 CURVE SMOOTH",
"111 -1 OFFCURVE",
"42 69 OFFCURVE",
"42 167 CURVE SMOOTH",
"42 467 LINE"
);
}
);
width = 422;
}
);
},
{
glyphname = bYya;
lastChange = "2016-02-13 20:06:44 +0000";
layers = (
{
layerId = "F2EBC5D5-DDE2-4851-B52F-F2293ECE9CC7";
paths = (
{
closed = 1;
nodes = (
"78 456 LINE",
"77 482 LINE",
"132 441 OFFCURVE",
"183 394 OFFCURVE",
"229 341 CURVE",
"79 227 LINE",
"72 254 LINE",
"184 221 OFFCURVE",
"268 150 OFFCURVE",
"304 75 CURVE",
"294 72 LINE",
"294 467 LINE",
"334 467 LINE",
"334 0 LINE",
"309 0 LINE",
"287 107 OFFCURVE",
"196 175 OFFCURVE",
"74 198 CURVE",
"27 260 LINE",
"183 375 LINE",
"186 347 LINE",
"150 390 OFFCURVE",
"126 405 OFFCURVE",
"86 418 CURVE SMOOTH",
"41 432 OFFCURVE",
"18 444 OFFCURVE",
"17 477 CURVE",
"68 456 LINE",
"-10 456 LINE",
"-10 491 LINE",
"414 491 LINE",
"414 456 LINE"
);
},
{
closed = 1;
nodes = (
"162 29 OFFCURVE",
"180 47 OFFCURVE",
"180 69 CURVE SMOOTH",
"180 91 OFFCURVE",
"162 109 OFFCURVE",
"140 109 CURVE SMOOTH",
"118 109 OFFCURVE",
"100 91 OFFCURVE",
"100 69 CURVE SMOOTH",
"100 47 OFFCURVE",
"118 29 OFFCURVE",
"140 29 CURVE SMOOTH"
);
}
);
width = 404;
},
{
layerId = "A309AC34-D742-49E2-8DE7-30304959F2B2";
paths = (
{
closed = 1;
nodes = (
"196 -42 OFFCURVE",
"225 -13 OFFCURVE",
"225 23 CURVE SMOOTH",
"225 59 OFFCURVE",
"196 88 OFFCURVE",
"160 88 CURVE SMOOTH",
"124 88 OFFCURVE",
"95 59 OFFCURVE",
"95 23 CURVE SMOOTH",
"95 -13 OFFCURVE",
"124 -42 OFFCURVE",
"160 -42 CURVE SMOOTH"
);
},
{
closed = 1;
nodes = (
"102 456 LINE",
"111 482 LINE",
"169 432 OFFCURVE",
"224 375 OFFCURVE",
"273 311 CURVE",
"105 187 LINE",
"78 264 LINE",
"208 222 OFFCURVE",
"306 131 OFFCURVE",
"348 35 CURVE",
"298 72 LINE",
"298 467 LINE",
"378 467 LINE",
"378 0 LINE",
"318 0 LINE",
"292 79 OFFCURVE",
"216 131 OFFCURVE",
"100 148 CURVE",
"13 270 LINE",
"182 385 LINE",
"230 317 LINE",
"158 375 OFFCURVE",
"137 377 OFFCURVE",
"70 388 CURVE SMOOTH",
"30 395 OFFCURVE",
"2 420 OFFCURVE",
"1 477 CURVE",
"92 456 LINE",
"-30 456 LINE",
"-30 521 LINE",
"458 521 LINE",
"458 456 LINE"
);
}
);
width = 428;
}
);
},
{
color = 0;
glyphname = bRaAssamese;
lastChange = "2016-02-13 20:07:00 +0000";
layers = (
{
layerId = "F2EBC5D5-DDE2-4851-B52F-F2293ECE9CC7";
paths = (
{
closed = 1;
nodes = (
"240 357 OFFCURVE",
"153 310 OFFCURVE",
"84 253 CURVE",
"81 273 LINE",
"169 247 OFFCURVE",
"274 173 OFFCURVE",
"313 79 CURVE",
"304 72 LINE",
"304 466 LINE",
"344 466 LINE",
"344 0 LINE",
"319 0 LINE",
"299 118 OFFCURVE",
"184 197 OFFCURVE",
"77 214 CURVE",
"25 283 LINE",
"113 355 OFFCURVE",
"235 416 OFFCURVE",
"322 436 CURVE",
"328 384 LINE"
);
},
{
closed = 1;
nodes = (
"-10 456 LINE",
"-10 491 LINE",
"424 491 LINE",
"424 456 LINE"
);
},
{
closed = 1;
nodes = (
"313 182 LINE",
"270 239 OFFCURVE",
"209 287 OFFCURVE",
"147 311 CURVE",
"168 345 LINE",
"229 312 OFFCURVE",
"288 258 OFFCURVE",
"329 200 CURVE"
);
}
);
width = 414;
},
{
layerId = "A309AC34-D742-49E2-8DE7-30304959F2B2";
width = 600;
}
);
},
{
color = 0;
glyphname = bVaAssamese;
lastChange = "2016-02-13 20:07:00 +0000";
layers = (
{
layerId = "F2EBC5D5-DDE2-4851-B52F-F2293ECE9CC7";
paths = (
{
closed = 1;
nodes = (
"245 9 LINE",
"208 62 OFFCURVE",
"160 88 OFFCURVE",
"94 99 CURVE",
"77 155 LINE",
"154 138 OFFCURVE",
"219 90 OFFCURVE",
"262 21 CURVE"
);
},
{
closed = 1;
nodes = (
"240 357 OFFCURVE",
"153 310 OFFCURVE",
"84 253 CURVE",
"81 273 LINE",
"169 247 OFFCURVE",
"274 173 OFFCURVE",
"313 79 CURVE",
"304 72 LINE",
"304 466 LINE",
"344 466 LINE",
"344 0 LINE",
"319 0 LINE",
"299 118 OFFCURVE",
"184 197 OFFCURVE",
"77 214 CURVE",
"25 283 LINE",
"113 355 OFFCURVE",
"235 416 OFFCURVE",
"322 436 CURVE",
"328 384 LINE"
);
},
{
closed = 1;
nodes = (
"-10 456 LINE",
"-10 491 LINE",
"424 491 LINE",
"424 456 LINE"
);
}
);
width = 414;
},
{
layerId = "A309AC34-D742-49E2-8DE7-30304959F2B2";
width = 600;
}
);
},
{
glyphname = bAvagraha;
lastChange = "2016-02-13 20:07:25 +0000";
layers = (
{
layerId = "F2EBC5D5-DDE2-4851-B52F-F2293ECE9CC7";
paths = (
{
closed = 1;
nodes = (
"196 491 LINE",
"196 456 LINE",
"-10 456 LINE",
"-10 491 LINE"
);
},
{
closed = 1;
nodes = (
"293 421 OFFCURVE",
"362 357 OFFCURVE",
"362 280 CURVE SMOOTH",
"362 196 OFFCURVE",
"279 129 OFFCURVE",
"171 128 CURVE",
"167 146 LINE",
"251 119 OFFCURVE",
"302 88 OFFCURVE",
"425 0 CURVE",
"409 -19 LINE",
"271 71 OFFCURVE",
"198 96 OFFCURVE",
"71 121 CURVE",
"38 196 LINE",
"69 187 OFFCURVE",
"117 181 OFFCURVE",
"152 181 CURVE SMOOTH",
"258 181 OFFCURVE",
"324 235 OFFCURVE",
"324 300 CURVE SMOOTH",
"324 344 OFFCURVE",
"293 375 OFFCURVE",
"236 375 CURVE SMOOTH",
"209 375 OFFCURVE",
"190 368 OFFCURVE",
"176 359 CURVE",
"205 390 LINE",
"210 377 OFFCURVE",
"211 364 OFFCURVE",
"211 356 CURVE SMOOTH",
"211 306 OFFCURVE",
"173 269 OFFCURVE",
"128 269 CURVE SMOOTH",
"90 269 OFFCURVE",
"65 296 OFFCURVE",
"65 330 CURVE SMOOTH",
"65 380 OFFCURVE",
"118 421 OFFCURVE",
"196 421 CURVE SMOOTH"
);
}
);
width = 415;
},
{
layerId = "A309AC34-D742-49E2-8DE7-30304959F2B2";
paths = (
{
closed = 1;
nodes = (
"221 521 LINE",
"221 456 LINE",
"-30 456 LINE",
"-30 521 LINE"
);
},
{
closed = 1;
nodes = (
"319 432 OFFCURVE",
"407 352 OFFCURVE",
"407 256 CURVE SMOOTH",
"407 159 OFFCURVE",
"318 91 OFFCURVE",
"202 91 CURVE",
"162 156 LINE",
"248 125 OFFCURVE",
"319 90 OFFCURVE",
"460 -10 CURVE",
"424 -55 LINE",
"286 27 OFFCURVE",
"213 51 OFFCURVE",
"86 71 CURVE",
"19 202 LINE",
"58 192 OFFCURVE",
"109 186 OFFCURVE",
"148 186 CURVE SMOOTH",
"259 186 OFFCURVE",
"327 236 OFFCURVE",
"327 294 CURVE SMOOTH",
"327 326 OFFCURVE",
"305 348 OFFCURVE",
"263 348 CURVE SMOOTH",
"237 348 OFFCURVE",
"223 340 OFFCURVE",
"201 329 CURVE",
"220 390 LINE",
"233 373 OFFCURVE",
"236 357 OFFCURVE",
"236 343 CURVE SMOOTH",
"236 286 OFFCURVE",
"187 239 OFFCURVE",
"128 239 CURVE SMOOTH",
"77 239 OFFCURVE",
"40 275 OFFCURVE",
"40 321 CURVE SMOOTH",
"40 382 OFFCURVE",
"105 432 OFFCURVE",
"200 432 CURVE SMOOTH"
);
}
);
width = 446;
}
);
},
{
glyphname = bSignAa;
lastChange = "2016-02-13 20:08:56 +0000";
layers = (
{
layerId = "F2EBC5D5-DDE2-4851-B52F-F2293ECE9CC7";
paths = (
{
closed = 1;
nodes = (
"193 491 LINE",
"193 456 LINE",
"113 456 LINE",
"113 0 LINE",
"73 0 LINE",
"73 366 LINE SMOOTH",
"73 415 OFFCURVE",
"43 456 OFFCURVE",
"7 456 CURVE SMOOTH",
"-10 456 LINE",
"-10 491 LINE",
"11 491 LINE SMOOTH",
"44 491 OFFCURVE",
"77 451 OFFCURVE",
"88 384 CURVE",
"73 381 LINE",
"73 491 LINE"
);
}
);
width = 183;
},
{
layerId = "A309AC34-D742-49E2-8DE7-30304959F2B2";
paths = (
{
closed = 1;
nodes = (
"223 521 LINE",
"223 456 LINE",
"143 456 LINE",
"143 0 LINE",
"63 0 LINE",
"63 346 LINE SMOOTH",
"63 405 OFFCURVE",
"62 456 OFFCURVE",
"17 456 CURVE SMOOTH",
"-30 456 LINE",
"-30 521 LINE",
"32 521 LINE SMOOTH",
"75 521 OFFCURVE",
"89 474 OFFCURVE",
"98 394 CURVE",
"63 371 LINE",
"93 521 LINE"
);
}
);
width = 193;
}
);
},
{
color = 0;
glyphname = bSignI;
lastChange = "2016-02-13 20:10:51 +0000";
layers = (
{
layerId = "F2EBC5D5-DDE2-4851-B52F-F2293ECE9CC7";
paths = (
{
closed = 1;
nodes = (
"113 467 LINE",
"113 0 LINE",
"73 0 LINE",
"73 467 LINE"
);
},
{
closed = 1;
nodes = (
"78 486 LINE",
"50 515 OFFCURVE",
"35 549 OFFCURVE",
"35 584 CURVE SMOOTH",
"35 664 OFFCURVE",
"109 728 OFFCURVE",
"206 728 CURVE SMOOTH",
"303 728 OFFCURVE",
"407 663 OFFCURVE",
"513 544 CURVE",
"498 530 LINE",
"401 630 OFFCURVE",
"312 684 OFFCURVE",
"227 684 CURVE SMOOTH",
"142 684 OFFCURVE",
"78 629 OFFCURVE",
"78 563 CURVE SMOOTH",
"78 536 OFFCURVE",
"89 506 OFFCURVE",
"107 487 CURVE"
);
},
{
closed = 1;
nodes = (
"193 491 LINE",
"193 456 LINE",
"-10 456 LINE",
"-10 491 LINE"
);
}
);
width = 185;
},
{
layerId = "A309AC34-D742-49E2-8DE7-30304959F2B2";
paths = (
{
closed = 1;
nodes = (
"133 467 LINE",
"133 0 LINE",
"53 0 LINE",
"53 467 LINE"
);
},
{
closed = 1;
nodes = (
"89 486 LINE",
"42 536 OFFCURVE",
"22 578 OFFCURVE",
"22 625 CURVE SMOOTH",
"22 720 OFFCURVE",
"104 786 OFFCURVE",
"213 786 CURVE SMOOTH",
"339 786 OFFCURVE",
"451 699 OFFCURVE",
"553 582 CURVE",
"512 545 LINE",
"419 639 OFFCURVE",
"336 689 OFFCURVE",
"246 689 CURVE SMOOTH",
"156 689 OFFCURVE",
"101 638 OFFCURVE",
"101 576 CURVE SMOOTH",
"101 542 OFFCURVE",
"117 512 OFFCURVE",
"137 487 CURVE"
);
},
{
closed = 1;
nodes = (
"213 521 LINE",
"213 456 LINE",
"-30 456 LINE",
"-30 521 LINE"
);
}
);
width = 183;
}
);
},
{
color = 0;
glyphname = bSignIi;
lastChange = "2016-02-13 20:10:29 +0000";
layers = (
{
layerId = "F2EBC5D5-DDE2-4851-B52F-F2293ECE9CC7";
paths = (
{
closed = 1;
nodes = (
"74 490 LINE",
"74 609 OFFCURVE",
"-27 694 OFFCURVE",
"-187 694 CURVE SMOOTH",
"-286 694 OFFCURVE",
"-363 661 OFFCURVE",
"-363 620 CURVE SMOOTH",
"-363 600 OFFCURVE",
"-344 589 OFFCURVE",
"-310 589 CURVE SMOOTH",
"-282 589 OFFCURVE",
"-210 596 OFFCURVE",
"-186 596 CURVE SMOOTH",
"-121 596 OFFCURVE",
"-72 544 OFFCURVE",
"-72 481 CURVE",
"-108 481 LINE",
"-107 490 OFFCURVE",
"-105 495 OFFCURVE",
"-105 505 CURVE SMOOTH",
"-105 538 OFFCURVE",
"-128 552 OFFCURVE",
"-159 552 CURVE SMOOTH",
"-179 552 OFFCURVE",
"-243 546 OFFCURVE",
"-271 546 CURVE SMOOTH",
"-333 546 OFFCURVE",
"-392 576 OFFCURVE",
"-392 628 CURVE SMOOTH",
"-392 686 OFFCURVE",
"-320 743 OFFCURVE",
"-200 743 CURVE SMOOTH",
"-33 743 OFFCURVE",
"107 634 OFFCURVE",
"113 489 CURVE"
);
},
{
closed = 1;
nodes = (
"115 467 LINE",
"115 0 LINE",
"75 0 LINE",
"75 467 LINE"
);
},
{
closed = 1;
nodes = (
"-10 456 LINE",
"-10 491 LINE",
"195 491 LINE",
"195 456 LINE"
);
}
);
width = 185;
},
{
layerId = "A309AC34-D742-49E2-8DE7-30304959F2B2";
paths = (
{
closed = 1;
nodes = (
"52 500 LINE",
"52 630 OFFCURVE",
"-34 710 OFFCURVE",
"-190 710 CURVE SMOOTH",
"-286 710 OFFCURVE",
"-359 680 OFFCURVE",
"-359 653 CURVE SMOOTH",
"-359 644 OFFCURVE",
"-350 638 OFFCURVE",
"-333 638 CURVE SMOOTH",
"-306 638 OFFCURVE",
"-248 654 OFFCURVE",
"-201 654 CURVE SMOOTH",
"-108 654 OFFCURVE",
"-63 590 OFFCURVE",
"-52 520 CURVE",
"-130 520 LINE",
"-126 527 OFFCURVE",
"-124 535 OFFCURVE",
"-124 542 CURVE SMOOTH",
"-124 560 OFFCURVE",
"-139 569 OFFCURVE",
"-168 569 CURVE SMOOTH",
"-202 569 OFFCURVE",
"-258 557 OFFCURVE",
"-292 557 CURVE SMOOTH",
"-364 557 OFFCURVE",
"-424 611 OFFCURVE",
"-424 667 CURVE SMOOTH",
"-424 733 OFFCURVE",
"-341 791 OFFCURVE",
"-216 791 CURVE SMOOTH",
"-14 791 OFFCURVE",
"123 641 OFFCURVE",
"131 499 CURVE"
);
},
{
closed = 1;
nodes = (
"133 467 LINE",
"133 0 LINE",
"53 0 LINE",
"53 467 LINE"
);
},
{
closed = 1;
nodes = (
"-22 456 LINE",
"-22 521 LINE",
"213 521 LINE",
"213 456 LINE"
);
}
);
width = 183;
}
);
},
{
color = 0;
glyphname = bSignU;
lastChange = "2016-02-16 13:12:49 +0000";
layers = (
{
background = {
paths = (
{
closed = 1;
nodes = (
"-105 -23 LINE",
"-105 60 LINE",
"-92 49 OFFCURVE",
"-83 41 OFFCURVE",
"-79 37 CURVE SMOOTH",
"-73 31 OFFCURVE",
"-70 26 OFFCURVE",
"-70 22 CURVE SMOOTH",
"-70 -48 LINE"
);
},
{
closed = 1;
nodes = (
"-72 -43 LINE",
"-72 -91 OFFCURVE",
"-115 -136 OFFCURVE",
"-169 -136 CURVE SMOOTH",
"-218 -136 OFFCURVE",
"-259 -99 OFFCURVE",
"-259 -54 CURVE SMOOTH",
"-259 -15 OFFCURVE",
"-229 22 OFFCURVE",
"-171 22 CURVE SMOOTH",
"-114 22 OFFCURVE",
"-64 -14 OFFCURVE",
"54 -129 CURVE",
"37 -146 LINE",
"-60 -53 OFFCURVE",
"-112 -17 OFFCURVE",
"-162 -17 CURVE SMOOTH",
"-205 -17 OFFCURVE",
"-223 -43 OFFCURVE",
"-223 -66 CURVE SMOOTH",
"-223 -85 OFFCURVE",
"-209 -102 OFFCURVE",
"-181 -102 CURVE SMOOTH",
"-143 -102 OFFCURVE",
"-105 -71 OFFCURVE",
"-105 -22 CURVE"
);
}
);
};
layerId = "F2EBC5D5-DDE2-4851-B52F-F2293ECE9CC7";
paths = (
{
closed = 1;
nodes = (
"-105 -23 LINE",
"-105 60 LINE",
"-92 49 OFFCURVE",
"-83 41 OFFCURVE",
"-79 37 CURVE SMOOTH",
"-73 31 OFFCURVE",
"-70 26 OFFCURVE",
"-70 22 CURVE SMOOTH",
"-70 -48 LINE"
);
},
{
closed = 1;
nodes = (
"-70 -33 LINE",
"-70 -91 OFFCURVE",
"-114 -136 OFFCURVE",
"-169 -136 CURVE SMOOTH",
"-218 -136 OFFCURVE",
"-259 -99 OFFCURVE",
"-259 -54 CURVE SMOOTH",
"-259 -15 OFFCURVE",
"-229 22 OFFCURVE",
"-171 22 CURVE SMOOTH",
"-114 22 OFFCURVE",
"-64 -14 OFFCURVE",
"54 -129 CURVE",
"37 -146 LINE",
"-60 -53 OFFCURVE",
"-112 -17 OFFCURVE",
"-162 -17 CURVE SMOOTH",
"-205 -17 OFFCURVE",
"-223 -43 OFFCURVE",
"-223 -66 CURVE SMOOTH",
"-223 -85 OFFCURVE",
"-209 -102 OFFCURVE",
"-181 -102 CURVE SMOOTH",
"-143 -102 OFFCURVE",
"-105 -71 OFFCURVE",
"-105 -12 CURVE"
);
}
);
width = 0;
},
{
layerId = "A309AC34-D742-49E2-8DE7-30304959F2B2";
width = 600;
}
);
},
{
color = 0;
glyphname = bSignUu;
lastChange = "2016-02-13 20:09:15 +0000";
layers = (
{
layerId = "F2EBC5D5-DDE2-4851-B52F-F2293ECE9CC7";
paths = (
{
closed = 1;
nodes = (
"-105 -15 LINE",
"-105 60 LINE",
"-92 49 OFFCURVE",
"-83 41 OFFCURVE",
"-79 37 CURVE SMOOTH",
"-73 31 OFFCURVE",
"-70 26 OFFCURVE",
"-70 22 CURVE SMOOTH",
"-70 -32 LINE"
);
},
{
closed = 1;
nodes = (
"-70 -32 LINE",
"-99 -23 OFFCURVE",
"-128 -19 OFFCURVE",
"-147 -19 CURVE SMOOTH",
"-198 -19 OFFCURVE",
"-213 -45 OFFCURVE",
"-213 -65 CURVE SMOOTH",
"-213 -84 OFFCURVE",
"-199 -99 OFFCURVE",
"-169 -99 CURVE SMOOTH",
"-144 -99 OFFCURVE",
"-116 -89 OFFCURVE",
"-95 -72 CURVE",
"-61 -97 LINE",
"-82 -119 OFFCURVE",
"-116 -140 OFFCURVE",
"-154 -140 CURVE SMOOTH",
"-206 -140 OFFCURVE",
"-249 -101 OFFCURVE",
"-249 -54 CURVE SMOOTH",
"-249 -15 OFFCURVE",
"-220 22 OFFCURVE",
"-159 22 CURVE SMOOTH",
"-133 22 OFFCURVE",
"-104 15 OFFCURVE",
"-70 -4 CURVE"
);
},
{
closed = 1;
nodes = (
"-95 -72 LINE",
"-54 -98 OFFCURVE",
"-7 -134 OFFCURVE",
"55 -186 CURVE",
"37 -206 LINE",
"-19 -162 OFFCURVE",
"-59 -135 OFFCURVE",
"-93 -115 CURVE"
);
}
);
width = 0;
},
{
layerId = "A309AC34-D742-49E2-8DE7-30304959F2B2";
width = 600;
}
);
},
{
color = 0;
glyphname = bSignVocalicR;
lastChange = "2016-02-13 20:09:15 +0000";
layers = (
{
layerId = "F2EBC5D5-DDE2-4851-B52F-F2293ECE9CC7";
paths = (
{
closed = 1;
nodes = (
"-188 -75 LINE",
"-201 -44 LINE",
"-15 -142 LINE",
"-29 -161 LINE",
"-243 -52 LINE",
"-105 33 LINE",
"-105 84 LINE",
"-92 73 OFFCURVE",
"-83 65 OFFCURVE",
"-79 61 CURVE SMOOTH",
"-73 55 OFFCURVE",
"-70 50 OFFCURVE",
"-70 46 CURVE SMOOTH",
"-70 0 LINE"
);
}
);
width = 0;
},
{
layerId = "A309AC34-D742-49E2-8DE7-30304959F2B2";
width = 600;
}
);
},
{
color = 0;
glyphname = bSignVocalicRr;
lastChange = "2016-02-13 20:09:15 +0000";
layers = (
{
layerId = "F2EBC5D5-DDE2-4851-B52F-F2293ECE9CC7";
paths = (
{
closed = 1;
nodes = (
"-188 -65 LINE",
"-201 -34 LINE",
"-15 -132 LINE",
"-29 -151 LINE",
"-243 -42 LINE",
"-105 33 LINE",
"-105 84 LINE",
"-92 73 OFFCURVE",
"-83 65 OFFCURVE",
"-79 61 CURVE SMOOTH",
"-73 55 OFFCURVE",
"-70 50 OFFCURVE",
"-70 46 CURVE SMOOTH",
"-70 0 LINE"
);
},
{
closed = 1;
nodes = (
"-103 -101 LINE",
"-188 -155 LINE",
"-201 -124 LINE",
"-15 -222 LINE",
"-29 -241 LINE",
"-243 -132 LINE",
"-152 -76 LINE"
);
}
);
width = 0;
},
{
layerId = "A309AC34-D742-49E2-8DE7-30304959F2B2";
width = 600;
}
);
},
{
glyphname = bNukta;
lastChange = "2016-02-13 20:08:08 +0000";
layers = (
{
layerId = "F2EBC5D5-DDE2-4851-B52F-F2293ECE9CC7";
paths = (
{
closed = 1;
nodes = (
"22 39 OFFCURVE",
"40 57 OFFCURVE",
"40 79 CURVE SMOOTH",
"40 101 OFFCURVE",
"22 119 OFFCURVE",
"0 119 CURVE SMOOTH",
"-22 119 OFFCURVE",
"-40 101 OFFCURVE",
"-40 79 CURVE SMOOTH",
"-40 57 OFFCURVE",
"-22 39 OFFCURVE",
"0 39 CURVE SMOOTH"
);
}
);
width = 0;
},
{
layerId = "A309AC34-D742-49E2-8DE7-30304959F2B2";
paths = (
{
closed = 1;
nodes = (
"36 -50 OFFCURVE",
"65 -21 OFFCURVE",
"65 15 CURVE SMOOTH",
"65 51 OFFCURVE",
"36 80 OFFCURVE",
"0 80 CURVE SMOOTH",
"-36 80 OFFCURVE",
"-65 51 OFFCURVE",
"-65 15 CURVE SMOOTH",
"-65 -21 OFFCURVE",
"-36 -50 OFFCURVE",
"0 -50 CURVE SMOOTH"
);
}
);
width = 0;
}
);
},
{
glyphname = bAnusvara;
lastChange = "2016-02-13 21:12:39 +0000";
layers = (
{
layerId = "F2EBC5D5-DDE2-4851-B52F-F2293ECE9CC7";
paths = (
{
closed = 1;
nodes = (
"40 455 OFFCURVE",
"85 500 OFFCURVE",
"141 500 CURVE SMOOTH",
"197 500 OFFCURVE",
"242 455 OFFCURVE",
"242 399 CURVE SMOOTH",
"242 343 OFFCURVE",
"197 298 OFFCURVE",
"141 298 CURVE SMOOTH",
"85 298 OFFCURVE",
"40 343 OFFCURVE",
"40 399 CURVE SMOOTH"
);
},
{
closed = 1;
nodes = (
"77 356 OFFCURVE",
"93 339 OFFCURVE",
"118 339 CURVE SMOOTH",
"159 339 OFFCURVE",
"205 381 OFFCURVE",
"205 419 CURVE SMOOTH",
"205 440 OFFCURVE",
"190 457 OFFCURVE",
"165 457 CURVE SMOOTH",
"124 457 OFFCURVE",
"77 414 OFFCURVE",
"77 377 CURVE SMOOTH"
);
},
{
closed = 1;
nodes = (
"51 257 LINE",
"133 218 OFFCURVE",
"203 128 OFFCURVE",
"254 10 CURVE",
"231 -2 LINE",
"187 85 OFFCURVE",
"115 162 OFFCURVE",
"24 202 CURVE"
);
}
);
width = 275;
},
{
layerId = "A309AC34-D742-49E2-8DE7-30304959F2B2";
paths = (
{
closed = 1;
nodes = (
"51 482 OFFCURVE",
"103 530 OFFCURVE",
"169 530 CURVE SMOOTH",
"248 530 OFFCURVE",
"303 463 OFFCURVE",
"303 395 CURVE SMOOTH",
"303 333 OFFCURVE",
"256 281 OFFCURVE",
"186 281 CURVE SMOOTH",
"108 281 OFFCURVE",
"51 347 OFFCURVE",
"51 416 CURVE SMOOTH"
);
},
{
closed = 1;
nodes = (
"123 368 OFFCURVE",
"134 355 OFFCURVE",
"155 355 CURVE SMOOTH",
"189 355 OFFCURVE",
"231 391 OFFCURVE",
"231 423 CURVE SMOOTH",
"231 440 OFFCURVE",
"220 455 OFFCURVE",
"198 455 CURVE SMOOTH",
"164 455 OFFCURVE",
"123 419 OFFCURVE",
"123 386 CURVE SMOOTH"
);
},
{
closed = 1;
nodes = (
"72 277 LINE",
"170 230 OFFCURVE",
"254 149 OFFCURVE",
"328 30 CURVE",
"282 -12 LINE",
"222 61 OFFCURVE",
"139 128 OFFCURVE",
"35 162 CURVE"
);
}
);
width = 345;
}
);
},
{
glyphname = bVisarga;
lastChange = "2016-02-13 21:12:57 +0000";
layers = (
{
layerId = "F2EBC5D5-DDE2-4851-B52F-F2293ECE9CC7";
paths = (
{
closed = 1;
nodes = (
"70 455 OFFCURVE",
"115 500 OFFCURVE",
"171 500 CURVE SMOOTH",
"227 500 OFFCURVE",
"272 455 OFFCURVE",
"272 399 CURVE SMOOTH",
"272 343 OFFCURVE",
"227 298 OFFCURVE",
"171 298 CURVE SMOOTH",
"115 298 OFFCURVE",
"70 343 OFFCURVE",
"70 399 CURVE SMOOTH"
);
},
{
closed = 1;
nodes = (
"107 356 OFFCURVE",
"123 339 OFFCURVE",
"148 339 CURVE SMOOTH",
"189 339 OFFCURVE",
"235 381 OFFCURVE",
"235 419 CURVE SMOOTH",
"235 440 OFFCURVE",
"220 457 OFFCURVE",
"195 457 CURVE SMOOTH",
"154 457 OFFCURVE",
"107 414 OFFCURVE",
"107 377 CURVE SMOOTH"
);
},
{
closed = 1;
nodes = (
"70 157 OFFCURVE",
"115 202 OFFCURVE",
"171 202 CURVE SMOOTH",
"227 202 OFFCURVE",
"272 157 OFFCURVE",
"272 101 CURVE SMOOTH",
"272 45 OFFCURVE",
"227 0 OFFCURVE",
"171 0 CURVE SMOOTH",
"115 0 OFFCURVE",
"70 45 OFFCURVE",
"70 101 CURVE SMOOTH"
);
},
{
closed = 1;
nodes = (
"107 58 OFFCURVE",
"123 41 OFFCURVE",
"148 41 CURVE SMOOTH",
"189 41 OFFCURVE",
"235 83 OFFCURVE",
"235 121 CURVE SMOOTH",
"235 142 OFFCURVE",
"220 159 OFFCURVE",
"195 159 CURVE SMOOTH",
"154 159 OFFCURVE",
"107 116 OFFCURVE",
"107 79 CURVE SMOOTH"
);
}
);
width = 342;
},
{
layerId = "A309AC34-D742-49E2-8DE7-30304959F2B2";
paths = (
{
closed = 1;
nodes = (
"51 482 OFFCURVE",
"103 530 OFFCURVE",
"169 530 CURVE SMOOTH",
"248 530 OFFCURVE",
"303 463 OFFCURVE",
"303 395 CURVE SMOOTH",
"303 333 OFFCURVE",
"256 281 OFFCURVE",
"186 281 CURVE SMOOTH",
"108 281 OFFCURVE",
"51 347 OFFCURVE",
"51 416 CURVE SMOOTH"
);
},
{
closed = 1;
nodes = (
"123 368 OFFCURVE",
"134 355 OFFCURVE",
"155 355 CURVE SMOOTH",
"189 355 OFFCURVE",
"231 391 OFFCURVE",
"231 423 CURVE SMOOTH",
"231 440 OFFCURVE",
"220 455 OFFCURVE",
"198 455 CURVE SMOOTH",
"164 455 OFFCURVE",
"123 419 OFFCURVE",
"123 386 CURVE SMOOTH"
);
},
{
closed = 1;
nodes = (
"51 192 OFFCURVE",
"103 240 OFFCURVE",
"169 240 CURVE SMOOTH",
"248 240 OFFCURVE",
"303 173 OFFCURVE",
"303 105 CURVE SMOOTH",
"303 43 OFFCURVE",
"256 -9 OFFCURVE",
"186 -9 CURVE SMOOTH",
"108 -9 OFFCURVE",
"51 57 OFFCURVE",
"51 126 CURVE SMOOTH"
);
},
{
closed = 1;
nodes = (
"123 78 OFFCURVE",
"134 65 OFFCURVE",
"155 65 CURVE SMOOTH",
"189 65 OFFCURVE",
"231 101 OFFCURVE",
"231 133 CURVE SMOOTH",
"231 150 OFFCURVE",
"220 165 OFFCURVE",
"198 165 CURVE SMOOTH",
"164 165 OFFCURVE",
"123 129 OFFCURVE",
"123 96 CURVE SMOOTH"
);
}
);
width = 354;
}
);
},
{
glyphname = bGa_bSignU;
lastChange = "2016-02-13 20:11:57 +0000";
layers = (
{
layerId = "F2EBC5D5-DDE2-4851-B52F-F2293ECE9CC7";
paths = (
{
closed = 1;
nodes = (
"368 317 CURVE",
"346 317 LINE",
"331 402 OFFCURVE",
"292 444 OFFCURVE",
"241 444 CURVE SMOOTH",
"189 444 OFFCURVE",
"160 402 OFFCURVE",
"161 350 CURVE",
"139 365 LINE",
"162 385 OFFCURVE",
"188 396 OFFCURVE",
"213 396 CURVE SMOOTH",
"259 396 OFFCURVE",
"295 359 OFFCURVE",
"295 309 CURVE SMOOTH",
"295 267 OFFCURVE",
"268 223 OFFCURVE",
"224 196 CURVE",
"179 244 LINE",
"224 262 OFFCURVE",
"265 299 OFFCURVE",
"265 326 CURVE SMOOTH",
"265 341 OFFCURVE",
"253 350 OFFCURVE",
"234 350 CURVE SMOOTH",
"205 350 OFFCURVE",
"163 329 OFFCURVE",
"130 297 CURVE",
"115 319 OFFCURVE",
"106 341 OFFCURVE",
"106 371 CURVE SMOOTH",
"106 444 OFFCURVE",
"159 500 OFFCURVE",
"224 500 CURVE SMOOTH",
"300 500 OFFCURVE",
"353 421 OFFCURVE"
);
},
{
closed = 1;
nodes = (
"39 365 LINE",
"131 164 OFFCURVE",
"254 58 OFFCURVE",
"367 58 CURVE SMOOTH",
"436 58 OFFCURVE",
"482 98 OFFCURVE",
"482 147 CURVE SMOOTH",
"482 185 OFFCURVE",
"454 212 OFFCURVE",
"423 222 CURVE",
"474 215 LINE",
"451 179 OFFCURVE",
"421 158 OFFCURVE",
"389 158 CURVE SMOOTH",
"355 158 OFFCURVE",
"330 181 OFFCURVE",
"330 212 CURVE SMOOTH",
"330 242 OFFCURVE",
"353 264 OFFCURVE",
"388 264 CURVE SMOOTH",
"450 264 OFFCURVE",
"518 195 OFFCURVE",
"518 120 CURVE SMOOTH",
"518 54 OFFCURVE",
"466 0 OFFCURVE",
"380 0 CURVE SMOOTH",
"258 0 OFFCURVE",
"123 110 OFFCURVE",
"15 352 CURVE"
);
},
{
closed = 1;
nodes = (
"350 444 OFFCURVE",
"370 475 OFFCURVE",
"405 508 CURVE",
"453 381 OFFCURVE",
"514 351 OFFCURVE",
"514 289 CURVE SMOOTH",
"514 241 OFFCURVE",
"478 208 OFFCURVE",
"444 187 CURVE",
"401 238 LINE",
"449 254 OFFCURVE",
"468 281 OFFCURVE",
"468 310 CURVE SMOOTH",
"468 348 OFFCURVE",
"437 373 OFFCURVE",
"411 430 CURVE",
"432 429 LINE",
"412 409 OFFCURVE",
"374 342 OFFCURVE",
"368 317 CURVE",
"330 403 LINE"
);
}
);
width = 553;
},
{
layerId = "A309AC34-D742-49E2-8DE7-30304959F2B2";
paths = (
{
closed = 1;
nodes = (
"323 530 OFFCURVE",
"393 436 OFFCURVE",
"412 307 CURVE",
"370 307 LINE",
"352 389 OFFCURVE",
"317 434 OFFCURVE",
"266 434 CURVE SMOOTH",
"219 434 OFFCURVE",
"194 396 OFFCURVE",
"195 350 CURVE",
"133 375 LINE",
"162 400 OFFCURVE",
"195 413 OFFCURVE",
"225 413 CURVE SMOOTH",
"291 413 OFFCURVE",
"339 350 OFFCURVE",
"339 289 CURVE SMOOTH",
"339 236 OFFCURVE",
"303 191 OFFCURVE",
"250 163 CURVE",
"172 249 LINE",
"221 266 OFFCURVE",
"269 300 OFFCURVE",
"269 323 CURVE SMOOTH",
"269 331 OFFCURVE",
"262 337 OFFCURVE",
"248 337 CURVE SMOOTH",
"221 337 OFFCURVE",
"172 314 OFFCURVE",
"134 287 CURVE",
"112 319 OFFCURVE",
"100 356 OFFCURVE",
"100 392 CURVE SMOOTH",
"100 471 OFFCURVE",
"156 530 OFFCURVE",
"230 530 CURVE SMOOTH"
);
},
{
closed = 1;
nodes = (
"54 377 LINE",
"160 152 OFFCURVE",
"278 86 OFFCURVE",
"374 86 CURVE SMOOTH",
"433 86 OFFCURVE",
"483 112 OFFCURVE",
"483 154 CURVE SMOOTH",
"483 172 OFFCURVE",
"474 187 OFFCURVE",
"463 198 CURVE",
"514 205 LINE",
"490 170 OFFCURVE",
"452 148 OFFCURVE",
"417 148 CURVE SMOOTH",
"377 148 OFFCURVE",
"346 176 OFFCURVE",
"346 214 CURVE SMOOTH",
"346 253 OFFCURVE",
"377 280 OFFCURVE",
"418 280 CURVE SMOOTH",
"492 280 OFFCURVE",
"567 194 OFFCURVE",
"567 113 CURVE SMOOTH",
"567 40 OFFCURVE",
"507 -23 OFFCURVE",
"401 -23 CURVE SMOOTH",
"255 -23 OFFCURVE",
"110 97 OFFCURVE",
"0 350 CURVE"
);
},
{
closed = 1;
nodes = (
"362 456 OFFCURVE",
"390 496 OFFCURVE",
"439 538 CURVE",
"489 410 OFFCURVE",
"560 358 OFFCURVE",
"560 293 CURVE SMOOTH",
"560 240 OFFCURVE",
"514 197 OFFCURVE",
"480 177 CURVE",
"405 239 LINE",
"460 269 OFFCURVE",
"482 297 OFFCURVE",
"482 329 CURVE SMOOTH",
"482 370 OFFCURVE",
"447 396 OFFCURVE",
"421 460 CURVE",
"486 429 LINE",
"463 407 OFFCURVE",
"422 346 OFFCURVE",
"412 307 CURVE",
"334 403 LINE"
);
}
);
width = 597;
}
);
},
{
glyphname = bGRa_bSignU;
lastChange = "2016-02-13 20:12:07 +0000";
layers = (
{
layerId = "F2EBC5D5-DDE2-4851-B52F-F2293ECE9CC7";
paths = (
{
closed = 1;
nodes = (
"644 491 LINE",
"644 456 LINE",
"424 456 LINE",
"424 70 LINE",
"384 70 LINE",
"384 284 LINE SMOOTH",
"384 374 OFFCURVE",
"316 447 OFFCURVE",
"233 447 CURVE SMOOTH",
"172 447 OFFCURVE",
"130 408 OFFCURVE",
"130 362 CURVE SMOOTH",
"130 350 OFFCURVE",
"133 337 OFFCURVE",
"140 324 CURVE",
"113 349 LINE",
"143 379 OFFCURVE",
"182 393 OFFCURVE",
"212 393 CURVE SMOOTH",
"272 393 OFFCURVE",
"304 339 OFFCURVE",
"304 294 CURVE SMOOTH",
"304 247 OFFCURVE",
"270 204 OFFCURVE",
"213 161 CURVE",
"164 203 LINE",
"238 247 OFFCURVE",
"270 289 OFFCURVE",
"270 318 CURVE SMOOTH",
"270 337 OFFCURVE",
"256 347 OFFCURVE",
"235 347 CURVE SMOOTH",
"188 347 OFFCURVE",
"154 295 OFFCURVE",
"116 295 CURVE SMOOTH",
"90 295 OFFCURVE",
"67 321 OFFCURVE",
"67 364 CURVE SMOOTH",
"67 437 OFFCURVE",
"132 500 OFFCURVE",
"216 500 CURVE SMOOTH",
"304 500 OFFCURVE",
"376 431 OFFCURVE",
"403 336 CURVE",
"384 334 LINE",
"384 491 LINE"
);
},
{
closed = 1;
nodes = (
"424 218 LINE",
"424 0 LINE",
"399 0 LINE",
"392 40 OFFCURVE",
"370 76 OFFCURVE",
"326 76 CURVE SMOOTH",
"295 76 OFFCURVE",
"219 59 OFFCURVE",
"177 59 CURVE SMOOTH",
"99 59 OFFCURVE",
"38 118 OFFCURVE",
"38 193 CURVE SMOOTH",
"38 218 OFFCURVE",
"45 246 OFFCURVE",
"57 268 CURVE",
"75 259 LINE",
"68 243 OFFCURVE",
"65 218 OFFCURVE",
"65 202 CURVE SMOOTH",
"65 144 OFFCURVE",
"101 116 OFFCURVE",
"158 116 CURVE SMOOTH",
"192 116 OFFCURVE",
"255 126 OFFCURVE",
"287 126 CURVE SMOOTH",
"345 126 OFFCURVE",
"387 93 OFFCURVE",
"403 41 CURVE",
"384 54 LINE",
"384 218 LINE"
);
},
{
closed = 1;
nodes = (
"417 320 LINE",
"438 272 OFFCURVE",
"477 242 OFFCURVE",
"514 242 CURVE SMOOTH",
"550 242 OFFCURVE",
"580 270 OFFCURVE",
"580 307 CURVE SMOOTH",
"580 335 OFFCURVE",
"562 356 OFFCURVE",
"541 356 CURVE SMOOTH",
"536 356 OFFCURVE",
"532 355 OFFCURVE",
"528 353 CURVE",
"537 366 LINE",
"548 362 OFFCURVE",
"555 350 OFFCURVE",
"555 336 CURVE SMOOTH",
"555 315 OFFCURVE",
"539 296 OFFCURVE",
"514 296 CURVE SMOOTH",
"490 296 OFFCURVE",
"469 315 OFFCURVE",
"469 341 CURVE SMOOTH",
"469 369 OFFCURVE",
"492 391 OFFCURVE",
"523 391 CURVE SMOOTH",
"570 391 OFFCURVE",
"609 343 OFFCURVE",
"609 286 CURVE SMOOTH",
"609 230 OFFCURVE",
"572 188 OFFCURVE",
"524 188 CURVE SMOOTH",
"476 188 OFFCURVE",
"435 230 OFFCURVE",
"409 294 CURVE"
);
}
);
width = 634;
},
{
layerId = "A309AC34-D742-49E2-8DE7-30304959F2B2";
paths = (
{
closed = 1;
nodes = (
"746 521 LINE",
"746 456 LINE",
"476 456 LINE",
"476 50 LINE",
"396 50 LINE",
"396 244 LINE SMOOTH",
"396 350 OFFCURVE",
"341 437 OFFCURVE",
"252 437 CURVE SMOOTH",
"192 437 OFFCURVE",
"151 398 OFFCURVE",
"151 348 CURVE SMOOTH",
"151 337 OFFCURVE",
"151 320 OFFCURVE",
"152 307 CURVE",
"105 359 LINE",
"151 389 OFFCURVE",
"184 404 OFFCURVE",
"220 404 CURVE SMOOTH",
"297 404 OFFCURVE",
"341 336 OFFCURVE",
"341 277 CURVE SMOOTH",
"341 222 OFFCURVE",
"303 178 OFFCURVE",
"230 136 CURVE",
"142 216 LINE",
"231 257 OFFCURVE",
"266 297 OFFCURVE",
"266 314 CURVE SMOOTH",
"266 319 OFFCURVE",
"263 326 OFFCURVE",
"252 326 CURVE SMOOTH",
"224 326 OFFCURVE",
"182 282 OFFCURVE",
"136 282 CURVE SMOOTH",
"95 282 OFFCURVE",
"52 316 OFFCURVE",
"52 381 CURVE SMOOTH",
"52 463 OFFCURVE",
"121 530 OFFCURVE",
"218 530 CURVE SMOOTH",
"336 530 OFFCURVE",
"411 431 OFFCURVE",
"445 296 CURVE",
"396 294 LINE",
"396 521 LINE"
);
},
{
closed = 1;
nodes = (
"470 320 LINE",
"493 259 OFFCURVE",
"536 238 OFFCURVE",
"571 238 CURVE SMOOTH",
"609 238 OFFCURVE",
"636 262 OFFCURVE",
"636 292 CURVE SMOOTH",
"636 311 OFFCURVE",
"626 326 OFFCURVE",
"608 326 CURVE SMOOTH",
"603 326 OFFCURVE",
"595 325 OFFCURVE",
"588 323 CURVE",
"617 356 LINE",
"622 350 OFFCURVE",
"625 339 OFFCURVE",
"625 329 CURVE SMOOTH",
"625 301 OFFCURVE",
"602 278 OFFCURVE",
"571 278 CURVE SMOOTH",
"537 278 OFFCURVE",
"509 304 OFFCURVE",
"509 339 CURVE SMOOTH",
"509 374 OFFCURVE",
"537 401 OFFCURVE",
"577 401 CURVE SMOOTH",
"638 401 OFFCURVE",
"690 337 OFFCURVE",
"690 264 CURVE SMOOTH",
"690 196 OFFCURVE",
"644 148 OFFCURVE",
"585 148 CURVE SMOOTH",
"524 148 OFFCURVE",
"473 199 OFFCURVE",
"442 294 CURVE"
);
},
{
closed = 1;
nodes = (
"476 143 LINE",
"476 -40 LINE",
"416 -40 LINE",
"414 0 OFFCURVE",
"396 25 OFFCURVE",
"339 25 CURVE SMOOTH",
"303 25 OFFCURVE",
"238 15 OFFCURVE",
"197 15 CURVE SMOOTH",
"92 15 OFFCURVE",
"20 83 OFFCURVE",
"20 174 CURVE SMOOTH",
"20 202 OFFCURVE",
"27 236 OFFCURVE",
"42 263 CURVE",
"87 244 LINE",
"79 226 OFFCURVE",
"73 202 OFFCURVE",
"73 181 CURVE SMOOTH",
"73 133 OFFCURVE",
"104 109 OFFCURVE",
"165 109 CURVE SMOOTH",
"195 109 OFFCURVE",
"267 115 OFFCURVE",
"293 115 CURVE SMOOTH",
"363 115 OFFCURVE",
"414 71 OFFCURVE",
"437 -7 CURVE",
"406 41 LINE",
"406 143 LINE"
);
}
);
width = 716;
}
);
},
{
glyphname = bGRa_bSignUu;
lastChange = "2016-02-13 20:12:15 +0000";
layers = (
{
layerId = "F2EBC5D5-DDE2-4851-B52F-F2293ECE9CC7";
paths = (
{
closed = 1;
nodes = (
"632 491 LINE",
"632 456 LINE",
"424 456 LINE",
"424 70 LINE",
"384 70 LINE",
"384 284 LINE SMOOTH",
"384 374 OFFCURVE",
"316 447 OFFCURVE",
"233 447 CURVE SMOOTH",
"172 447 OFFCURVE",
"130 408 OFFCURVE",
"130 362 CURVE SMOOTH",
"130 350 OFFCURVE",
"133 337 OFFCURVE",
"140 324 CURVE",
"113 349 LINE",
"143 379 OFFCURVE",
"182 393 OFFCURVE",
"212 393 CURVE SMOOTH",
"272 393 OFFCURVE",
"304 339 OFFCURVE",
"304 294 CURVE SMOOTH",
"304 247 OFFCURVE",
"270 204 OFFCURVE",
"213 161 CURVE",
"164 203 LINE",
"238 247 OFFCURVE",
"270 289 OFFCURVE",
"270 318 CURVE SMOOTH",
"270 337 OFFCURVE",
"256 347 OFFCURVE",
"235 347 CURVE SMOOTH",
"188 347 OFFCURVE",
"154 295 OFFCURVE",
"116 295 CURVE SMOOTH",
"90 295 OFFCURVE",
"67 321 OFFCURVE",
"67 364 CURVE SMOOTH",
"67 437 OFFCURVE",
"132 500 OFFCURVE",
"216 500 CURVE SMOOTH",
"304 500 OFFCURVE",
"376 431 OFFCURVE",
"403 336 CURVE",
"384 334 LINE",
"384 491 LINE"
);
},
{
closed = 1;
nodes = (
"424 218 LINE",
"424 0 LINE",
"399 0 LINE",
"392 40 OFFCURVE",
"370 76 OFFCURVE",
"326 76 CURVE SMOOTH",
"295 76 OFFCURVE",
"219 59 OFFCURVE",
"177 59 CURVE SMOOTH",
"99 59 OFFCURVE",
"38 118 OFFCURVE",
"38 193 CURVE SMOOTH",
"38 218 OFFCURVE",
"45 246 OFFCURVE",
"57 268 CURVE",
"75 259 LINE",
"68 243 OFFCURVE",
"65 218 OFFCURVE",
"65 202 CURVE SMOOTH",
"65 144 OFFCURVE",
"101 116 OFFCURVE",
"158 116 CURVE SMOOTH",
"192 116 OFFCURVE",
"255 126 OFFCURVE",
"287 126 CURVE SMOOTH",
"345 126 OFFCURVE",
"387 93 OFFCURVE",
"403 41 CURVE",
"384 54 LINE",
"384 218 LINE"
);
},
{
closed = 1;
nodes = (
"403 347 LINE",
"436 377 OFFCURVE",
"472 392 OFFCURVE",
"490 392 CURVE SMOOTH",
"520 392 OFFCURVE",
"557 352 OFFCURVE",
"557 315 CURVE SMOOTH",
"557 102 LINE SMOOTH",
"557 74 OFFCURVE",
"567 50 OFFCURVE",
"585 32 CURVE",
"574 15 LINE",
"540 39 OFFCURVE",
"517 67 OFFCURVE",
"517 122 CURVE SMOOTH",
"517 336 LINE SMOOTH",
"517 347 OFFCURVE",
"513 351 OFFCURVE",
"506 351 CURVE SMOOTH",
"487 351 OFFCURVE",
"447 331 OFFCURVE",
"416 304 CURVE"
);
}
);
width = 622;
},
{
layerId = "A309AC34-D742-49E2-8DE7-30304959F2B2";
paths = (
{
closed = 1;
nodes = (
"693 521 LINE",
"693 456 LINE",
"476 456 LINE",
"476 50 LINE",
"396 50 LINE",
"396 244 LINE SMOOTH",
"396 350 OFFCURVE",
"341 437 OFFCURVE",
"252 437 CURVE SMOOTH",
"192 437 OFFCURVE",
"151 398 OFFCURVE",
"151 348 CURVE SMOOTH",
"151 337 OFFCURVE",
"151 320 OFFCURVE",
"152 307 CURVE",
"105 359 LINE",
"151 389 OFFCURVE",
"184 404 OFFCURVE",
"220 404 CURVE SMOOTH",
"297 404 OFFCURVE",
"341 336 OFFCURVE",
"341 277 CURVE SMOOTH",
"341 222 OFFCURVE",
"303 178 OFFCURVE",
"230 136 CURVE",
"142 216 LINE",
"231 257 OFFCURVE",
"266 297 OFFCURVE",
"266 314 CURVE SMOOTH",
"266 319 OFFCURVE",
"263 326 OFFCURVE",
"252 326 CURVE SMOOTH",
"224 326 OFFCURVE",
"182 282 OFFCURVE",
"136 282 CURVE SMOOTH",
"95 282 OFFCURVE",
"52 316 OFFCURVE",
"52 381 CURVE SMOOTH",
"52 463 OFFCURVE",
"121 530 OFFCURVE",
"218 530 CURVE SMOOTH",
"336 530 OFFCURVE",
"411 431 OFFCURVE",
"445 296 CURVE",
"396 294 LINE",
"396 521 LINE"
);
},
{
closed = 1;
nodes = (
"432 353 LINE",
"466 386 OFFCURVE",
"502 402 OFFCURVE",
"523 402 CURVE SMOOTH",
"566 402 OFFCURVE",
"623 329 OFFCURVE",
"623 275 CURVE SMOOTH",
"623 82 LINE SMOOTH",
"623 59 OFFCURVE",
"634 39 OFFCURVE",
"653 24 CURVE",
"625 -15 LINE",
"578 11 OFFCURVE",
"546 42 OFFCURVE",
"546 102 CURVE SMOOTH",
"546 299 LINE SMOOTH",
"546 310 OFFCURVE",
"543 315 OFFCURVE",
"537 315 CURVE SMOOTH",
"524 315 OFFCURVE",
"490 294 OFFCURVE",
"467 269 CURVE"
);
},
{
closed = 1;
nodes = (
"476 143 LINE",
"476 -40 LINE",
"416 -40 LINE",
"414 0 OFFCURVE",
"396 25 OFFCURVE",
"339 25 CURVE SMOOTH",
"303 25 OFFCURVE",
"238 15 OFFCURVE",
"197 15 CURVE SMOOTH",
"92 15 OFFCURVE",
"20 83 OFFCURVE",
"20 174 CURVE SMOOTH",
"20 202 OFFCURVE",
"27 236 OFFCURVE",
"42 263 CURVE",
"87 244 LINE",
"79 226 OFFCURVE",
"73 202 OFFCURVE",
"73 181 CURVE SMOOTH",
"73 133 OFFCURVE",
"104 109 OFFCURVE",
"165 109 CURVE SMOOTH",
"195 109 OFFCURVE",
"267 115 OFFCURVE",
"293 115 CURVE SMOOTH",
"363 115 OFFCURVE",
"414 71 OFFCURVE",
"437 -7 CURVE",
"406 41 LINE",
"406 143 LINE"
);
}
);
width = 663;
}
);
},
{
glyphname = bTRa_bSignU;
lastChange = "2016-02-13 20:12:34 +0000";
layers = (
{
layerId = "F2EBC5D5-DDE2-4851-B52F-F2293ECE9CC7";
paths = (
{
closed = 1;
nodes = (
"-10 491 LINE",
"614 491 LINE",
"614 456 LINE",
"-10 456 LINE"
);
},
{
closed = 1;
nodes = (
"22 239 OFFCURVE",
"34 274 OFFCURVE",
"58 306 CURVE",
"78 294 LINE",
"61 272 OFFCURVE",
"51 242 OFFCURVE",
"51 213 CURVE SMOOTH",
"51 161 OFFCURVE",
"82 119 OFFCURVE",
"145 119 CURVE SMOOTH",
"176 119 OFFCURVE",
"239 129 OFFCURVE",
"265 129 CURVE SMOOTH",
"312 129 OFFCURVE",
"350 98 OFFCURVE",
"365 53 CURVE",
"354 61 LINE",
"354 358 LINE SMOOTH",
"354 382 OFFCURVE",
"344 397 OFFCURVE",
"326 397 CURVE SMOOTH",
"286 397 OFFCURVE",
"206 318 OFFCURVE",
"206 270 CURVE SMOOTH",
"206 262 OFFCURVE",
"208 254 OFFCURVE",
"211 245 CURVE",
"195 260 LINE",
"202 274 OFFCURVE",
"218 287 OFFCURVE",
"240 287 CURVE SMOOTH",
"268 287 OFFCURVE",
"294 266 OFFCURVE",
"294 234 CURVE SMOOTH",
"294 201 OFFCURVE",
"268 176 OFFCURVE",
"230 176 CURVE SMOOTH",
"184 176 OFFCURVE",
"147 211 OFFCURVE",
"147 263 CURVE SMOOTH",
"147 345 OFFCURVE",
"242 439 OFFCURVE",
"306 439 CURVE SMOOTH",
"354 439 OFFCURVE",
"394 387 OFFCURVE",
"394 343 CURVE SMOOTH",
"394 -20 LINE",
"369 -20 LINE",
"363 45 OFFCURVE",
"339 72 OFFCURVE",
"294 72 CURVE SMOOTH",
"266 72 OFFCURVE",
"205 61 OFFCURVE",
"170 61 CURVE SMOOTH",
"86 61 OFFCURVE",
"22 122 OFFCURVE",
"22 203 CURVE SMOOTH"
);
},
{
closed = 1;
nodes = (
"387 300 LINE",
"408 252 OFFCURVE",
"447 222 OFFCURVE",
"484 222 CURVE SMOOTH",
"520 222 OFFCURVE",
"550 250 OFFCURVE",
"550 287 CURVE SMOOTH",
"550 315 OFFCURVE",
"532 336 OFFCURVE",
"511 336 CURVE SMOOTH",
"506 336 OFFCURVE",
"502 335 OFFCURVE",
"498 333 CURVE",
"507 346 LINE",
"518 342 OFFCURVE",
"525 330 OFFCURVE",
"525 316 CURVE SMOOTH",
"525 295 OFFCURVE",
"509 276 OFFCURVE",
"484 276 CURVE SMOOTH",
"460 276 OFFCURVE",
"439 295 OFFCURVE",
"439 321 CURVE SMOOTH",
"439 349 OFFCURVE",
"462 371 OFFCURVE",
"493 371 CURVE SMOOTH",
"540 371 OFFCURVE",
"579 323 OFFCURVE",
"579 266 CURVE SMOOTH",
"579 210 OFFCURVE",
"542 168 OFFCURVE",
"494 168 CURVE SMOOTH",
"446 168 OFFCURVE",
"405 210 OFFCURVE",
"379 274 CURVE"
);
}
);
width = 604;
},
{
layerId = "A309AC34-D742-49E2-8DE7-30304959F2B2";
paths = (
{
closed = 1;
nodes = (
"11 231 OFFCURVE",
"24 273 OFFCURVE",
"50 312 CURVE",
"95 288 LINE",
"81 262 OFFCURVE",
"70 226 OFFCURVE",
"70 195 CURVE SMOOTH",
"70 141 OFFCURVE",
"103 119 OFFCURVE",
"156 119 CURVE SMOOTH",
"183 119 OFFCURVE",
"249 125 OFFCURVE",
"274 125 CURVE SMOOTH",
"349 125 OFFCURVE",
"397 72 OFFCURVE",
"418 -2 CURVE",
"377 46 LINE",
"377 338 LINE SMOOTH",
"377 349 OFFCURVE",
"372 358 OFFCURVE",
"361 358 CURVE SMOOTH",
"333 358 OFFCURVE",
"253 288 OFFCURVE",
"253 236 CURVE SMOOTH",
"253 226 OFFCURVE",
"256 210 OFFCURVE",
"260 201 CURVE",
"200 248 LINE",
"210 270 OFFCURVE",
"237 288 OFFCURVE",
"264 288 CURVE SMOOTH",
"300 288 OFFCURVE",
"330 257 OFFCURVE",
"330 220 CURVE SMOOTH",
"330 181 OFFCURVE",
"298 150 OFFCURVE",
"249 150 CURVE SMOOTH",
"191 150 OFFCURVE",
"145 194 OFFCURVE",
"145 256 CURVE SMOOTH",
"145 348 OFFCURVE",
"247 440 OFFCURVE",
"322 440 CURVE SMOOTH",
"392 440 OFFCURVE",
"457 361 OFFCURVE",
"457 293 CURVE SMOOTH",
"457 -35 LINE",
"397 -35 LINE",
"395 6 OFFCURVE",
"373 28 OFFCURVE",
"320 28 CURVE SMOOTH",
"284 28 OFFCURVE",
"227 18 OFFCURVE",
"188 18 CURVE SMOOTH",
"82 18 OFFCURVE",
"11 90 OFFCURVE",
"11 189 CURVE SMOOTH"
);
},
{
closed = 1;
nodes = (
"-30 521 LINE",
"727 521 LINE",
"727 456 LINE",
"-30 456 LINE"
);
},
{
closed = 1;
nodes = (
"451 300 LINE",
"474 239 OFFCURVE",
"517 218 OFFCURVE",
"552 218 CURVE SMOOTH",
"590 218 OFFCURVE",
"617 242 OFFCURVE",
"617 272 CURVE SMOOTH",
"617 291 OFFCURVE",
"607 306 OFFCURVE",
"589 306 CURVE SMOOTH",
"584 306 OFFCURVE",
"576 305 OFFCURVE",
"569 303 CURVE",
"598 336 LINE",
"603 330 OFFCURVE",
"606 319 OFFCURVE",
"606 309 CURVE SMOOTH",
"606 281 OFFCURVE",
"583 258 OFFCURVE",
"552 258 CURVE SMOOTH",
"518 258 OFFCURVE",
"490 284 OFFCURVE",
"490 319 CURVE SMOOTH",
"490 354 OFFCURVE",
"518 381 OFFCURVE",
"558 381 CURVE SMOOTH",
"619 381 OFFCURVE",
"671 317 OFFCURVE",
"671 244 CURVE SMOOTH",
"671 176 OFFCURVE",
"625 128 OFFCURVE",
"566 128 CURVE SMOOTH",
"505 128 OFFCURVE",
"454 179 OFFCURVE",
"423 274 CURVE"
);
}
);
width = 697;
}
);
},
{
glyphname = bTRa_bSignUu;
lastChange = "2016-02-13 20:12:48 +0000";
layers = (
{
layerId = "F2EBC5D5-DDE2-4851-B52F-F2293ECE9CC7";
paths = (
{
closed = 1;
nodes = (
"-10 491 LINE",
"602 491 LINE",
"602 456 LINE",
"-10 456 LINE"
);
},
{
closed = 1;
nodes = (
"22 239 OFFCURVE",
"34 274 OFFCURVE",
"58 306 CURVE",
"78 294 LINE",
"61 272 OFFCURVE",
"51 242 OFFCURVE",
"51 213 CURVE SMOOTH",
"51 161 OFFCURVE",
"82 119 OFFCURVE",
"145 119 CURVE SMOOTH",
"176 119 OFFCURVE",
"239 129 OFFCURVE",
"265 129 CURVE SMOOTH",
"312 129 OFFCURVE",
"350 98 OFFCURVE",
"365 53 CURVE",
"354 61 LINE",
"354 358 LINE SMOOTH",
"354 382 OFFCURVE",
"344 397 OFFCURVE",
"326 397 CURVE SMOOTH",
"286 397 OFFCURVE",
"206 318 OFFCURVE",
"206 270 CURVE SMOOTH",
"206 262 OFFCURVE",
"208 254 OFFCURVE",
"211 245 CURVE",
"195 260 LINE",
"202 274 OFFCURVE",
"218 287 OFFCURVE",
"240 287 CURVE SMOOTH",
"268 287 OFFCURVE",
"294 266 OFFCURVE",
"294 234 CURVE SMOOTH",
"294 201 OFFCURVE",
"268 176 OFFCURVE",
"230 176 CURVE SMOOTH",
"184 176 OFFCURVE",
"147 211 OFFCURVE",
"147 263 CURVE SMOOTH",
"147 345 OFFCURVE",
"242 439 OFFCURVE",
"306 439 CURVE SMOOTH",
"354 439 OFFCURVE",
"394 387 OFFCURVE",
"394 343 CURVE SMOOTH",
"394 -20 LINE",
"369 -20 LINE",
"363 45 OFFCURVE",
"339 72 OFFCURVE",
"294 72 CURVE SMOOTH",
"266 72 OFFCURVE",
"205 61 OFFCURVE",
"170 61 CURVE SMOOTH",
"86 61 OFFCURVE",
"22 122 OFFCURVE",
"22 203 CURVE SMOOTH"
);
},
{
closed = 1;
nodes = (
"373 327 LINE",
"406 357 OFFCURVE",
"442 372 OFFCURVE",
"460 372 CURVE SMOOTH",
"490 372 OFFCURVE",
"527 332 OFFCURVE",
"527 295 CURVE SMOOTH",
"527 82 LINE SMOOTH",
"527 54 OFFCURVE",
"537 30 OFFCURVE",
"555 12 CURVE",
"544 -5 LINE",
"510 19 OFFCURVE",
"487 47 OFFCURVE",
"487 102 CURVE SMOOTH",
"487 316 LINE SMOOTH",
"487 327 OFFCURVE",
"483 331 OFFCURVE",
"476 331 CURVE SMOOTH",
"457 331 OFFCURVE",
"417 311 OFFCURVE",
"386 284 CURVE"
);
}
);
width = 592;
},
{
layerId = "A309AC34-D742-49E2-8DE7-30304959F2B2";
paths = (
{
closed = 1;
nodes = (
"11 231 OFFCURVE",
"24 273 OFFCURVE",
"50 312 CURVE",
"95 288 LINE",
"81 262 OFFCURVE",
"70 226 OFFCURVE",
"70 195 CURVE SMOOTH",
"70 141 OFFCURVE",
"103 119 OFFCURVE",
"156 119 CURVE SMOOTH",
"183 119 OFFCURVE",
"249 125 OFFCURVE",
"274 125 CURVE SMOOTH",
"349 125 OFFCURVE",
"397 72 OFFCURVE",
"418 -2 CURVE",
"377 46 LINE",
"377 338 LINE SMOOTH",
"377 349 OFFCURVE",
"372 358 OFFCURVE",
"361 358 CURVE SMOOTH",
"333 358 OFFCURVE",
"253 288 OFFCURVE",
"253 236 CURVE SMOOTH",
"253 226 OFFCURVE",
"256 210 OFFCURVE",
"260 201 CURVE",
"200 248 LINE",
"210 270 OFFCURVE",
"237 288 OFFCURVE",
"264 288 CURVE SMOOTH",
"300 288 OFFCURVE",
"330 257 OFFCURVE",
"330 220 CURVE SMOOTH",
"330 181 OFFCURVE",
"298 150 OFFCURVE",
"249 150 CURVE SMOOTH",
"191 150 OFFCURVE",
"145 194 OFFCURVE",
"145 256 CURVE SMOOTH",
"145 348 OFFCURVE",
"247 440 OFFCURVE",
"322 440 CURVE SMOOTH",
"392 440 OFFCURVE",
"457 361 OFFCURVE",
"457 293 CURVE SMOOTH",
"457 -35 LINE",
"397 -35 LINE",
"395 6 OFFCURVE",
"373 28 OFFCURVE",
"320 28 CURVE SMOOTH",
"284 28 OFFCURVE",
"227 18 OFFCURVE",
"188 18 CURVE SMOOTH",
"82 18 OFFCURVE",
"11 90 OFFCURVE",
"11 189 CURVE SMOOTH"
);
},
{
closed = 1;
nodes = (
"-30 521 LINE",
"674 521 LINE",
"674 456 LINE",
"-30 456 LINE"
);
},
{
closed = 1;
nodes = (
"413 323 LINE",
"447 356 OFFCURVE",
"483 372 OFFCURVE",
"504 372 CURVE SMOOTH",
"547 372 OFFCURVE",
"604 299 OFFCURVE",
"604 245 CURVE SMOOTH",
"604 72 LINE SMOOTH",
"604 49 OFFCURVE",
"615 29 OFFCURVE",
"634 14 CURVE",
"606 -25 LINE",
"559 1 OFFCURVE",
"527 32 OFFCURVE",
"527 92 CURVE SMOOTH",
"527 269 LINE SMOOTH",
"527 280 OFFCURVE",
"524 285 OFFCURVE",
"518 285 CURVE SMOOTH",
"505 285 OFFCURVE",
"471 264 OFFCURVE",
"448 239 CURVE"
);
}
);
width = 644;
}
);
},
{
glyphname = bThRa_bSignU;
lastChange = "2016-02-13 20:14:26 +0000";
layers = (
{
layerId = "F2EBC5D5-DDE2-4851-B52F-F2293ECE9CC7";
paths = (
{
closed = 1;
nodes = (
"305 312 OFFCURVE",
"258 261 OFFCURVE",
"160 246 CURVE",
"163 269 LINE",
"252 254 OFFCURVE",
"330 191 OFFCURVE",
"365 119 CURVE",
"352 117 LINE",
"352 491 LINE",
"612 491 LINE",
"612 456 LINE",
"392 456 LINE",
"392 45 LINE",
"366 45 LINE",
"344 152 OFFCURVE",
"261 208 OFFCURVE",
"125 225 CURVE",
"78 289 LINE",
"204 289 OFFCURVE",
"268 339 OFFCURVE",
"268 397 CURVE SMOOTH",
"268 432 OFFCURVE",
"244 458 OFFCURVE",
"198 458 CURVE SMOOTH",
"156 458 OFFCURVE",
"126 437 OFFCURVE",
"110 407 CURVE",
"115 426 LINE",
"139 423 OFFCURVE",
"156 404 OFFCURVE",
"156 381 CURVE SMOOTH",
"156 354 OFFCURVE",
"135 333 OFFCURVE",
"107 333 CURVE SMOOTH",
"75 333 OFFCURVE",
"51 361 OFFCURVE",
"51 396 CURVE SMOOTH",
"51 453 OFFCURVE",
"112 500 OFFCURVE",
"180 500 CURVE SMOOTH",
"259 500 OFFCURVE",
"305 437 OFFCURVE",
"305 375 CURVE SMOOTH"
);
},
{
closed = 1;
nodes = (
"392 133 LINE",
"392 -5 LINE",
"371 -5 LINE",
"363 35 OFFCURVE",
"341 66 OFFCURVE",
"297 66 CURVE SMOOTH",
"270 66 OFFCURVE",
"199 54 OFFCURVE",
"163 54 CURVE SMOOTH",
"91 54 OFFCURVE",
"38 102 OFFCURVE",
"38 164 CURVE SMOOTH",
"38 186 OFFCURVE",
"45 209 OFFCURVE",
"55 227 CURVE",
"74 218 LINE",
"68 203 OFFCURVE",
"65 185 OFFCURVE",
"65 172 CURVE SMOOTH",
"65 131 OFFCURVE",
"96 111 OFFCURVE",
"145 111 CURVE SMOOTH",
"169 111 OFFCURVE",
"224 116 OFFCURVE",
"249 116 CURVE SMOOTH",
"311 116 OFFCURVE",
"356 83 OFFCURVE",
"373 32 CURVE",
"366 29 LINE",
"366 133 LINE"
);
},
{
closed = 1;
nodes = (
"385 320 LINE",
"406 272 OFFCURVE",
"445 242 OFFCURVE",
"482 242 CURVE SMOOTH",
"518 242 OFFCURVE",
"548 270 OFFCURVE",
"548 307 CURVE SMOOTH",
"548 335 OFFCURVE",
"530 356 OFFCURVE",
"509 356 CURVE SMOOTH",
"504 356 OFFCURVE",
"500 355 OFFCURVE",
"496 353 CURVE",
"505 366 LINE",
"516 362 OFFCURVE",
"523 350 OFFCURVE",
"523 336 CURVE SMOOTH",
"523 315 OFFCURVE",
"507 296 OFFCURVE",
"482 296 CURVE SMOOTH",
"458 296 OFFCURVE",
"437 315 OFFCURVE",
"437 341 CURVE SMOOTH",
"437 369 OFFCURVE",
"460 391 OFFCURVE",
"491 391 CURVE SMOOTH",
"538 391 OFFCURVE",
"577 343 OFFCURVE",
"577 286 CURVE SMOOTH",
"577 230 OFFCURVE",
"540 188 OFFCURVE",
"492 188 CURVE SMOOTH",
"444 188 OFFCURVE",
"403 230 OFFCURVE",
"377 294 CURVE"
);
}
);
width = 602;
},
{
layerId = "A309AC34-D742-49E2-8DE7-30304959F2B2";
paths = (
{
closed = 1;
nodes = (
"340 296 OFFCURVE",
"296 234 OFFCURVE",
"178 219 CURVE",
"151 274 LINE",
"299 257 OFFCURVE",
"377 182 OFFCURVE",
"413 74 CURVE",
"370 122 LINE",
"370 521 LINE",
"720 521 LINE",
"720 456 LINE",
"450 456 LINE",
"450 50 LINE",
"380 50 LINE",
"380 118 OFFCURVE",
"291 180 OFFCURVE",
"143 184 CURVE",
"71 297 LINE",
"202 297 OFFCURVE",
"265 349 OFFCURVE",
"265 401 CURVE SMOOTH",
"265 432 OFFCURVE",
"243 449 OFFCURVE",
"209 449 CURVE SMOOTH",
"166 449 OFFCURVE",
"133 422 OFFCURVE",
"111 385 CURVE",
"108 454 LINE",
"153 454 OFFCURVE",
"182 425 OFFCURVE",
"182 390 CURVE SMOOTH",
"182 354 OFFCURVE",
"152 326 OFFCURVE",
"113 326 CURVE SMOOTH",
"69 326 OFFCURVE",
"34 362 OFFCURVE",
"34 411 CURVE SMOOTH",
"34 474 OFFCURVE",
"90 529 OFFCURVE",
"173 529 CURVE SMOOTH",
"275 529 OFFCURVE",
"340 445 OFFCURVE",
"340 363 CURVE SMOOTH"
);
},
{
closed = 1;
nodes = (
"450 143 LINE",
"450 -40 LINE",
"390 -40 LINE",
"388 2 OFFCURVE",
"367 25 OFFCURVE",
"315 25 CURVE SMOOTH",
"280 25 OFFCURVE",
"225 15 OFFCURVE",
"187 15 CURVE SMOOTH",
"94 15 OFFCURVE",
"30 75 OFFCURVE",
"30 156 CURVE SMOOTH",
"30 178 OFFCURVE",
"35 207 OFFCURVE",
"46 231 CURVE",
"92 214 LINE",
"87 199 OFFCURVE",
"83 178 OFFCURVE",
"83 163 CURVE SMOOTH",
"83 126 OFFCURVE",
"106 109 OFFCURVE",
"154 109 CURVE SMOOTH",
"183 109 OFFCURVE",
"243 115 OFFCURVE",
"268 115 CURVE SMOOTH",
"339 115 OFFCURVE",
"389 68 OFFCURVE",
"411 -7 CURVE",
"380 41 LINE",
"380 143 LINE"
);
},
{
closed = 1;
nodes = (
"444 320 LINE",
"467 259 OFFCURVE",
"510 238 OFFCURVE",
"545 238 CURVE SMOOTH",
"583 238 OFFCURVE",
"610 262 OFFCURVE",
"610 292 CURVE SMOOTH",
"610 311 OFFCURVE",
"600 326 OFFCURVE",
"582 326 CURVE SMOOTH",
"577 326 OFFCURVE",
"569 325 OFFCURVE",
"562 323 CURVE",
"591 356 LINE",
"596 350 OFFCURVE",
"599 339 OFFCURVE",
"599 329 CURVE SMOOTH",
"599 301 OFFCURVE",
"576 278 OFFCURVE",
"545 278 CURVE SMOOTH",
"511 278 OFFCURVE",
"483 304 OFFCURVE",
"483 339 CURVE SMOOTH",
"483 374 OFFCURVE",
"511 401 OFFCURVE",
"551 401 CURVE SMOOTH",
"612 401 OFFCURVE",
"664 337 OFFCURVE",
"664 264 CURVE SMOOTH",
"664 196 OFFCURVE",
"618 148 OFFCURVE",
"559 148 CURVE SMOOTH",
"498 148 OFFCURVE",
"447 199 OFFCURVE",
"416 294 CURVE"
);
}
);
width = 690;
}
);
},
{
glyphname = bThRa_bSignUu;
lastChange = "2016-02-13 20:14:34 +0000";
layers = (
{
layerId = "F2EBC5D5-DDE2-4851-B52F-F2293ECE9CC7";
paths = (
{
closed = 1;
nodes = (
"305 312 OFFCURVE",
"258 261 OFFCURVE",
"160 246 CURVE",
"163 269 LINE",
"252 254 OFFCURVE",
"330 191 OFFCURVE",
"365 119 CURVE",
"352 117 LINE",
"352 491 LINE",
"600 491 LINE",
"600 456 LINE",
"392 456 LINE",
"392 45 LINE",
"366 45 LINE",
"344 152 OFFCURVE",
"261 208 OFFCURVE",
"125 225 CURVE",
"78 289 LINE",
"204 289 OFFCURVE",
"268 339 OFFCURVE",
"268 397 CURVE SMOOTH",
"268 432 OFFCURVE",
"244 458 OFFCURVE",
"198 458 CURVE SMOOTH",
"156 458 OFFCURVE",
"126 437 OFFCURVE",
"110 407 CURVE",
"115 426 LINE",
"139 423 OFFCURVE",
"156 404 OFFCURVE",
"156 381 CURVE SMOOTH",
"156 354 OFFCURVE",
"135 333 OFFCURVE",
"107 333 CURVE SMOOTH",
"75 333 OFFCURVE",
"51 361 OFFCURVE",
"51 396 CURVE SMOOTH",
"51 453 OFFCURVE",
"112 500 OFFCURVE",
"180 500 CURVE SMOOTH",
"259 500 OFFCURVE",
"305 437 OFFCURVE",
"305 375 CURVE SMOOTH"
);
},
{
closed = 1;
nodes = (
"392 133 LINE",
"392 -5 LINE",
"371 -5 LINE",
"363 35 OFFCURVE",
"341 66 OFFCURVE",
"297 66 CURVE SMOOTH",
"270 66 OFFCURVE",
"199 54 OFFCURVE",
"163 54 CURVE SMOOTH",
"91 54 OFFCURVE",
"38 102 OFFCURVE",
"38 164 CURVE SMOOTH",
"38 186 OFFCURVE",
"45 209 OFFCURVE",
"55 227 CURVE",
"74 218 LINE",
"68 203 OFFCURVE",
"65 185 OFFCURVE",
"65 172 CURVE SMOOTH",
"65 131 OFFCURVE",
"96 111 OFFCURVE",
"145 111 CURVE SMOOTH",
"169 111 OFFCURVE",
"224 116 OFFCURVE",
"249 116 CURVE SMOOTH",
"311 116 OFFCURVE",
"356 83 OFFCURVE",
"373 32 CURVE",
"366 29 LINE",
"366 133 LINE"
);
},
{
closed = 1;
nodes = (
"371 347 LINE",
"404 377 OFFCURVE",
"440 392 OFFCURVE",
"458 392 CURVE SMOOTH",
"488 392 OFFCURVE",
"525 352 OFFCURVE",
"525 315 CURVE SMOOTH",
"525 102 LINE SMOOTH",
"525 74 OFFCURVE",
"535 50 OFFCURVE",
"553 32 CURVE",
"542 15 LINE",
"508 39 OFFCURVE",
"485 67 OFFCURVE",
"485 122 CURVE SMOOTH",
"485 336 LINE SMOOTH",
"485 347 OFFCURVE",
"481 351 OFFCURVE",
"474 351 CURVE SMOOTH",
"455 351 OFFCURVE",
"415 331 OFFCURVE",
"384 304 CURVE"
);
}
);
width = 590;
},
{
layerId = "A309AC34-D742-49E2-8DE7-30304959F2B2";
paths = (
{
closed = 1;
nodes = (
"340 296 OFFCURVE",
"296 234 OFFCURVE",
"178 219 CURVE",
"151 274 LINE",
"299 257 OFFCURVE",
"377 182 OFFCURVE",
"413 74 CURVE",
"370 122 LINE",
"370 521 LINE",
"667 521 LINE",
"667 456 LINE",
"450 456 LINE",
"450 50 LINE",
"380 50 LINE",
"380 118 OFFCURVE",
"291 180 OFFCURVE",
"143 184 CURVE",
"71 297 LINE",
"202 297 OFFCURVE",
"265 349 OFFCURVE",
"265 401 CURVE SMOOTH",
"265 432 OFFCURVE",
"243 449 OFFCURVE",
"209 449 CURVE SMOOTH",
"166 449 OFFCURVE",
"133 422 OFFCURVE",
"111 385 CURVE",
"108 454 LINE",
"153 454 OFFCURVE",
"182 425 OFFCURVE",
"182 390 CURVE SMOOTH",
"182 354 OFFCURVE",
"152 326 OFFCURVE",
"113 326 CURVE SMOOTH",
"69 326 OFFCURVE",
"34 362 OFFCURVE",
"34 411 CURVE SMOOTH",
"34 474 OFFCURVE",
"90 529 OFFCURVE",
"173 529 CURVE SMOOTH",
"275 529 OFFCURVE",
"340 445 OFFCURVE",
"340 363 CURVE SMOOTH"
);
},
{
closed = 1;
nodes = (
"450 143 LINE",
"450 -40 LINE",
"390 -40 LINE",
"388 2 OFFCURVE",
"367 25 OFFCURVE",
"315 25 CURVE SMOOTH",
"280 25 OFFCURVE",
"225 15 OFFCURVE",
"187 15 CURVE SMOOTH",
"94 15 OFFCURVE",
"30 75 OFFCURVE",
"30 156 CURVE SMOOTH",
"30 178 OFFCURVE",
"35 207 OFFCURVE",
"46 231 CURVE",
"92 214 LINE",
"87 199 OFFCURVE",
"83 178 OFFCURVE",
"83 163 CURVE SMOOTH",
"83 126 OFFCURVE",
"106 109 OFFCURVE",
"154 109 CURVE SMOOTH",
"183 109 OFFCURVE",
"243 115 OFFCURVE",
"268 115 CURVE SMOOTH",
"339 115 OFFCURVE",
"389 68 OFFCURVE",
"411 -7 CURVE",
"380 41 LINE",
"380 143 LINE"
);
},
{
closed = 1;
nodes = (
"406 353 LINE",
"440 386 OFFCURVE",
"476 402 OFFCURVE",
"497 402 CURVE SMOOTH",
"540 402 OFFCURVE",
"597 329 OFFCURVE",
"597 275 CURVE SMOOTH",
"597 82 LINE SMOOTH",
"597 59 OFFCURVE",
"608 39 OFFCURVE",
"627 24 CURVE",
"599 -15 LINE",
"552 11 OFFCURVE",
"520 42 OFFCURVE",
"520 102 CURVE SMOOTH",
"520 299 LINE SMOOTH",
"520 310 OFFCURVE",
"517 315 OFFCURVE",
"511 315 CURVE SMOOTH",
"498 315 OFFCURVE",
"464 294 OFFCURVE",
"441 269 CURVE"
);
}
);
width = 637;
}
);
},
{
glyphname = bDRa_bSignU;
lastChange = "2016-02-13 20:14:42 +0000";
layers = (
{
layerId = "F2EBC5D5-DDE2-4851-B52F-F2293ECE9CC7";
paths = (
{
closed = 1;
nodes = (
"-10 456 LINE",
"-10 491 LINE",
"614 491 LINE",
"614 456 LINE"
);
},
{
closed = 1;
nodes = (
"350 -1 LINE",
"343 31 OFFCURVE",
"323 60 OFFCURVE",
"281 60 CURVE SMOOTH",
"253 60 OFFCURVE",
"180 47 OFFCURVE",
"145 47 CURVE SMOOTH",
"76 47 OFFCURVE",
"23 99 OFFCURVE",
"23 169 CURVE SMOOTH",
"23 194 OFFCURVE",
"30 227 OFFCURVE",
"40 251 CURVE",
"60 243 LINE",
"53 224 OFFCURVE",
"50 194 OFFCURVE",
"50 177 CURVE SMOOTH",
"50 125 OFFCURVE",
"81 102 OFFCURVE",
"127 102 CURVE SMOOTH",
"155 102 OFFCURVE",
"205 110 OFFCURVE",
"234 110 CURVE SMOOTH",
"291 110 OFFCURVE",
"335 79 OFFCURVE",
"350 36 CURVE",
"335 43 LINE",
"322 101 OFFCURVE",
"316 158 OFFCURVE",
"316 200 CURVE SMOOTH",
"316 272 OFFCURVE",
"333 332 OFFCURVE",
"359 367 CURVE",
"350 345 LINE",
"280 312 OFFCURVE",
"214 250 OFFCURVE",
"159 161 CURVE",
"112 219 LINE",
"112 467 LINE",
"152 467 LINE",
"152 230 LINE",
"141 241 LINE",
"191 317 OFFCURVE",
"273 385 OFFCURVE",
"368 416 CURVE",
"425 360 LINE",
"376 303 OFFCURVE",
"353 246 OFFCURVE",
"353 172 CURVE SMOOTH",
"353 131 OFFCURVE",
"360 67 OFFCURVE",
"374 4 CURVE"
);
},
{
closed = 1;
nodes = (
"373 290 LINE",
"396 235 OFFCURVE",
"440 200 OFFCURVE",
"481 200 CURVE SMOOTH",
"518 200 OFFCURVE",
"550 229 OFFCURVE",
"550 267 CURVE SMOOTH",
"550 295 OFFCURVE",
"532 316 OFFCURVE",
"511 316 CURVE SMOOTH",
"506 316 OFFCURVE",
"502 315 OFFCURVE",
"498 313 CURVE",
"507 326 LINE",
"518 322 OFFCURVE",
"525 310 OFFCURVE",
"525 296 CURVE SMOOTH",
"525 275 OFFCURVE",
"509 256 OFFCURVE",
"484 256 CURVE SMOOTH",
"460 256 OFFCURVE",
"439 275 OFFCURVE",
"439 301 CURVE SMOOTH",
"439 329 OFFCURVE",
"462 351 OFFCURVE",
"493 351 CURVE SMOOTH",
"540 351 OFFCURVE",
"579 303 OFFCURVE",
"579 246 CURVE SMOOTH",
"579 190 OFFCURVE",
"540 148 OFFCURVE",
"490 148 CURVE SMOOTH",
"438 148 OFFCURVE",
"393 194 OFFCURVE",
"361 264 CURVE"
);
}
);
width = 604;
},
{
layerId = "A309AC34-D742-49E2-8DE7-30304959F2B2";
paths = (
{
closed = 1;
nodes = (
"361 69 OFFCURVE",
"348 140 OFFCURVE",
"348 206 CURVE SMOOTH",
"348 275 OFFCURVE",
"362 346 OFFCURVE",
"393 385 CURVE",
"418 315 LINE",
"343 284 OFFCURVE",
"267 225 OFFCURVE",
"207 138 CURVE",
"120 219 LINE",
"120 467 LINE",
"200 467 LINE",
"200 200 LINE",
"155 247 LINE",
"207 327 OFFCURVE",
"296 396 OFFCURVE",
"396 427 CURVE",
"493 340 LINE",
"438 275 OFFCURVE",
"420 221 OFFCURVE",
"420 145 CURVE SMOOTH",
"420 101 OFFCURVE",
"426 39 OFFCURVE",
"440 -25 CURVE",
"382 -34 LINE",
"372 1 OFFCURVE",
"355 21 OFFCURVE",
"303 21 CURVE SMOOTH",
"267 21 OFFCURVE",
"220 11 OFFCURVE",
"183 11 CURVE SMOOTH",
"85 11 OFFCURVE",
"16 79 OFFCURVE",
"16 169 CURVE SMOOTH",
"16 198 OFFCURVE",
"23 232 OFFCURVE",
"38 259 CURVE",
"83 240 LINE",
"75 222 OFFCURVE",
"69 198 OFFCURVE",
"69 176 CURVE SMOOTH",
"69 129 OFFCURVE",
"97 105 OFFCURVE",
"150 105 CURVE SMOOTH",
"177 105 OFFCURVE",
"225 111 OFFCURVE",
"251 111 CURVE SMOOTH",
"320 111 OFFCURVE",
"378 69 OFFCURVE",
"403 -11 CURVE",
"379 -4 LINE"
);
},
{
closed = 1;
nodes = (
"-30 456 LINE",
"-30 521 LINE",
"730 521 LINE",
"730 456 LINE"
);
},
{
closed = 1;
nodes = (
"434 284 LINE",
"461 208 OFFCURVE",
"509 182 OFFCURVE",
"551 182 CURVE SMOOTH",
"591 182 OFFCURVE",
"620 206 OFFCURVE",
"620 237 CURVE SMOOTH",
"620 255 OFFCURVE",
"610 270 OFFCURVE",
"592 270 CURVE SMOOTH",
"587 270 OFFCURVE",
"579 269 OFFCURVE",
"572 267 CURVE",
"601 300 LINE",
"606 294 OFFCURVE",
"609 283 OFFCURVE",
"609 273 CURVE SMOOTH",
"609 245 OFFCURVE",
"586 222 OFFCURVE",
"555 222 CURVE SMOOTH",
"521 222 OFFCURVE",
"493 248 OFFCURVE",
"493 283 CURVE SMOOTH",
"493 318 OFFCURVE",
"521 345 OFFCURVE",
"561 345 CURVE SMOOTH",
"622 345 OFFCURVE",
"674 281 OFFCURVE",
"674 209 CURVE SMOOTH",
"674 140 OFFCURVE",
"627 92 OFFCURVE",
"565 92 CURVE SMOOTH",
"496 92 OFFCURVE",
"440 150 OFFCURVE",
"406 258 CURVE"
);
}
);
width = 700;
}
);
},
{
glyphname = bDRa_bSignUu;
lastChange = "2016-02-13 20:14:51 +0000";
layers = (
{
layerId = "F2EBC5D5-DDE2-4851-B52F-F2293ECE9CC7";
paths = (
{
closed = 1;
nodes = (
"-10 456 LINE",
"-10 491 LINE",
"557 491 LINE",
"557 456 LINE"
);
},
{
closed = 1;
nodes = (
"350 -1 LINE",
"343 31 OFFCURVE",
"323 60 OFFCURVE",
"281 60 CURVE SMOOTH",
"253 60 OFFCURVE",
"180 47 OFFCURVE",
"145 47 CURVE SMOOTH",
"76 47 OFFCURVE",
"23 99 OFFCURVE",
"23 169 CURVE SMOOTH",
"23 194 OFFCURVE",
"30 227 OFFCURVE",
"40 251 CURVE",
"60 243 LINE",
"53 224 OFFCURVE",
"50 194 OFFCURVE",
"50 177 CURVE SMOOTH",
"50 125 OFFCURVE",
"81 102 OFFCURVE",
"127 102 CURVE SMOOTH",
"155 102 OFFCURVE",
"205 110 OFFCURVE",
"234 110 CURVE SMOOTH",
"291 110 OFFCURVE",
"335 79 OFFCURVE",
"350 36 CURVE",
"335 43 LINE",
"322 101 OFFCURVE",
"316 158 OFFCURVE",
"316 200 CURVE SMOOTH",
"316 272 OFFCURVE",
"333 332 OFFCURVE",
"359 367 CURVE",
"350 345 LINE",
"280 312 OFFCURVE",
"214 250 OFFCURVE",
"159 161 CURVE",
"112 219 LINE",
"112 467 LINE",
"152 467 LINE",
"152 230 LINE",
"141 241 LINE",
"191 317 OFFCURVE",
"273 385 OFFCURVE",
"368 416 CURVE",
"425 360 LINE",
"376 303 OFFCURVE",
"353 246 OFFCURVE",
"353 172 CURVE SMOOTH",
"353 131 OFFCURVE",
"360 67 OFFCURVE",
"374 4 CURVE"
);
},
{
closed = 1;
nodes = (
"339 227 LINE",
"376 275 OFFCURVE",
"411 297 OFFCURVE",
"431 297 CURVE SMOOTH",
"459 297 OFFCURVE",
"497 254 OFFCURVE",
"497 215 CURVE SMOOTH",
"497 92 LINE SMOOTH",
"497 64 OFFCURVE",
"507 40 OFFCURVE",
"525 22 CURVE",
"514 5 LINE",
"480 29 OFFCURVE",
"457 57 OFFCURVE",
"457 112 CURVE SMOOTH",
"457 236 LINE SMOOTH",
"457 251 OFFCURVE",
"453 256 OFFCURVE",
"446 256 CURVE SMOOTH",
"426 256 OFFCURVE",
"384 225 OFFCURVE",
"352 184 CURVE"
);
}
);
width = 547;
},
{
layerId = "A309AC34-D742-49E2-8DE7-30304959F2B2";
paths = (
{
closed = 1;
nodes = (
"361 69 OFFCURVE",
"348 140 OFFCURVE",
"348 206 CURVE SMOOTH",
"348 275 OFFCURVE",
"362 346 OFFCURVE",
"393 385 CURVE",
"418 315 LINE",
"343 284 OFFCURVE",
"267 225 OFFCURVE",
"207 138 CURVE",
"120 219 LINE",
"120 467 LINE",
"200 467 LINE",
"200 200 LINE",
"155 247 LINE",
"207 327 OFFCURVE",
"296 396 OFFCURVE",
"396 427 CURVE",
"489 350 LINE",
"437 292 OFFCURVE",
"420 225 OFFCURVE",
"420 145 CURVE SMOOTH",
"420 101 OFFCURVE",
"426 39 OFFCURVE",
"440 -25 CURVE",
"382 -34 LINE",
"372 1 OFFCURVE",
"355 21 OFFCURVE",
"303 21 CURVE SMOOTH",
"267 21 OFFCURVE",
"220 11 OFFCURVE",
"183 11 CURVE SMOOTH",
"85 11 OFFCURVE",
"16 79 OFFCURVE",
"16 169 CURVE SMOOTH",
"16 198 OFFCURVE",
"23 232 OFFCURVE",
"38 259 CURVE",
"83 240 LINE",
"75 222 OFFCURVE",
"69 198 OFFCURVE",
"69 176 CURVE SMOOTH",
"69 129 OFFCURVE",
"97 105 OFFCURVE",
"150 105 CURVE SMOOTH",
"177 105 OFFCURVE",
"225 111 OFFCURVE",
"251 111 CURVE SMOOTH",
"320 111 OFFCURVE",
"378 69 OFFCURVE",
"403 -11 CURVE",
"379 -4 LINE"
);
},
{
closed = 1;
nodes = (
"-30 456 LINE",
"-30 521 LINE",
"644 521 LINE",
"644 456 LINE"
);
},
{
closed = 1;
nodes = (
"393 203 LINE",
"434 268 OFFCURVE",
"468 292 OFFCURVE",
"491 292 CURVE SMOOTH",
"531 292 OFFCURVE",
"584 225 OFFCURVE",
"584 175 CURVE SMOOTH",
"584 72 LINE SMOOTH",
"584 49 OFFCURVE",
"595 29 OFFCURVE",
"614 14 CURVE",
"586 -25 LINE",
"539 1 OFFCURVE",
"507 32 OFFCURVE",
"507 92 CURVE SMOOTH",
"507 186 LINE SMOOTH",
"507 197 OFFCURVE",
"504 200 OFFCURVE",
"498 200 CURVE SMOOTH",
"482 200 OFFCURVE",
"450 177 OFFCURVE",
"418 129 CURVE"
);
}
);
width = 614;
}
);
},
{
glyphname = bDhRa_bSignU;
lastChange = "2016-02-13 20:14:59 +0000";
layers = (
{
layerId = "F2EBC5D5-DDE2-4851-B52F-F2293ECE9CC7";
paths = (
{
closed = 1;
nodes = (
"229 347 LINE",
"219 345 OFFCURVE",
"210 344 OFFCURVE",
"201 344 CURVE SMOOTH",
"143 344 OFFCURVE",
"94 381 OFFCURVE",
"94 432 CURVE SMOOTH",
"94 476 OFFCURVE",
"129 509 OFFCURVE",
"176 509 CURVE SMOOTH",
"217 509 OFFCURVE",
"245 485 OFFCURVE",
"245 456 CURVE SMOOTH",
"245 432 OFFCURVE",
"226 415 OFFCURVE",
"204 415 CURVE SMOOTH",
"183 415 OFFCURVE",
"164 430 OFFCURVE",
"164 451 CURVE SMOOTH",
"164 465 OFFCURVE",
"171 483 OFFCURVE",
"190 491 CURVE",
"223 453 LINE",
"209 458 OFFCURVE",
"194 460 OFFCURVE",
"184 460 CURVE SMOOTH",
"157 460 OFFCURVE",
"138 442 OFFCURVE",
"138 420 CURVE SMOOTH",
"138 396 OFFCURVE",
"161 373 OFFCURVE",
"199 373 CURVE SMOOTH",
"213 373 OFFCURVE",
"227 376 OFFCURVE",
"246 386 CURVE"
);
},
{
closed = 1;
nodes = (
"332 491 LINE",
"592 491 LINE",
"592 456 LINE",
"372 456 LINE",
"372 45 LINE",
"346 45 LINE",
"333 132 OFFCURVE",
"253 189 OFFCURVE",
"127 202 CURVE",
"71 273 LINE",
"157 335 OFFCURVE",
"245 388 OFFCURVE",
"340 439 CURVE",
"340 378 LINE",
"260 338 OFFCURVE",
"185 293 OFFCURVE",
"112 235 CURVE",
"116 263 LINE",
"208 248 OFFCURVE",
"297 201 OFFCURVE",
"342 123 CURVE",
"332 107 LINE"
);
},
{
closed = 1;
nodes = (
"372 133 LINE",
"372 -5 LINE",
"351 -5 LINE",
"343 35 OFFCURVE",
"321 66 OFFCURVE",
"279 66 CURVE SMOOTH",
"252 66 OFFCURVE",
"177 53 OFFCURVE",
"143 53 CURVE SMOOTH",
"79 53 OFFCURVE",
"30 100 OFFCURVE",
"30 158 CURVE SMOOTH",
"30 178 OFFCURVE",
"36 202 OFFCURVE",
"45 221 CURVE",
"64 212 LINE",
"59 198 OFFCURVE",
"55 178 OFFCURVE",
"55 163 CURVE SMOOTH",
"55 128 OFFCURVE",
"79 109 OFFCURVE",
"126 109 CURVE SMOOTH",
"154 109 OFFCURVE",
"201 116 OFFCURVE",
"229 116 CURVE SMOOTH",
"287 116 OFFCURVE",
"335 86 OFFCURVE",
"353 32 CURVE",
"346 29 LINE",
"346 133 LINE"
);
},
{
closed = 1;
nodes = (
"365 320 LINE",
"386 272 OFFCURVE",
"425 242 OFFCURVE",
"462 242 CURVE SMOOTH",
"498 242 OFFCURVE",
"528 270 OFFCURVE",
"528 307 CURVE SMOOTH",
"528 335 OFFCURVE",
"510 356 OFFCURVE",
"489 356 CURVE SMOOTH",
"484 356 OFFCURVE",
"480 355 OFFCURVE",
"476 353 CURVE",
"485 366 LINE",
"496 362 OFFCURVE",
"503 350 OFFCURVE",
"503 336 CURVE SMOOTH",
"503 315 OFFCURVE",
"487 296 OFFCURVE",
"462 296 CURVE SMOOTH",
"438 296 OFFCURVE",
"417 315 OFFCURVE",
"417 341 CURVE SMOOTH",
"417 369 OFFCURVE",
"440 391 OFFCURVE",
"471 391 CURVE SMOOTH",
"518 391 OFFCURVE",
"557 343 OFFCURVE",
"557 286 CURVE SMOOTH",
"557 230 OFFCURVE",
"520 188 OFFCURVE",
"472 188 CURVE SMOOTH",
"424 188 OFFCURVE",
"383 230 OFFCURVE",
"357 294 CURVE"
);
}
);
width = 582;
},
{
layerId = "A309AC34-D742-49E2-8DE7-30304959F2B2";
paths = (
{
closed = 1;
nodes = (
"297 343 LINE",
"279 336 OFFCURVE",
"257 330 OFFCURVE",
"242 330 CURVE SMOOTH",
"166 330 OFFCURVE",
"98 379 OFFCURVE",
"98 444 CURVE SMOOTH",
"98 503 OFFCURVE",
"149 541 OFFCURVE",
"204 541 CURVE SMOOTH",
"257 541 OFFCURVE",
"288 507 OFFCURVE",
"288 470 CURVE SMOOTH",
"288 436 OFFCURVE",
"261 415 OFFCURVE",
"231 415 CURVE SMOOTH",
"203 415 OFFCURVE",
"178 434 OFFCURVE",
"178 461 CURVE SMOOTH",
"178 475 OFFCURVE",
"185 493 OFFCURVE",
"204 501 CURVE",
"271 457 LINE",
"257 462 OFFCURVE",
"242 464 OFFCURVE",
"231 464 CURVE SMOOTH",
"196 464 OFFCURVE",
"177 444 OFFCURVE",
"177 423 CURVE SMOOTH",
"177 406 OFFCURVE",
"190 384 OFFCURVE",
"226 384 CURVE SMOOTH",
"236 384 OFFCURVE",
"255 391 OFFCURVE",
"280 402 CURVE"
);
},
{
closed = 1;
nodes = (
"350 521 LINE",
"700 521 LINE",
"700 456 LINE",
"430 456 LINE",
"430 49 LINE",
"360 49 LINE",
"360 125 OFFCURVE",
"281 159 OFFCURVE",
"150 171 CURVE",
"71 296 LINE",
"164 352 OFFCURVE",
"262 396 OFFCURVE",
"368 439 CURVE",
"398 330 LINE",
"309 297 OFFCURVE",
"226 261 OFFCURVE",
"145 214 CURVE",
"119 292 LINE",
"236 262 OFFCURVE",
"344 212 OFFCURVE",
"400 87 CURVE",
"350 111 LINE"
);
},
{
closed = 1;
nodes = (
"430 143 LINE",
"430 -40 LINE",
"370 -40 LINE",
"368 2 OFFCURVE",
"347 25 OFFCURVE",
"296 25 CURVE SMOOTH",
"262 25 OFFCURVE",
"213 15 OFFCURVE",
"176 15 CURVE SMOOTH",
"85 15 OFFCURVE",
"20 75 OFFCURVE",
"20 156 CURVE SMOOTH",
"20 178 OFFCURVE",
"25 207 OFFCURVE",
"36 231 CURVE",
"82 214 LINE",
"77 199 OFFCURVE",
"73 178 OFFCURVE",
"73 163 CURVE SMOOTH",
"73 126 OFFCURVE",
"96 109 OFFCURVE",
"143 109 CURVE SMOOTH",
"171 109 OFFCURVE",
"224 115 OFFCURVE",
"249 115 CURVE SMOOTH",
"321 115 OFFCURVE",
"370 65 OFFCURVE",
"391 -7 CURVE",
"360 41 LINE",
"360 143 LINE"
);
},
{
closed = 1;
nodes = (
"424 320 LINE",
"447 259 OFFCURVE",
"490 238 OFFCURVE",
"525 238 CURVE SMOOTH",
"563 238 OFFCURVE",
"590 262 OFFCURVE",
"590 292 CURVE SMOOTH",
"590 311 OFFCURVE",
"580 326 OFFCURVE",
"562 326 CURVE SMOOTH",
"557 326 OFFCURVE",
"549 325 OFFCURVE",
"542 323 CURVE",
"571 356 LINE",
"576 350 OFFCURVE",
"579 339 OFFCURVE",
"579 329 CURVE SMOOTH",
"579 301 OFFCURVE",
"556 278 OFFCURVE",
"525 278 CURVE SMOOTH",
"491 278 OFFCURVE",
"463 304 OFFCURVE",
"463 339 CURVE SMOOTH",
"463 374 OFFCURVE",
"491 401 OFFCURVE",
"531 401 CURVE SMOOTH",
"592 401 OFFCURVE",
"644 337 OFFCURVE",
"644 264 CURVE SMOOTH",
"644 196 OFFCURVE",
"598 148 OFFCURVE",
"539 148 CURVE SMOOTH",
"478 148 OFFCURVE",
"427 199 OFFCURVE",
"396 294 CURVE"
);
}
);
width = 670;
}
);
},
{
glyphname = bDhRa_bSignUu;
lastChange = "2016-02-13 20:15:06 +0000";
layers = (
{
layerId = "F2EBC5D5-DDE2-4851-B52F-F2293ECE9CC7";
paths = (
{
closed = 1;
nodes = (
"229 347 LINE",
"219 345 OFFCURVE",
"210 344 OFFCURVE",
"201 344 CURVE SMOOTH",
"143 344 OFFCURVE",
"94 381 OFFCURVE",
"94 432 CURVE SMOOTH",
"94 476 OFFCURVE",
"129 509 OFFCURVE",
"176 509 CURVE SMOOTH",
"217 509 OFFCURVE",
"245 485 OFFCURVE",
"245 456 CURVE SMOOTH",
"245 432 OFFCURVE",
"226 415 OFFCURVE",
"204 415 CURVE SMOOTH",
"183 415 OFFCURVE",
"164 430 OFFCURVE",
"164 451 CURVE SMOOTH",
"164 465 OFFCURVE",
"171 483 OFFCURVE",
"190 491 CURVE",
"223 453 LINE",
"209 458 OFFCURVE",
"194 460 OFFCURVE",
"184 460 CURVE SMOOTH",
"157 460 OFFCURVE",
"138 442 OFFCURVE",
"138 420 CURVE SMOOTH",
"138 396 OFFCURVE",
"161 373 OFFCURVE",
"199 373 CURVE SMOOTH",
"213 373 OFFCURVE",
"227 376 OFFCURVE",
"246 386 CURVE"
);
},
{
closed = 1;
nodes = (
"332 491 LINE",
"580 491 LINE",
"580 456 LINE",
"372 456 LINE",
"372 45 LINE",
"346 45 LINE",
"333 132 OFFCURVE",
"253 189 OFFCURVE",
"127 202 CURVE",
"71 273 LINE",
"157 335 OFFCURVE",
"245 388 OFFCURVE",
"340 439 CURVE",
"340 378 LINE",
"260 338 OFFCURVE",
"185 293 OFFCURVE",
"112 235 CURVE",
"116 263 LINE",
"208 248 OFFCURVE",
"297 201 OFFCURVE",
"342 123 CURVE",
"332 107 LINE"
);
},
{
closed = 1;
nodes = (
"372 133 LINE",
"372 -5 LINE",
"351 -5 LINE",
"343 35 OFFCURVE",
"321 66 OFFCURVE",
"279 66 CURVE SMOOTH",
"252 66 OFFCURVE",
"177 53 OFFCURVE",
"143 53 CURVE SMOOTH",
"79 53 OFFCURVE",
"30 100 OFFCURVE",
"30 158 CURVE SMOOTH",
"30 178 OFFCURVE",
"36 202 OFFCURVE",
"45 221 CURVE",
"64 212 LINE",
"59 198 OFFCURVE",
"55 178 OFFCURVE",
"55 163 CURVE SMOOTH",
"55 128 OFFCURVE",
"79 109 OFFCURVE",
"126 109 CURVE SMOOTH",
"154 109 OFFCURVE",
"201 116 OFFCURVE",
"229 116 CURVE SMOOTH",
"287 116 OFFCURVE",
"335 86 OFFCURVE",
"353 32 CURVE",
"346 29 LINE",
"346 133 LINE"
);
},
{
closed = 1;
nodes = (
"351 347 LINE",
"384 377 OFFCURVE",
"420 392 OFFCURVE",
"438 392 CURVE SMOOTH",
"468 392 OFFCURVE",
"505 352 OFFCURVE",
"505 315 CURVE SMOOTH",
"505 102 LINE SMOOTH",
"505 74 OFFCURVE",
"515 50 OFFCURVE",
"533 32 CURVE",
"522 15 LINE",
"488 39 OFFCURVE",
"465 67 OFFCURVE",
"465 122 CURVE SMOOTH",
"465 336 LINE SMOOTH",
"465 347 OFFCURVE",
"461 351 OFFCURVE",
"454 351 CURVE SMOOTH",
"435 351 OFFCURVE",
"395 331 OFFCURVE",
"364 304 CURVE"
);
}
);
width = 570;
},
{
layerId = "A309AC34-D742-49E2-8DE7-30304959F2B2";
paths = (
{
closed = 1;
nodes = (
"297 343 LINE",
"279 336 OFFCURVE",
"257 330 OFFCURVE",
"242 330 CURVE SMOOTH",
"166 330 OFFCURVE",
"98 379 OFFCURVE",
"98 444 CURVE SMOOTH",
"98 503 OFFCURVE",
"149 541 OFFCURVE",
"204 541 CURVE SMOOTH",
"257 541 OFFCURVE",
"288 507 OFFCURVE",
"288 470 CURVE SMOOTH",
"288 436 OFFCURVE",
"261 415 OFFCURVE",
"231 415 CURVE SMOOTH",
"203 415 OFFCURVE",
"178 434 OFFCURVE",
"178 461 CURVE SMOOTH",
"178 475 OFFCURVE",
"185 493 OFFCURVE",
"204 501 CURVE",
"271 457 LINE",
"257 462 OFFCURVE",
"242 464 OFFCURVE",
"231 464 CURVE SMOOTH",
"196 464 OFFCURVE",
"177 444 OFFCURVE",
"177 423 CURVE SMOOTH",
"177 406 OFFCURVE",
"190 384 OFFCURVE",
"226 384 CURVE SMOOTH",
"236 384 OFFCURVE",
"255 391 OFFCURVE",
"280 402 CURVE"
);
},
{
closed = 1;
nodes = (
"350 521 LINE",
"647 521 LINE",
"647 456 LINE",
"430 456 LINE",
"430 49 LINE",
"360 49 LINE",
"360 125 OFFCURVE",
"281 159 OFFCURVE",
"150 171 CURVE",
"71 296 LINE",
"164 352 OFFCURVE",
"262 396 OFFCURVE",
"368 439 CURVE",
"398 330 LINE",
"309 297 OFFCURVE",
"226 261 OFFCURVE",
"145 214 CURVE",
"119 292 LINE",
"236 262 OFFCURVE",
"344 212 OFFCURVE",
"400 87 CURVE",
"350 111 LINE"
);
},
{
closed = 1;
nodes = (
"430 143 LINE",
"430 -40 LINE",
"370 -40 LINE",
"368 2 OFFCURVE",
"347 25 OFFCURVE",
"296 25 CURVE SMOOTH",
"262 25 OFFCURVE",
"213 15 OFFCURVE",
"176 15 CURVE SMOOTH",
"85 15 OFFCURVE",
"20 75 OFFCURVE",
"20 156 CURVE SMOOTH",
"20 178 OFFCURVE",
"25 207 OFFCURVE",
"36 231 CURVE",
"82 214 LINE",
"77 199 OFFCURVE",
"73 178 OFFCURVE",
"73 163 CURVE SMOOTH",
"73 126 OFFCURVE",
"96 109 OFFCURVE",
"143 109 CURVE SMOOTH",
"171 109 OFFCURVE",
"224 115 OFFCURVE",
"249 115 CURVE SMOOTH",
"321 115 OFFCURVE",
"370 65 OFFCURVE",
"391 -7 CURVE",
"360 41 LINE",
"360 143 LINE"
);
},
{
closed = 1;
nodes = (
"386 353 LINE",
"420 386 OFFCURVE",
"456 402 OFFCURVE",
"477 402 CURVE SMOOTH",
"520 402 OFFCURVE",
"577 329 OFFCURVE",
"577 275 CURVE SMOOTH",
"577 82 LINE SMOOTH",
"577 59 OFFCURVE",
"588 39 OFFCURVE",
"607 24 CURVE",
"579 -15 LINE",
"532 11 OFFCURVE",
"500 42 OFFCURVE",
"500 102 CURVE SMOOTH",
"500 299 LINE SMOOTH",
"500 310 OFFCURVE",
"497 315 OFFCURVE",
"491 315 CURVE SMOOTH",
"478 315 OFFCURVE",
"444 294 OFFCURVE",
"421 269 CURVE"
);
}
);
width = 617;
}
);
},
{
glyphname = bNTa_bSignU;
lastChange = "2016-02-16 11:35:50 +0000";
layers = (
{
background = {
paths = (
{
closed = 1;
nodes = (
"-10 491 LINE",
"499 491 LINE",
"499 456 LINE",
"-10 456 LINE"
);
},
{
closed = 1;
nodes = (
"274 298 OFFCURVE",
"253 388 OFFCURVE",
"209 388 CURVE SMOOTH",
"200 388 OFFCURVE",
"185 384 OFFCURVE",
"175 378 CURVE",
"188 409 LINE",
"211 401 OFFCURVE",
"223 384 OFFCURVE",
"223 362 CURVE SMOOTH",
"223 330 OFFCURVE",
"197 309 OFFCURVE",
"168 309 CURVE SMOOTH",
"136 309 OFFCURVE",
"108 336 OFFCURVE",
"108 369 CURVE SMOOTH",
"108 403 OFFCURVE",
"137 433 OFFCURVE",
"180 433 CURVE SMOOTH",
"253 433 OFFCURVE",
"275 349 OFFCURVE",
"338 349 CURVE SMOOTH",
"369 349 OFFCURVE",
"393 370 OFFCURVE",
"393 399 CURVE SMOOTH",
"393 423 OFFCURVE",
"375 446 OFFCURVE",
"333 459 CURVE",
"375 464 LINE",
"417 440 OFFCURVE",
"438 409 OFFCURVE",
"438 376 CURVE SMOOTH",
"438 335 OFFCURVE",
"404 298 OFFCURVE",
"353 298 CURVE SMOOTH"
);
},
{
closed = 1;
nodes = (
"413 179 LINE",
"439 159 OFFCURVE",
"459 125 OFFCURVE",
"459 87 CURVE SMOOTH",
"459 28 OFFCURVE",
"412 -23 OFFCURVE",
"338 -23 CURVE SMOOTH",
"201 -23 OFFCURVE",
"83 149 OFFCURVE",
"7 385 CURVE",
"32 394 LINE",
"123 124 OFFCURVE",
"223 36 OFFCURVE",
"324 36 CURVE SMOOTH",
"386 36 OFFCURVE",
"422 69 OFFCURVE",
"422 107 CURVE SMOOTH",
"422 121 OFFCURVE",
"417 138 OFFCURVE",
"401 145 CURVE"
);
},
{
closed = 1;
nodes = (
"396 326 OFFCURVE",
"444 280 OFFCURVE",
"444 217 CURVE SMOOTH",
"444 158 OFFCURVE",
"402 110 OFFCURVE",
"359 110 CURVE SMOOTH",
"330 110 OFFCURVE",
"307 133 OFFCURVE",
"307 160 CURVE SMOOTH",
"307 186 OFFCURVE",
"329 208 OFFCURVE",
"359 208 CURVE SMOOTH",
"377 208 OFFCURVE",
"392 200 OFFCURVE",
"401 189 CURVE",
"373 175 LINE",
"396 190 OFFCURVE",
"410 212 OFFCURVE",
"410 237 CURVE SMOOTH",
"410 266 OFFCURVE",
"392 288 OFFCURVE",
"353 288 CURVE SMOOTH",
"304 288 OFFCURVE",
"255 253 OFFCURVE",
"238 205 CURVE",
"207 212 LINE",
"216 221 OFFCURVE",
"227 224 OFFCURVE",
"237 224 CURVE SMOOTH",
"261 224 OFFCURVE",
"281 206 OFFCURVE",
"281 181 CURVE SMOOTH",
"281 156 OFFCURVE",
"260 136 OFFCURVE",
"233 136 CURVE SMOOTH",
"203 136 OFFCURVE",
"181 162 OFFCURVE",
"181 194 CURVE SMOOTH",
"181 254 OFFCURVE",
"260 326 OFFCURVE",
"335 326 CURVE SMOOTH"
);
}
);
};
layerId = "F2EBC5D5-DDE2-4851-B52F-F2293ECE9CC7";
paths = (
{
closed = 1;
nodes = (
"-10 491 LINE",
"499 491 LINE",
"499 456 LINE",
"-10 456 LINE"
);
},
{
closed = 1;
nodes = (
"413 159 LINE",
"439 139 OFFCURVE",
"459 105 OFFCURVE",
"459 67 CURVE SMOOTH",
"459 8 OFFCURVE",
"412 -43 OFFCURVE",
"338 -43 CURVE SMOOTH",
"201 -43 OFFCURVE",
"83 137 OFFCURVE",
"7 385 CURVE",
"32 394 LINE",
"123 109 OFFCURVE",
"223 16 OFFCURVE",
"324 16 CURVE SMOOTH",
"386 16 OFFCURVE",
"422 49 OFFCURVE",
"422 87 CURVE SMOOTH",
"422 101 OFFCURVE",
"417 118 OFFCURVE",
"401 125 CURVE"
);
},
{
closed = 1;
nodes = (
"396 306 OFFCURVE",
"444 260 OFFCURVE",
"444 197 CURVE SMOOTH",
"444 138 OFFCURVE",
"402 90 OFFCURVE",
"359 90 CURVE SMOOTH",
"330 90 OFFCURVE",
"307 113 OFFCURVE",
"307 140 CURVE SMOOTH",
"307 166 OFFCURVE",
"329 188 OFFCURVE",
"359 188 CURVE SMOOTH",
"377 188 OFFCURVE",
"392 180 OFFCURVE",
"401 169 CURVE",
"373 155 LINE",
"396 170 OFFCURVE",
"410 192 OFFCURVE",
"410 217 CURVE SMOOTH",
"410 246 OFFCURVE",
"392 268 OFFCURVE",
"353 268 CURVE SMOOTH",
"304 268 OFFCURVE",
"255 233 OFFCURVE",
"238 185 CURVE",
"207 192 LINE",
"216 201 OFFCURVE",
"227 204 OFFCURVE",
"237 204 CURVE SMOOTH",
"261 204 OFFCURVE",
"281 186 OFFCURVE",
"281 161 CURVE SMOOTH",
"281 136 OFFCURVE",
"260 116 OFFCURVE",
"233 116 CURVE SMOOTH",
"203 116 OFFCURVE",
"181 142 OFFCURVE",
"181 174 CURVE SMOOTH",
"181 234 OFFCURVE",
"260 306 OFFCURVE",
"335 306 CURVE SMOOTH"
);
},
{
closed = 1;
nodes = (
"356 278 LINE",
"356 478 LINE",
"396 478 LINE",
"396 278 LINE"
);
},
{
closed = 1;
nodes = (
"358 273 LINE",
"329 348 OFFCURVE",
"286 379 OFFCURVE",
"239 379 CURVE SMOOTH",
"207 379 OFFCURVE",
"188 365 OFFCURVE",
"176 344 CURVE",
"194 389 LINE",
"221 385 OFFCURVE",
"234 362 OFFCURVE",
"234 340 CURVE SMOOTH",
"234 311 OFFCURVE",
"211 289 OFFCURVE",
"181 289 CURVE SMOOTH",
"149 289 OFFCURVE",
"121 314 OFFCURVE",
"121 349 CURVE SMOOTH",
"121 390 OFFCURVE",
"158 426 OFFCURVE",
"217 426 CURVE SMOOTH",
"289 426 OFFCURVE",
"348 372 OFFCURVE",
"379 284 CURVE"
);
}
);
width = 489;
},
{
layerId = "A309AC34-D742-49E2-8DE7-30304959F2B2";
paths = (
{
closed = 1;
nodes = (
"-30 521 LINE",
"554 521 LINE",
"554 456 LINE",
"-30 456 LINE"
);
},
{
closed = 1;
nodes = (
"293 274 OFFCURVE",
"273 364 OFFCURVE",
"220 364 CURVE SMOOTH",
"211 364 OFFCURVE",
"198 361 OFFCURVE",
"189 356 CURVE",
"188 418 LINE",
"224 408 OFFCURVE",
"241 385 OFFCURVE",
"241 358 CURVE SMOOTH",
"241 322 OFFCURVE",
"212 296 OFFCURVE",
"177 296 CURVE SMOOTH",
"139 296 OFFCURVE",
"109 327 OFFCURVE",
"109 366 CURVE SMOOTH",
"109 405 OFFCURVE",
"140 437 OFFCURVE",
"187 437 CURVE SMOOTH",
"260 437 OFFCURVE",
"285 361 OFFCURVE",
"345 361 CURVE SMOOTH",
"372 361 OFFCURVE",
"398 377 OFFCURVE",
"398 406 CURVE SMOOTH",
"398 433 OFFCURVE",
"374 450 OFFCURVE",
"343 459 CURVE",
"375 494 LINE",
"446 463 OFFCURVE",
"478 421 OFFCURVE",
"478 373 CURVE SMOOTH",
"478 320 OFFCURVE",
"438 274 OFFCURVE",
"377 274 CURVE SMOOTH"
);
},
{
closed = 1;
nodes = (
"349 98 OFFCURVE",
"322 123 OFFCURVE",
"322 155 CURVE SMOOTH",
"322 186 OFFCURVE",
"346 212 OFFCURVE",
"381 212 CURVE SMOOTH",
"408 212 OFFCURVE",
"434 195 OFFCURVE",
"448 176 CURVE",
"392 188 LINE",
"403 201 OFFCURVE",
"408 218 OFFCURVE",
"408 231 CURVE SMOOTH",
"408 250 OFFCURVE",
"397 265 OFFCURVE",
"375 265 CURVE SMOOTH",
"341 265 OFFCURVE",
"293 230 OFFCURVE",
"272 173 CURVE",
"217 216 LINE",
"230 225 OFFCURVE",
"242 228 OFFCURVE",
"253 228 CURVE SMOOTH",
"286 228 OFFCURVE",
"307 204 OFFCURVE",
"307 176 CURVE SMOOTH",
"307 147 OFFCURVE",
"283 125 OFFCURVE",
"253 125 CURVE SMOOTH",
"218 125 OFFCURVE",
"188 155 OFFCURVE",
"188 199 CURVE SMOOTH",
"188 270 OFFCURVE",
"267 332 OFFCURVE",
"346 332 CURVE SMOOTH",
"425 332 OFFCURVE",
"480 271 OFFCURVE",
"480 205 CURVE SMOOTH",
"480 146 OFFCURVE",
"437 98 OFFCURVE",
"386 98 CURVE"
);
},
{
closed = 1;
nodes = (
"436 177 LINE",
"461 158 OFFCURVE",
"493 122 OFFCURVE",
"493 69 CURVE SMOOTH",
"493 -2 OFFCURVE",
"438 -55 OFFCURVE",
"354 -55 CURVE SMOOTH",
"212 -55 OFFCURVE",
"83 94 OFFCURVE",
"-5 385 CURVE",
"52 404 LINE",
"133 141 OFFCURVE",
"232 51 OFFCURVE",
"335 51 CURVE SMOOTH",
"386 51 OFFCURVE",
"413 73 OFFCURVE",
"413 99 CURVE SMOOTH",
"413 112 OFFCURVE",
"407 121 OFFCURVE",
"388 129 CURVE"
);
}
);
width = 524;
}
);
},
{
glyphname = bPRa_bSignU;
lastChange = "2016-02-13 20:15:23 +0000";
layers = (
{
layerId = "F2EBC5D5-DDE2-4851-B52F-F2293ECE9CC7";
paths = (
{
closed = 1;
nodes = (
"368 378 LINE",
"175 202 LINE",
"127 244 LINE",
"159 270 LINE SMOOTH",
"173 282 OFFCURVE",
"184 302 OFFCURVE",
"184 322 CURVE SMOOTH",
"184 343 OFFCURVE",
"172 356 OFFCURVE",
"154 356 CURVE SMOOTH",
"126 356 OFFCURVE",
"110 327 OFFCURVE",
"88 327 CURVE SMOOTH",
"73 327 OFFCURVE",
"58 342 OFFCURVE",
"58 363 CURVE SMOOTH",
"58 413 OFFCURVE",
"138 498 OFFCURVE",
"228 498 CURVE SMOOTH",
"301 498 OFFCURVE",
"360 443 OFFCURVE",
"427 313 CURVE",
"423 259 LINE",
"377 355 OFFCURVE",
"319 451 OFFCURVE",
"241 451 CURVE SMOOTH",
"200 451 OFFCURVE",
"153 424 OFFCURVE",
"118 362 CURVE",
"97 381 LINE",
"111 389 OFFCURVE",
"125 392 OFFCURVE",
"137 392 CURVE SMOOTH",
"181 392 OFFCURVE",
"214 356 OFFCURVE",
"214 314 CURVE SMOOTH",
"214 303 OFFCURVE",
"212 291 OFFCURVE",
"207 280 CURVE",
"181 290 LINE",
"334 422 LINE"
);
},
{
closed = 1;
nodes = (
"419 491 LINE",
"679 491 LINE",
"679 456 LINE",
"459 456 LINE",
"459 100 LINE",
"419 100 LINE"
);
},
{
closed = 1;
nodes = (
"459 218 LINE",
"459 0 LINE",
"434 0 LINE",
"428 38 OFFCURVE",
"407 79 OFFCURVE",
"360 79 CURVE SMOOTH",
"330 79 OFFCURVE",
"230 62 OFFCURVE",
"184 62 CURVE SMOOTH",
"101 62 OFFCURVE",
"38 117 OFFCURVE",
"38 192 CURVE SMOOTH",
"38 218 OFFCURVE",
"45 246 OFFCURVE",
"57 268 CURVE",
"75 259 LINE",
"68 243 OFFCURVE",
"65 218 OFFCURVE",
"65 202 CURVE SMOOTH",
"65 146 OFFCURVE",
"104 119 OFFCURVE",
"169 119 CURVE SMOOTH",
"208 119 OFFCURVE",
"287 129 OFFCURVE",
"320 129 CURVE SMOOTH",
"381 129 OFFCURVE",
"422 95 OFFCURVE",
"438 41 CURVE",
"419 54 LINE",
"419 218 LINE"
);
},
{
closed = 1;
nodes = (
"452 320 LINE",
"473 272 OFFCURVE",
"512 242 OFFCURVE",
"549 242 CURVE SMOOTH",
"585 242 OFFCURVE",
"615 270 OFFCURVE",
"615 307 CURVE SMOOTH",
"615 335 OFFCURVE",
"597 356 OFFCURVE",
"576 356 CURVE SMOOTH",
"571 356 OFFCURVE",
"567 355 OFFCURVE",
"563 353 CURVE",
"572 366 LINE",
"583 362 OFFCURVE",
"590 350 OFFCURVE",
"590 336 CURVE SMOOTH",
"590 315 OFFCURVE",
"574 296 OFFCURVE",
"549 296 CURVE SMOOTH",
"525 296 OFFCURVE",
"504 315 OFFCURVE",
"504 341 CURVE SMOOTH",
"504 369 OFFCURVE",
"527 391 OFFCURVE",
"558 391 CURVE SMOOTH",
"605 391 OFFCURVE",
"644 343 OFFCURVE",
"644 286 CURVE SMOOTH",
"644 230 OFFCURVE",
"607 188 OFFCURVE",
"559 188 CURVE SMOOTH",
"511 188 OFFCURVE",
"470 230 OFFCURVE",
"444 294 CURVE"
);
}
);
width = 669;
},
{
layerId = "A309AC34-D742-49E2-8DE7-30304959F2B2";
paths = (
{
closed = 1;
nodes = (
"426 344 LINE",
"223 147 LINE",
"134 221 LINE",
"166 247 LINE SMOOTH",
"195 271 OFFCURVE",
"204 290 OFFCURVE",
"204 307 CURVE SMOOTH",
"204 324 OFFCURVE",
"195 334 OFFCURVE",
"178 334 CURVE SMOOTH",
"146 334 OFFCURVE",
"131 299 OFFCURVE",
"98 299 CURVE SMOOTH",
"71 299 OFFCURVE",
"40 323 OFFCURVE",
"40 366 CURVE SMOOTH",
"40 439 OFFCURVE",
"129 530 OFFCURVE",
"237 530 CURVE SMOOTH",
"323 530 OFFCURVE",
"416 473 OFFCURVE",
"495 273 CURVE",
"462 225 LINE",
"414 336 OFFCURVE",
"349 444 OFFCURVE",
"270 444 CURVE SMOOTH",
"229 444 OFFCURVE",
"171 414 OFFCURVE",
"136 332 CURVE",
"115 383 LINE",
"132 391 OFFCURVE",
"149 394 OFFCURVE",
"165 394 CURVE SMOOTH",
"230 394 OFFCURVE",
"269 344 OFFCURVE",
"269 286 CURVE SMOOTH",
"269 273 OFFCURVE",
"267 261 OFFCURVE",
"262 250 CURVE",
"213 289 LINE",
"362 416 LINE"
);
},
{
closed = 1;
nodes = (
"457 521 LINE",
"807 521 LINE",
"807 456 LINE",
"537 456 LINE",
"537 30 LINE",
"457 30 LINE"
);
},
{
closed = 1;
nodes = (
"537 143 LINE",
"537 -40 LINE",
"477 -40 LINE",
"475 0 OFFCURVE",
"454 25 OFFCURVE",
"389 25 CURVE SMOOTH",
"343 25 OFFCURVE",
"258 12 OFFCURVE",
"209 12 CURVE SMOOTH",
"95 12 OFFCURVE",
"20 81 OFFCURVE",
"20 174 CURVE SMOOTH",
"20 202 OFFCURVE",
"27 236 OFFCURVE",
"42 263 CURVE",
"87 244 LINE",
"79 226 OFFCURVE",
"73 202 OFFCURVE",
"73 181 CURVE SMOOTH",
"73 132 OFFCURVE",
"107 107 OFFCURVE",
"175 107 CURVE SMOOTH",
"215 107 OFFCURVE",
"309 116 OFFCURVE",
"343 116 CURVE SMOOTH",
"418 116 OFFCURVE",
"473 72 OFFCURVE",
"498 -7 CURVE",
"467 41 LINE",
"467 143 LINE"
);
},
{
closed = 1;
nodes = (
"531 320 LINE",
"554 259 OFFCURVE",
"597 238 OFFCURVE",
"632 238 CURVE SMOOTH",
"670 238 OFFCURVE",
"697 262 OFFCURVE",
"697 292 CURVE SMOOTH",
"697 311 OFFCURVE",
"687 326 OFFCURVE",
"669 326 CURVE SMOOTH",
"664 326 OFFCURVE",
"656 325 OFFCURVE",
"649 323 CURVE",
"678 356 LINE",
"683 350 OFFCURVE",
"686 339 OFFCURVE",
"686 329 CURVE SMOOTH",
"686 301 OFFCURVE",
"663 278 OFFCURVE",
"632 278 CURVE SMOOTH",
"598 278 OFFCURVE",
"570 304 OFFCURVE",
"570 339 CURVE SMOOTH",
"570 374 OFFCURVE",
"598 401 OFFCURVE",
"638 401 CURVE SMOOTH",
"699 401 OFFCURVE",
"751 337 OFFCURVE",
"751 264 CURVE SMOOTH",
"751 196 OFFCURVE",
"705 148 OFFCURVE",
"646 148 CURVE SMOOTH",
"585 148 OFFCURVE",
"534 199 OFFCURVE",
"503 294 CURVE"
);
}
);
width = 777;
}
);
},
{
glyphname = bPRa_bSignUu;
lastChange = "2016-02-13 20:16:22 +0000";
layers = (
{
layerId = "F2EBC5D5-DDE2-4851-B52F-F2293ECE9CC7";
paths = (
{
closed = 1;
nodes = (
"368 378 LINE",
"175 202 LINE",
"127 244 LINE",
"159 270 LINE SMOOTH",
"173 282 OFFCURVE",
"184 302 OFFCURVE",
"184 322 CURVE SMOOTH",
"184 343 OFFCURVE",
"172 356 OFFCURVE",
"154 356 CURVE SMOOTH",
"126 356 OFFCURVE",
"110 327 OFFCURVE",
"88 327 CURVE SMOOTH",
"73 327 OFFCURVE",
"58 342 OFFCURVE",
"58 363 CURVE SMOOTH",
"58 413 OFFCURVE",
"138 498 OFFCURVE",
"228 498 CURVE SMOOTH",
"301 498 OFFCURVE",
"360 443 OFFCURVE",
"427 313 CURVE",
"423 259 LINE",
"377 355 OFFCURVE",
"319 451 OFFCURVE",
"241 451 CURVE SMOOTH",
"200 451 OFFCURVE",
"153 424 OFFCURVE",
"118 362 CURVE",
"97 381 LINE",
"111 389 OFFCURVE",
"125 392 OFFCURVE",
"137 392 CURVE SMOOTH",
"181 392 OFFCURVE",
"214 356 OFFCURVE",
"214 314 CURVE SMOOTH",
"214 303 OFFCURVE",
"212 291 OFFCURVE",
"207 280 CURVE",
"181 290 LINE",
"334 422 LINE"
);
},
{
closed = 1;
nodes = (
"419 491 LINE",
"667 491 LINE",
"667 456 LINE",
"459 456 LINE",
"459 100 LINE",
"419 100 LINE"
);
},
{
closed = 1;
nodes = (
"459 218 LINE",
"459 0 LINE",
"434 0 LINE",
"428 38 OFFCURVE",
"407 79 OFFCURVE",
"360 79 CURVE SMOOTH",
"330 79 OFFCURVE",
"230 62 OFFCURVE",
"184 62 CURVE SMOOTH",
"101 62 OFFCURVE",
"38 117 OFFCURVE",
"38 192 CURVE SMOOTH",
"38 218 OFFCURVE",
"45 246 OFFCURVE",
"57 268 CURVE",
"75 259 LINE",
"68 243 OFFCURVE",
"65 218 OFFCURVE",
"65 202 CURVE SMOOTH",
"65 146 OFFCURVE",
"104 119 OFFCURVE",
"169 119 CURVE SMOOTH",
"208 119 OFFCURVE",
"287 129 OFFCURVE",
"320 129 CURVE SMOOTH",
"381 129 OFFCURVE",
"422 95 OFFCURVE",
"438 41 CURVE",
"419 54 LINE",
"419 218 LINE"
);
},
{
closed = 1;
nodes = (
"438 347 LINE",
"471 377 OFFCURVE",
"507 392 OFFCURVE",
"525 392 CURVE SMOOTH",
"555 392 OFFCURVE",
"592 352 OFFCURVE",
"592 315 CURVE SMOOTH",
"592 102 LINE SMOOTH",
"592 74 OFFCURVE",
"602 50 OFFCURVE",
"620 32 CURVE",
"609 15 LINE",
"575 39 OFFCURVE",
"552 67 OFFCURVE",
"552 122 CURVE SMOOTH",
"552 336 LINE SMOOTH",
"552 347 OFFCURVE",
"548 351 OFFCURVE",
"541 351 CURVE SMOOTH",
"522 351 OFFCURVE",
"482 331 OFFCURVE",
"451 304 CURVE"
);
}
);
width = 657;
},
{
layerId = "A309AC34-D742-49E2-8DE7-30304959F2B2";
paths = (
{
closed = 1;
nodes = (
"426 344 LINE",
"223 147 LINE",
"134 221 LINE",
"166 247 LINE SMOOTH",
"195 271 OFFCURVE",
"204 290 OFFCURVE",
"204 307 CURVE SMOOTH",
"204 324 OFFCURVE",
"195 334 OFFCURVE",
"178 334 CURVE SMOOTH",
"146 334 OFFCURVE",
"131 299 OFFCURVE",
"98 299 CURVE SMOOTH",
"71 299 OFFCURVE",
"40 323 OFFCURVE",
"40 366 CURVE SMOOTH",
"40 439 OFFCURVE",
"129 530 OFFCURVE",
"237 530 CURVE SMOOTH",
"323 530 OFFCURVE",
"416 473 OFFCURVE",
"495 273 CURVE",
"462 225 LINE",
"414 336 OFFCURVE",
"349 444 OFFCURVE",
"270 444 CURVE SMOOTH",
"229 444 OFFCURVE",
"171 414 OFFCURVE",
"136 332 CURVE",
"115 383 LINE",
"132 391 OFFCURVE",
"149 394 OFFCURVE",
"165 394 CURVE SMOOTH",
"230 394 OFFCURVE",
"269 344 OFFCURVE",
"269 286 CURVE SMOOTH",
"269 273 OFFCURVE",
"267 261 OFFCURVE",
"262 250 CURVE",
"213 289 LINE",
"362 416 LINE"
);
},
{
closed = 1;
nodes = (
"457 521 LINE",
"754 521 LINE",
"754 456 LINE",
"537 456 LINE",
"537 30 LINE",
"457 30 LINE"
);
},
{
closed = 1;
nodes = (
"537 143 LINE",
"537 -40 LINE",
"477 -40 LINE",
"475 0 OFFCURVE",
"454 25 OFFCURVE",
"389 25 CURVE SMOOTH",
"343 25 OFFCURVE",
"258 12 OFFCURVE",
"209 12 CURVE SMOOTH",
"95 12 OFFCURVE",
"20 81 OFFCURVE",
"20 174 CURVE SMOOTH",
"20 202 OFFCURVE",
"27 236 OFFCURVE",
"42 263 CURVE",
"87 244 LINE",
"79 226 OFFCURVE",
"73 202 OFFCURVE",
"73 181 CURVE SMOOTH",
"73 132 OFFCURVE",
"107 107 OFFCURVE",
"175 107 CURVE SMOOTH",
"215 107 OFFCURVE",
"309 116 OFFCURVE",
"343 116 CURVE SMOOTH",
"418 116 OFFCURVE",
"473 72 OFFCURVE",
"498 -7 CURVE",
"467 41 LINE",
"467 143 LINE"
);
},
{
closed = 1;
nodes = (
"493 353 LINE",
"527 386 OFFCURVE",
"563 402 OFFCURVE",
"584 402 CURVE SMOOTH",
"627 402 OFFCURVE",
"684 329 OFFCURVE",
"684 275 CURVE SMOOTH",
"684 82 LINE SMOOTH",
"684 59 OFFCURVE",
"695 39 OFFCURVE",
"714 24 CURVE",
"686 -15 LINE",
"639 11 OFFCURVE",
"607 42 OFFCURVE",
"607 102 CURVE SMOOTH",
"607 299 LINE SMOOTH",
"607 310 OFFCURVE",
"604 315 OFFCURVE",
"598 315 CURVE SMOOTH",
"585 315 OFFCURVE",
"551 294 OFFCURVE",
"528 269 CURVE"
);
}
);
width = 724;
}
);
},
